<?xml version="1.0" encoding="utf-8"?>
<!-- Generator: Adobe Illustrator 27.0.0, SVG Export Plug-In . SVG Version: 6.00 Build 0)  -->
<svg version="1.1" id="Layer_1" xmlns="http://www.w3.org/2000/svg" xmlns:xlink="http://www.w3.org/1999/xlink" x="0px" y="0px"
	 viewBox="0 0 612 612" style="enable-background:new 0 0 612 612;" xml:space="preserve">
<style type="text/css">
	.st0{fill:#8EB83F;}
</style>
<path class="st0" d="M450.55,572.02c22.37-4.78,59.94-8.59,82.25-7.79c31.09,1.1-40.58-21.59-70.81-28.45
	c-6.3-1.43-18.28-4.35-24.67-5.29c-117.76-17.28-178.44-32.9-263.53-0.71c83.49-137.8,40.44-326.58,11.06-416.01
	c-3.26-10.63-3.69-11.08-44.74-98.51c-13.15-28.01-11.67-7.09-11.65-7.09c45.64,290.89-122.41,392.93-27.22,592.65l25.29,4.73
	c70.69,9.82,189.24,11.35,309.72-29.55C440.95,574.4,445.71,573.05,450.55,572.02z"/>
</svg>
