<?xml version="1.0" standalone="no"?>
<!DOCTYPE svg PUBLIC "-//W3C//DTD SVG 20010904//EN"
 "http://www.w3.org/TR/2001/REC-SVG-20010904/DTD/svg10.dtd">
<svg version="1.0" xmlns="http://www.w3.org/2000/svg"
 width="652.000000pt" height="1280.000000pt" viewBox="0 0 652.000000 1280.000000"
 preserveAspectRatio="xMidYMid meet">
<metadata>
Created by potrace 1.15, written by Peter Selinger 2001-2017
</metadata>
<g transform="translate(0.000000,1280.000000) scale(0.100000,-0.100000)"
fill="#ffffff" stroke="none">
<path d="M4268 12768 c-40 -55 -68 -108 -68 -131 0 -18 -9 -24 -49 -34 -27 -6
-68 -9 -91 -6 -37 5 -44 10 -57 42 -24 57 -51 81 -94 81 -37 0 -38 -1 -41 -42
-3 -40 -4 -41 -63 -64 -43 -16 -73 -21 -106 -17 -41 5 -48 3 -67 -22 -22 -27
-24 -28 -105 -23 -103 7 -128 0 -146 -37 -23 -51 -60 -104 -80 -114 -14 -8
-25 -6 -44 9 -32 25 -48 25 -81 -1 -37 -29 -35 -71 5 -107 l31 -28 -51 -23
c-59 -28 -66 -41 -40 -74 24 -32 24 -44 -1 -59 -50 -31 -9 -77 105 -118 101
-37 139 -55 240 -113 38 -22 64 -42 58 -44 -6 -2 -67 20 -135 50 -148 66 -310
98 -385 78 -36 -10 -43 -16 -43 -36 0 -13 7 -28 15 -33 23 -12 10 -35 -35 -63
-46 -28 -53 -41 -40 -74 8 -22 15 -25 60 -25 28 0 65 7 83 16 45 24 196 13
305 -21 115 -36 174 -63 167 -75 -12 -19 -121 -10 -211 16 -136 41 -125 42
-161 -13 -29 -44 -31 -49 -16 -61 13 -9 14 -15 5 -24 -20 -20 -14 -46 14 -65
23 -14 34 -15 80 -5 33 7 65 8 84 2 21 -6 47 -4 83 7 43 13 64 13 117 4 36 -6
96 -16 133 -22 l68 -11 -48 -23 c-58 -27 -120 -90 -167 -167 -43 -73 -54 -106
-58 -190 -4 -68 -4 -68 23 -68 21 0 28 6 32 28 10 51 104 117 218 153 98 31
138 32 89 1 -61 -38 -169 -163 -216 -248 -47 -87 -48 -89 -47 -179 0 -50 5
-107 11 -126 6 -19 13 -51 17 -71 7 -46 17 -48 32 -7 12 31 13 31 37 15 27
-17 76 -22 76 -7 0 6 -10 17 -22 25 -51 36 -74 165 -41 234 10 20 45 66 79
102 50 53 76 71 138 97 88 37 93 32 55 -54 -19 -41 -22 -71 -25 -212 -4 -163
-3 -164 16 -146 20 18 20 17 20 -37 0 -57 16 -85 43 -75 10 4 13 19 10 54 -10
99 53 261 137 354 l39 44 1 -38 c0 -21 13 -64 31 -99 l31 -62 -17 -75 c-10
-42 -28 -105 -41 -141 -34 -96 -83 -318 -94 -429 -6 -53 -15 -128 -21 -167
l-11 -71 -56 -23 c-71 -30 -119 -73 -188 -172 -60 -84 -94 -115 -164 -145 -36
-16 -48 -28 -59 -57 -10 -30 -10 -40 -1 -49 10 -9 14 -8 18 3 10 30 73 79 124
98 29 11 87 25 128 31 51 8 95 23 138 46 34 19 66 35 71 35 4 0 11 -28 15 -62
3 -34 13 -72 21 -84 9 -15 15 -47 15 -86 0 -35 7 -119 15 -188 8 -69 24 -226
35 -350 11 -124 24 -268 29 -320 29 -281 22 -505 -17 -625 -15 -43 -21 -50
-46 -53 -51 -6 -198 -71 -253 -112 -29 -22 -70 -67 -93 -99 -22 -33 -43 -62
-47 -64 -5 -3 -4 -70 1 -149 14 -240 12 -275 -18 -347 -35 -86 -114 -216 -163
-268 -21 -23 -56 -67 -77 -97 -33 -48 -38 -64 -43 -132 -7 -86 5 -96 40 -33
11 19 23 35 27 37 8 3 26 18 122 108 31 28 83 69 117 90 34 21 78 51 98 67 20
15 42 27 50 27 7 0 23 16 34 35 12 19 25 35 30 35 4 0 24 14 44 31 46 41 52
25 27 -77 -11 -43 -27 -117 -37 -164 -9 -47 -25 -123 -37 -170 -29 -124 -32
-140 -19 -140 6 0 11 10 11 23 0 24 25 66 34 57 8 -8 -45 -220 -54 -220 -5 0
-4 15 1 32 12 45 11 70 -3 66 -6 -2 -25 -58 -42 -124 -22 -86 -39 -130 -58
-153 -15 -17 -37 -62 -48 -99 -18 -57 -20 -82 -14 -172 6 -98 5 -107 -15 -130
l-21 -25 -24 29 c-13 16 -43 81 -66 145 -90 244 -113 288 -212 397 -39 42 -72
66 -123 90 -205 94 -486 139 -617 99 -89 -26 -192 -85 -249 -142 -31 -30 -59
-50 -63 -45 -3 6 0 63 8 129 17 138 34 312 42 436 7 103 11 105 109 58 80 -38
125 -80 125 -119 0 -16 6 -35 14 -41 7 -6 16 -34 18 -61 3 -28 8 -54 12 -57
13 -13 26 22 26 72 0 28 3 102 6 165 3 68 1 129 -5 150 -6 20 -33 57 -61 85
l-51 50 -102 0 -102 -1 -4 144 -3 145 27 -7 c87 -22 81 -24 114 48 21 47 35
66 48 66 11 0 24 5 30 11 8 8 20 1 44 -24 30 -31 41 -36 89 -39 50 -3 55 -1
54 17 -5 69 -83 392 -125 519 -27 79 -12 93 31 31 18 -26 38 -66 46 -89 7 -22
30 -76 52 -118 32 -59 42 -93 48 -148 5 -55 11 -73 26 -81 16 -9 26 -3 60 30
30 30 48 41 72 41 24 0 36 8 54 35 12 19 22 50 22 68 0 18 5 38 12 45 19 19
62 14 81 -9 12 -14 24 -18 35 -13 18 7 37 8 61 2 9 -2 18 9 24 27 5 17 13 37
17 46 5 9 11 36 15 61 4 25 10 49 13 54 10 14 74 60 93 67 11 3 19 23 24 54 6
47 8 50 63 78 l57 30 -3 52 c-3 37 1 61 14 82 14 24 15 33 5 45 -10 12 -10 19
0 38 7 13 16 50 20 82 5 45 13 64 30 76 29 23 21 33 -48 60 -32 12 -83 32
-113 46 -52 23 -193 54 -308 69 -38 5 -51 10 -43 18 15 15 321 38 421 31 74
-4 89 -3 118 15 37 24 39 32 12 56 -26 23 -25 32 5 97 33 71 32 88 -11 129
-19 18 -49 53 -65 77 l-29 43 21 29 c30 40 19 60 -31 60 -61 0 -103 -11 -347
-91 l-63 -21 -31 26 c-40 34 -68 33 -174 -5 -95 -33 -125 -33 -49 1 27 11 56
28 65 36 9 8 32 23 50 33 19 10 68 37 109 60 82 47 162 81 187 81 9 0 25 7 35
17 17 15 20 15 43 -7 14 -13 25 -29 25 -36 0 -15 -100 -54 -138 -54 -29 0
-145 -51 -156 -68 -13 -21 14 -22 51 -4 21 11 73 24 116 30 43 6 99 21 125 34
40 20 47 28 50 57 3 24 -3 40 -21 60 -36 39 -97 137 -97 156 0 8 -7 18 -15 21
-8 4 -15 16 -15 28 0 12 -7 46 -15 75 -15 49 -19 53 -73 77 -76 33 -102 59
-102 100 0 27 -6 37 -31 49 -17 9 -37 14 -44 11 -9 -3 -15 7 -20 31 l-6 35
-56 -4 c-43 -4 -61 -10 -75 -28 l-19 -24 -30 30 c-18 18 -34 50 -42 79 l-12
50 -65 -3 c-116 -4 -127 -9 -154 -55 -14 -23 -30 -70 -36 -104 -11 -63 -103
-344 -141 -434 -12 -27 -26 -49 -31 -49 -12 0 -11 1 37 170 19 69 40 150 47
180 34 167 58 243 84 266 31 30 27 49 -12 50 -16 0 -44 4 -61 8 -36 8 -43 -3
-17 -25 25 -20 13 -97 -66 -424 -25 -101 -54 -178 -70 -183 -9 -3 -11 1 -5 14
14 36 54 289 48 311 -3 13 -17 29 -32 36 -14 7 -36 20 -48 27 -19 12 -24 12
-43 -5 -11 -10 -22 -16 -24 -14 -12 12 -9 189 3 208 8 12 14 12 40 0 25 -11
32 -20 30 -39 -3 -62 1 -80 20 -80 14 0 20 10 26 48 3 26 6 59 6 75 0 23 4 27
29 27 33 0 39 14 14 28 -10 6 -31 6 -53 0 -76 -20 -81 -20 -81 -9 0 7 -11 23
-25 36 -19 20 -34 25 -74 25 -47 0 -51 -2 -57 -27 -23 -102 -35 -137 -59 -165
-23 -27 -26 -39 -22 -73 3 -22 11 -114 17 -205 12 -162 20 -210 39 -210 5 0 7
97 3 235 -4 214 -3 235 12 235 13 0 16 -11 16 -62 0 -63 16 -112 35 -109 5 1
8 32 6 75 -3 75 7 98 30 70 10 -12 10 -72 2 -307 -9 -256 -9 -293 5 -304 12
-10 13 -19 3 -58 -6 -26 -9 -67 -5 -94 3 -27 2 -51 -2 -53 -18 -10 -74 13 -85
35 -7 12 -15 74 -19 138 -5 89 -11 124 -28 155 -14 26 -25 74 -32 144 -6 58
-23 161 -36 230 -15 72 -23 139 -19 157 6 35 -18 122 -38 135 -23 15 -87 8
-127 -13 -33 -17 -51 -20 -89 -15 -52 7 -65 0 -98 -51 -12 -19 -23 -23 -52
-21 -31 3 -36 0 -39 -21 -2 -14 -11 -35 -19 -48 -15 -22 -17 -23 -34 -7 -14
12 -29 15 -56 11 -21 -4 -42 -2 -50 5 -10 8 -20 8 -38 0 -28 -13 -33 -43 -10
-62 11 -9 14 -22 10 -41 -4 -19 2 -40 23 -75 55 -93 132 -232 132 -238 0 -21
-26 5 -85 84 -67 90 -128 140 -172 140 -28 0 -33 -8 -22 -37 12 -31 -1 -49
-42 -58 -22 -5 -34 -17 -50 -51 -22 -48 -19 -73 12 -113 30 -38 22 -44 -24
-16 -24 14 -55 25 -68 25 -32 0 -87 -35 -99 -63 -6 -12 -15 -30 -22 -39 -22
-31 3 -69 90 -136 46 -35 81 -67 78 -69 -3 -3 -44 9 -91 26 -47 17 -90 31 -96
31 -17 0 -9 -49 10 -59 18 -10 18 -11 -1 -51 -11 -22 -35 -49 -54 -61 -40 -24
-43 -41 -12 -61 l23 -15 -29 -44 c-37 -55 -46 -127 -22 -164 16 -25 16 -27 -9
-57 -31 -36 -29 -54 7 -81 24 -18 31 -19 55 -8 15 7 81 15 145 18 101 5 121 3
144 -12 22 -14 38 -16 83 -10 31 3 83 8 116 10 33 1 72 6 87 10 28 7 39 -7 17
-21 -6 -3 -8 -17 -5 -30 8 -29 -5 -35 -119 -58 -84 -16 -381 -39 -463 -36 -26
2 -53 2 -59 1 -20 -2 -15 -25 8 -44 20 -18 20 -19 4 -38 -14 -15 -17 -30 -12
-76 3 -31 2 -64 -4 -74 -16 -31 7 -65 66 -101 50 -29 56 -36 51 -59 -3 -15
-19 -48 -36 -75 -16 -26 -30 -51 -30 -54 0 -12 67 -40 83 -34 29 11 64 -21 72
-66 5 -32 11 -40 28 -40 25 0 136 59 226 119 64 42 71 40 71 -21 0 -33 -30
-66 -128 -141 l-54 -41 7 -65 c4 -36 9 -70 12 -74 3 -4 24 -5 47 -2 38 6 43 4
54 -19 13 -29 27 -33 36 -11 3 8 12 15 20 15 19 0 66 -57 66 -81 0 -13 7 -19
24 -19 13 0 29 -7 37 -16 10 -12 23 -14 62 -9 53 8 51 10 31 -40 -5 -11 1 -15
20 -15 19 0 29 -7 36 -24 5 -15 20 -27 39 -31 17 -4 33 -11 36 -16 11 -18 42
-9 55 16 17 33 43 34 34 1 -5 -22 16 -56 36 -56 16 0 22 21 10 35 -9 10 -9 15
-1 15 6 0 17 -10 26 -23 8 -13 34 -34 57 -47 l41 -23 29 32 c43 49 37 82 -8
40 -26 -25 -58 -19 -50 8 2 10 7 48 11 86 7 76 18 87 84 87 l40 0 -3 -91 c-3
-58 -8 -94 -16 -99 -18 -11 -3 -91 16 -83 8 3 14 10 14 15 0 6 7 25 16 43 12
26 13 41 5 69 -5 20 -7 61 -4 91 l6 54 46 3 46 3 6 171 c4 94 9 176 13 182 4
7 23 4 55 -6 44 -15 50 -21 55 -52 7 -45 8 -190 0 -190 -3 0 -12 7 -21 16 -28
28 -34 1 -23 -112 14 -151 13 -158 -16 -193 -30 -36 -54 -39 -79 -11 -39 43
-67 16 -29 -29 29 -35 51 -38 95 -15 17 8 33 14 35 11 10 -10 23 -164 24 -281
0 -124 -21 -290 -40 -310 -5 -5 -14 10 -20 33 -14 53 -57 102 -128 145 -77 46
-151 60 -273 51 -84 -6 -102 -5 -128 11 -35 21 -47 15 -31 -15 6 -13 28 -25
58 -33 40 -9 61 -25 132 -99 54 -56 104 -97 138 -114 50 -24 61 -45 23 -45
-23 0 -99 -50 -138 -91 -64 -68 -90 -189 -58 -273 21 -55 105 -138 158 -155
84 -28 225 38 203 95 -8 22 -25 17 -36 -11 -5 -13 -22 -31 -38 -39 -28 -15
-32 -14 -76 15 -45 30 -46 32 -46 85 0 132 80 214 209 214 l44 0 -7 -202 c-9
-245 -14 -273 -59 -287 -18 -6 -40 -23 -49 -39 -9 -15 -51 -65 -94 -112 -98
-108 -221 -282 -233 -329 -5 -20 -20 -87 -32 -149 -23 -121 -23 -154 1 -437
12 -151 18 -175 73 -314 40 -99 45 -107 147 -211 83 -86 118 -114 164 -135 33
-14 71 -35 84 -46 14 -11 32 -17 41 -14 27 8 195 -51 253 -89 63 -42 88 -61
88 -68 0 -3 -37 3 -82 14 -88 20 -102 20 -213 -7 -93 -23 -151 -54 -241 -126
-106 -87 -159 -156 -229 -304 -73 -153 -81 -175 -100 -284 -8 -46 -24 -103
-35 -126 -11 -23 -20 -49 -20 -57 0 -9 -30 -76 -67 -150 -59 -119 -75 -141
-148 -214 -45 -45 -103 -95 -129 -113 -25 -18 -46 -36 -46 -41 0 -15 78 -12
108 4 15 8 63 19 107 26 115 17 224 48 267 75 20 13 65 36 99 50 35 14 72 33
83 43 12 10 47 35 78 55 l58 37 0 -25 c0 -13 -11 -59 -25 -102 -14 -43 -25
-90 -25 -105 0 -15 -4 -37 -9 -51 -6 -15 -4 -69 4 -148 15 -139 13 -133 65
-249 63 -140 87 -209 109 -321 19 -95 21 -116 10 -185 -19 -133 -21 -191 -9
-266 12 -66 16 -76 60 -118 26 -25 50 -55 54 -67 4 -11 25 -33 47 -48 91 -60
249 -197 249 -216 0 -22 4 -23 29 -7 22 13 92 -10 128 -44 22 -20 64 -22 70
-2 2 6 -21 24 -52 39 -31 15 -63 38 -72 52 -9 14 -41 50 -71 81 -92 96 -119
145 -137 249 -9 51 -27 124 -40 162 -13 38 -26 96 -30 128 -4 32 -13 86 -22
121 -8 35 -12 76 -9 90 4 15 10 72 15 127 12 140 54 223 188 369 223 244 247
305 284 751 7 77 12 151 12 165 -1 37 -30 209 -42 250 -24 76 -2 125 23 54 6
-16 23 -45 37 -64 14 -19 76 -141 136 -270 177 -377 288 -642 337 -805 15 -49
34 -108 42 -130 8 -23 14 -50 14 -62 0 -12 11 -69 25 -127 27 -116 31 -167 14
-194 -8 -13 -9 -47 -1 -124 11 -116 51 -229 100 -281 32 -34 42 -88 126 -697
49 -354 123 -741 144 -748 16 -5 15 28 -3 113 -42 194 -56 268 -69 360 -8 55
-22 140 -30 189 -9 48 -20 136 -26 195 -6 58 -22 179 -36 269 -26 175 -29 232
-15 232 6 0 12 -4 15 -8 6 -10 28 -158 66 -452 17 -129 35 -253 40 -275 5 -22
17 -85 25 -140 17 -113 46 -248 81 -378 13 -48 24 -94 24 -101 0 -8 -16 -17
-35 -20 -19 -4 -35 -11 -35 -16 0 -16 44 -22 74 -11 50 20 86 13 118 -21 24
-26 78 -116 78 -131 0 -3 -19 -7 -41 -11 -37 -6 -48 -2 -106 35 -35 23 -73 55
-84 70 -11 16 -25 27 -30 24 -17 -11 20 -64 69 -97 l47 -33 -62 -3 c-63 -3
-83 -15 -40 -25 12 -3 87 -8 167 -12 80 -3 160 -8 178 -11 23 -4 32 -1 32 9 0
18 -21 27 -61 27 -19 0 -32 6 -35 18 -15 48 -42 100 -76 149 -47 67 -68 107
-68 130 0 10 -13 68 -29 128 -30 110 -74 325 -86 420 -4 28 -11 58 -16 67 -10
18 -31 162 -48 333 -6 55 -19 127 -31 159 -11 33 -20 68 -20 78 0 16 3 17 23
7 12 -6 34 -23 49 -36 19 -18 31 -23 43 -16 11 7 33 1 75 -19 33 -15 63 -28
68 -28 13 0 72 -59 141 -143 35 -42 74 -83 85 -91 36 -23 134 -45 250 -55 119
-11 151 -23 291 -114 79 -51 99 -70 114 -110 14 -37 45 -37 38 1 -20 93 -37
219 -41 294 -6 98 -20 134 -96 238 -56 76 -85 131 -95 180 -21 103 -143 251
-286 346 -58 38 -89 68 -187 177 -58 65 -169 100 -332 103 -69 1 -136 3 -150
3 -14 1 -51 0 -83 -2 -32 -2 -60 0 -63 4 -16 27 -74 392 -74 470 0 30 -7 126
-16 214 -8 88 -17 205 -18 260 -2 55 -7 135 -11 179 l-8 78 29 -5 c16 -3 56
-8 89 -12 115 -11 168 -27 212 -62 50 -40 57 -41 51 -8 -3 15 -1 25 6 25 6 0
72 -5 146 -10 111 -9 146 -8 200 4 36 8 117 27 180 41 135 32 198 33 298 6
119 -31 142 -67 142 -214 l0 -95 -60 -123 c-33 -68 -60 -130 -60 -136 0 -26
20 -12 41 30 12 23 50 88 85 144 59 96 101 185 122 263 7 24 10 28 11 13 1
-12 6 -25 13 -29 8 -5 9 2 4 27 -4 19 -13 79 -20 134 -8 66 -20 112 -33 135
-12 19 -29 62 -38 95 -10 33 -27 71 -39 85 -12 14 -32 46 -45 72 -18 40 -34
54 -89 85 -37 21 -101 51 -142 67 -71 27 -87 29 -290 36 -174 6 -229 12 -290
29 -80 23 -264 106 -281 127 -6 7 -29 22 -52 33 -23 12 -55 31 -71 44 l-29 24
52 169 c29 93 57 174 61 179 33 40 80 236 80 331 0 50 -3 57 -46 101 l-46 48
32 144 c32 144 107 410 119 423 7 8 98 -20 236 -72 71 -27 129 -41 200 -49
169 -19 282 -39 314 -55 16 -9 39 -16 50 -16 11 0 22 -4 25 -9 3 -4 34 -22 68
-39 35 -16 101 -60 147 -96 105 -84 155 -112 210 -121 42 -7 134 -44 216 -87
22 -11 64 -33 93 -49 29 -15 70 -43 91 -62 21 -19 45 -38 52 -43 33 -21 118
-126 124 -154 4 -17 17 -38 30 -46 13 -9 27 -29 30 -46 5 -23 11 -29 26 -25
14 4 21 -1 25 -17 3 -12 4 -26 3 -32 -4 -14 42 -134 52 -134 16 0 17 19 8 169
-11 179 -41 284 -115 413 -24 42 -44 80 -44 85 0 4 -27 49 -61 99 -41 63 -59
99 -55 111 4 13 -4 28 -25 49 -17 16 -48 54 -69 84 -21 31 -69 91 -106 135
-38 44 -84 104 -103 133 -20 32 -62 74 -105 107 -39 29 -103 83 -141 118 -119
109 -331 225 -498 272 -101 28 -155 30 -279 9 -24 -4 -38 -3 -38 4 0 5 26 45
58 89 169 227 244 331 260 363 44 88 94 160 111 160 10 0 24 7 31 15 18 22 51
140 57 208 3 31 9 57 14 57 5 0 9 -7 9 -16 0 -9 8 -23 17 -29 17 -13 17 -14 0
-32 -17 -20 -23 -43 -10 -43 3 0 32 21 62 48 92 78 153 125 202 157 26 17 66
43 90 58 24 16 70 44 102 63 54 31 61 33 85 20 39 -21 68 -55 91 -109 24 -56
26 -97 9 -179 -9 -41 -9 -64 -2 -75 19 -31 33 -25 44 19 16 61 31 98 41 98 5
0 9 -2 9 -5 0 -3 7 -47 15 -99 18 -113 57 -209 83 -204 14 3 19 20 26 86 4 45
11 82 15 82 4 0 13 -11 19 -25 17 -38 74 -111 97 -126 11 -7 52 -14 91 -17 65
-4 73 -3 83 16 21 39 128 54 182 26 17 -8 38 -13 46 -10 14 6 14 9 -2 26 -10
11 -26 22 -36 25 -19 6 -27 45 -10 45 5 0 19 -14 31 -30 12 -17 26 -28 31 -25
14 9 10 47 -6 69 -8 11 -15 31 -15 44 0 21 3 23 23 17 74 -24 106 0 68 52 -27
38 -19 85 14 77 29 -7 41 12 22 34 -14 16 -21 47 -18 80 1 9 11 5 31 -12 42
-34 56 -26 57 34 1 53 -9 66 -92 124 -32 22 -20 36 33 36 23 0 32 5 32 16 0
12 -7 15 -26 11 -18 -3 -32 2 -49 18 -36 37 -117 55 -295 67 -91 5 -178 10
-195 9 -16 0 -41 2 -55 5 -24 5 -24 6 -5 17 21 11 440 12 524 0 l44 -6 -7 44
c-4 26 -17 54 -31 68 -21 22 -35 25 -114 29 -87 4 -91 4 -178 -37 -50 -22
-103 -41 -119 -41 l-29 0 40 25 c22 13 51 25 63 25 13 0 44 18 69 40 25 22 50
40 55 40 17 0 108 83 101 93 -12 19 -155 0 -241 -34 -68 -25 -92 -41 -135 -86
-29 -30 -56 -59 -62 -63 -5 -5 -31 -28 -57 -50 -42 -37 -57 -44 -130 -56 -45
-8 -98 -25 -117 -37 -20 -12 -62 -27 -94 -34 -74 -15 -129 -43 -218 -110 -39
-30 -73 -52 -75 -50 -2 2 19 44 47 93 54 93 194 377 271 549 52 117 178 520
178 570 0 9 34 51 76 94 50 52 91 106 118 158 48 89 68 99 119 60 47 -36 81
-109 85 -188 4 -59 1 -72 -32 -137 -40 -79 -43 -92 -22 -92 8 0 21 19 28 43 8
24 23 46 35 52 13 5 24 22 28 42 3 18 18 58 32 90 21 46 27 78 31 154 l4 96
-38 40 c-22 22 -46 42 -54 45 -8 3 -12 9 -8 13 9 9 117 -40 146 -68 31 -29 62
-90 62 -121 0 -28 18 -45 30 -27 12 20 -6 91 -45 174 -32 70 -37 76 -51 62
-19 -19 -32 -19 -80 1 -26 11 -54 14 -86 11 -50 -6 -58 -2 -33 17 13 9 13 15
3 38 -17 37 -62 37 -113 2 -38 -25 -74 -63 -75 -76 -1 -20 41 -6 50 16 4 13
25 34 45 46 39 24 63 19 27 -6 -25 -17 -21 -34 9 -34 28 0 24 -18 -6 -26 -14
-3 -25 -13 -25 -21 0 -28 -51 -101 -74 -107 -15 -4 -43 -35 -76 -83 -60 -89
-118 -153 -137 -153 -19 0 -17 4 33 72 53 73 86 133 77 142 -13 13 -31 5 -37
-17 -14 -56 -144 -227 -172 -227 -21 0 -17 21 6 27 11 3 44 42 75 88 61 92 72
115 56 115 -6 0 -34 -35 -63 -77 -32 -47 -54 -72 -56 -62 -4 20 12 57 38 89
11 14 27 59 36 100 8 41 25 90 37 110 20 32 22 46 20 183 -3 228 26 181 52
-85 4 -38 11 -68 16 -68 5 0 9 10 9 23 0 30 18 47 51 47 14 0 46 7 70 16 55
19 158 20 194 1 23 -11 33 -12 64 -1 20 7 49 13 65 14 18 0 76 30 162 85 131
84 154 95 154 75 0 -5 6 -10 14 -10 53 0 6 -62 -63 -84 -51 -15 -239 -100
-252 -113 -4 -4 -5 -14 -1 -20 5 -9 37 2 112 36 58 27 123 52 146 55 28 5 59
22 97 54 54 45 69 73 47 87 -5 3 -10 15 -10 26 0 16 -7 19 -50 19 -53 0 -90
-15 -170 -69 -51 -35 -83 -40 -78 -13 4 23 123 100 177 114 27 7 72 34 118 70
l75 59 -7 42 c-4 23 -11 46 -15 50 -4 5 -29 -1 -55 -12 -26 -12 -50 -21 -52
-21 -3 0 14 22 36 49 23 27 50 74 60 104 11 30 30 73 43 96 19 34 21 44 11 61
-7 11 -13 28 -13 39 0 23 -27 48 -39 35 -5 -5 -39 -63 -76 -129 -76 -136 -72
-132 -84 -119 -6 5 1 34 18 74 15 36 33 87 40 114 7 27 19 58 27 70 17 25 19
90 1 104 -6 6 -28 12 -47 14 -32 3 -35 5 -32 32 7 68 -28 104 -48 50 -6 -14
-16 -24 -23 -21 -15 5 -13 88 3 127 14 33 5 90 -14 90 -23 0 -94 -39 -100 -55
-5 -13 -13 -15 -38 -10 -43 10 -44 11 -23 35 18 19 17 20 -18 35 -20 8 -45 15
-56 15 -11 0 -25 9 -31 20 -6 11 -22 23 -36 26 -23 6 -25 11 -22 48 2 34 0 41
-17 44 -11 2 -27 10 -36 18 -22 20 -45 9 -59 -29 -18 -50 -27 -62 -42 -58 -47
14 -67 11 -113 -18 -27 -17 -57 -31 -66 -31 -10 0 -29 -15 -43 -32 l-26 -33 0
38 c0 25 -5 40 -16 44 -12 4 -14 16 -8 59 6 49 4 54 -12 54 -56 -1 -169 -137
-176 -212 -2 -24 -7 -32 -18 -29 -8 3 -30 5 -49 5 -65 2 -81 -53 -105 -357 -6
-84 -14 -71 -32 55 -9 64 -26 87 -53 71 -27 -17 -31 -16 -31 2 0 10 -10 15
-29 15 -29 0 -29 0 -36 -75 -8 -78 4 -148 30 -188 8 -12 18 -49 24 -82 5 -33
12 -72 16 -87 10 -37 1 -35 -40 9 -34 37 -34 37 -55 18 -20 -18 -22 -18 -31
-2 -12 21 -29 22 -29 2 0 -27 30 -76 77 -126 24 -26 48 -60 52 -76 6 -22 24
-37 86 -70 94 -51 91 -49 75 -68 -8 -10 -27 -15 -51 -13 -49 3 -54 -3 -26 -30
17 -16 41 -23 94 -28 61 -6 72 -10 78 -28 4 -11 10 -133 12 -271 4 -201 8
-253 20 -266 17 -20 62 -145 63 -175 0 -12 -6 -37 -14 -55 -7 -19 -17 -55 -20
-81 -4 -26 -18 -75 -32 -109 -14 -33 -41 -113 -60 -177 -20 -65 -56 -155 -82
-202 -25 -47 -68 -128 -95 -180 -27 -52 -61 -117 -76 -145 -36 -68 -222 -345
-232 -345 -4 0 -13 16 -19 36 -7 20 -34 82 -61 140 -26 57 -55 132 -64 166
-24 96 -24 96 -41 74 -8 -11 -14 -43 -14 -72 0 -29 -4 -64 -9 -77 -5 -14 -24
-93 -41 -176 -34 -161 -34 -190 -11 -390 l11 -94 -88 -123 c-77 -109 -129
-187 -249 -371 -52 -80 -128 -183 -134 -183 -8 0 2 52 46 230 20 80 40 170 45
200 5 30 20 102 34 160 29 123 52 243 62 320 8 69 12 76 94 180 80 100 93 126
115 211 28 106 29 151 7 195 -24 46 -47 69 -86 84 -26 10 -28 13 -22 48 23
128 27 199 27 480 0 274 -2 327 -20 415 -42 212 -84 567 -69 583 10 9 67 -25
115 -69 77 -71 87 -101 93 -266 3 -97 9 -146 17 -148 6 -2 14 9 17 24 3 15 15
78 28 138 17 80 23 143 23 230 0 141 -12 171 -93 247 -56 53 -108 78 -159 78
-76 0 -79 10 -93 240 -7 124 -6 163 4 195 8 22 22 87 31 145 9 58 23 119 31
135 8 17 19 55 24 85 15 79 72 223 83 210 8 -11 47 -142 47 -161 0 -11 -10
-38 -22 -59 -28 -47 -20 -59 24 -33 25 14 35 29 42 58 4 22 15 57 23 77 16 37
15 86 -3 274 -7 71 5 88 33 47 40 -58 67 -137 69 -203 2 -100 2 -97 19 -80 14
15 27 71 47 216 12 87 0 215 -29 298 -16 46 -12 54 19 34 13 -8 45 -18 73 -22
94 -15 149 -42 185 -94 19 -26 38 -49 42 -50 14 -6 40 -64 57 -126 21 -78 41
-86 41 -16 0 31 4 49 10 45 20 -12 7 -93 -41 -256 -22 -74 -22 -79 -10 -79 4
0 25 27 45 60 38 62 75 84 56 34 -6 -14 -10 -37 -10 -50 0 -42 23 -22 37 32 7
27 19 65 28 84 8 19 24 74 35 122 18 82 19 93 5 170 -42 234 -108 336 -264
410 -39 18 -71 37 -71 42 0 11 126 -1 151 -14 10 -6 39 -28 64 -50 59 -51 96
-70 140 -72 63 -2 104 59 75 112 -5 10 -41 31 -80 46 -39 15 -73 31 -76 35
-15 25 174 21 311 -7 60 -12 74 -19 101 -51 17 -20 36 -56 42 -80 8 -30 17
-43 29 -43 39 0 43 13 36 99 -6 81 -8 85 -53 140 -48 57 -86 80 -168 101 -23
6 -40 15 -37 20 9 15 113 12 144 -5 29 -15 133 -39 211 -49 25 -4 65 -14 90
-22 40 -14 50 -15 95 -2 66 20 69 39 11 93 -55 51 -118 71 -253 81 -51 4 -93
10 -93 14 0 14 62 30 115 30 95 0 174 12 179 27 3 8 3 32 0 54 -6 37 -10 41
-51 52 -34 9 -49 19 -60 42 -8 16 -26 39 -40 51 -23 20 -24 23 -13 62 7 22 10
52 6 65 -5 22 -14 27 -52 33 -26 4 -83 4 -128 1 -71 -4 -94 -11 -186 -54 -94
-44 -222 -131 -318 -214 -36 -32 -52 -36 -52 -16 0 30 118 125 230 186 149 82
196 120 210 171 5 22 15 57 20 79 6 21 10 50 10 65 0 25 -2 26 -61 26 l-61 0
5 38 c3 20 8 47 12 59 6 18 1 26 -25 42 -36 21 -45 20 -107 -22 l-42 -29 -40
34 c-29 23 -41 41 -41 60 0 27 -5 30 -67 43 -30 6 -33 10 -33 45 0 51 -14 61
-72 49 -37 -8 -54 -19 -81 -53 -36 -43 -57 -99 -57 -149 0 -48 31 -30 45 26
15 59 35 82 64 72 25 -8 27 -23 6 -52 -8 -12 -19 -39 -23 -60 -6 -27 -15 -42
-35 -51 -29 -14 -82 -80 -98 -121 -7 -17 -5 -35 5 -61 14 -35 13 -39 -11 -81
-14 -24 -32 -51 -40 -60 -17 -20 -82 -204 -124 -349 -34 -120 -89 -260 -101
-260 -12 0 -10 18 8 75 8 28 26 102 39 165 23 107 95 335 124 388 11 21 10 27
-9 47 l-21 23 17 146 c13 111 14 150 5 159 -6 6 -39 13 -74 15 -53 3 -68 0
-99 -19 -20 -13 -39 -28 -41 -34 -2 -5 -2 -56 1 -112 4 -92 6 -103 23 -103 25
0 33 36 24 115 -6 62 -6 66 22 90 20 18 37 24 62 22 l34 -2 -2 -88 -2 -87 -46
-49 c-43 -45 -47 -48 -74 -37 -64 24 -90 -26 -101 -194 -16 -257 -55 -541 -78
-564 -19 -19 -22 4 -15 109 6 94 9 105 26 105 14 0 19 7 19 25 0 14 -4 25 -10
25 -5 0 -10 -4 -10 -10 0 -5 -4 -10 -10 -10 -6 0 -8 72 -3 208 5 177 4 215
-11 265 -13 44 -21 57 -36 57 -28 0 -34 18 -20 61 11 33 11 41 -5 65 -9 14
-26 29 -36 31 -16 4 -19 15 -19 62 -1 33 -7 64 -15 75 -13 17 -13 22 2 38 9
10 26 18 38 18 24 0 24 1 45 -135 6 -33 12 -75 15 -92 3 -18 10 -33 15 -33 14
0 12 134 -1 203 -10 49 -9 60 5 82 12 18 24 25 39 23 21 -3 22 -7 20 -83 -3
-86 -20 -272 -29 -317 -4 -21 -2 -28 10 -28 9 0 17 12 21 33 12 76 24 167 31
242 9 104 16 120 59 141 23 10 43 31 56 55 27 54 49 52 49 -5 0 -29 5 -46 14
-49 11 -5 17 5 22 39 5 37 9 44 23 38 9 -4 40 -10 69 -14 28 -3 58 -12 65 -19
7 -7 12 -38 12 -74 0 -49 3 -62 16 -65 12 -2 19 10 27 53 20 98 -2 121 -146
149 -122 24 -156 18 -182 -34 -17 -33 -26 -40 -49 -40 -32 0 -41 14 -41 65 0
41 -18 85 -35 85 -7 0 -24 -15 -37 -32z m42 -50 c0 -25 -12 -58 -21 -58 -10 0
-12 53 -2 63 10 11 23 8 23 -5z m-370 -69 c0 -12 -27 -11 -35 1 -11 17 5 32
21 19 8 -6 14 -15 14 -20z m990 -9 c0 -5 -9 -10 -20 -10 -11 0 -20 5 -20 10 0
6 9 10 20 10 11 0 20 -4 20 -10z m-914 -70 c18 0 38 -12 60 -36 45 -47 44 -70
-2 -78 -56 -11 -93 17 -114 84 -20 64 -17 77 10 50 11 -11 32 -20 46 -20z
m-112 8 c8 -13 24 -50 36 -83 17 -48 19 -66 11 -88 -17 -43 -28 -32 -35 36 -5
37 -17 79 -32 104 -28 49 -29 53 -9 53 8 0 21 -10 29 -22z m-181 -23 c45 -18
42 -19 62 2 13 12 22 14 34 7 26 -16 62 -97 71 -164 10 -68 13 -75 38 -75 9 0
33 -23 53 -52 32 -46 37 -62 43 -135 4 -45 18 -114 31 -152 25 -74 54 -270 42
-282 -4 -4 -8 -5 -9 -3 -46 76 -166 331 -162 343 6 15 -60 106 -77 106 -20 0
-5 -41 66 -177 41 -79 75 -149 75 -155 0 -23 -34 19 -85 106 -63 106 -101 161
-170 244 -53 64 -86 78 -110 45 -12 -16 -14 -16 -36 -1 -13 9 -48 39 -77 67
-43 41 -49 51 -33 51 11 0 25 9 31 20 19 35 45 42 73 20 14 -11 31 -20 39 -20
7 0 24 -21 38 -47 32 -60 68 -103 86 -103 20 0 17 27 -8 69 -12 19 -32 63 -43
96 l-21 60 -49 6 c-27 3 -71 0 -98 -6 -39 -9 -55 -19 -78 -50 -16 -21 -29 -45
-29 -52 0 -17 149 -163 167 -163 24 0 13 -38 -17 -60 -42 -30 -39 -57 10 -76
32 -13 52 -34 110 -119 76 -112 83 -120 106 -111 13 5 13 9 0 34 -8 16 -22 34
-30 41 -9 8 -16 22 -16 33 0 20 -22 54 -82 129 -42 52 -45 59 -23 59 10 0 15
10 15 31 l0 30 43 -25 c23 -14 51 -40 62 -58 11 -19 32 -49 46 -68 15 -19 45
-69 69 -110 46 -82 100 -140 130 -140 10 0 28 -15 40 -35 12 -19 28 -35 35
-35 7 0 16 -7 19 -16 9 -24 7 -84 -3 -84 -5 0 -12 -13 -16 -30 -4 -16 -10 -30
-14 -30 -5 0 -18 37 -30 83 -25 92 -32 108 -46 110 -18 3 -16 -47 4 -111 10
-34 15 -62 9 -62 -25 0 -135 156 -153 218 -3 12 -13 22 -21 22 -51 0 59 -199
146 -263 36 -27 49 -42 42 -49 -16 -16 -108 34 -170 92 -45 42 -52 53 -42 66
15 17 15 16 -29 34 -18 7 -76 57 -128 111 -52 54 -129 120 -172 148 -71 47
-255 131 -286 131 -7 0 -18 7 -26 16 -10 13 -10 20 5 45 19 31 14 64 -9 73
-23 8 -18 36 6 36 12 0 51 -14 87 -31 53 -26 69 -30 84 -20 22 14 45 4 96 -40
21 -18 44 -29 63 -29 38 0 35 19 -7 40 -16 9 -49 27 -74 42 -25 14 -56 29 -70
33 -39 11 -70 45 -70 76 0 17 12 42 31 64 30 34 33 35 50 19 25 -22 35 -11 21
21 -13 28 0 42 18 20 30 -36 57 -10 40 39 -19 60 -10 66 100 66 76 0 102 4
114 16 9 8 16 20 16 25 0 13 12 11 53 -6z m1307 -6 c0 -6 -14 -27 -31 -46 -17
-20 -38 -51 -47 -69 -18 -40 -23 -41 -47 -14 -18 20 -18 22 4 63 13 23 32 50
43 60 22 19 78 23 78 6z m74 -67 c15 -18 14 -23 -24 -98 -22 -43 -62 -109 -89
-145 l-50 -67 -61 0 c-44 0 -60 3 -57 12 3 7 42 66 87 131 127 183 156 208
194 167z m186 -2 c0 -5 -4 -10 -10 -10 -5 0 -10 5 -10 10 0 6 5 10 10 10 6 0
10 -4 10 -10z m-36 -26 c9 -4 16 -18 16 -34 0 -42 35 -79 81 -86 22 -4 42 -10
44 -15 3 -4 -16 -20 -42 -35 -27 -15 -64 -40 -84 -56 -20 -15 -39 -28 -42 -28
-3 0 -8 14 -12 31 -16 73 -98 52 -148 -39 -15 -27 -24 -52 -20 -56 15 -15 34
-3 53 34 17 34 45 60 64 60 14 0 4 -78 -14 -107 -34 -56 -118 -57 -164 -2
l-25 29 49 66 c27 37 68 99 91 138 37 63 47 74 88 88 25 9 47 16 48 17 1 1 8
-2 17 -5z m-1158 -83 c6 -18 21 -41 34 -51 19 -14 24 -30 28 -79 5 -67 2 -70
-53 -47 -24 10 -47 34 -75 77 -44 69 -45 73 -27 112 10 23 17 27 47 25 30 -3
37 -8 46 -37z m-851 -11 c10 -30 -5 -47 -22 -25 -7 11 -13 25 -13 32 0 21 28
15 35 -7z m1617 -17 c5 -39 -9 -80 -36 -102 -22 -19 -39 -3 -32 30 3 16 9 44
12 62 12 58 50 65 56 10z m528 -111 c0 -23 -50 -70 -115 -110 -50 -31 -71 -30
-59 2 8 21 141 126 160 126 8 0 14 -8 14 -18z m-828 -62 c-8 -22 -7 -31 4 -41
20 -16 19 -21 -26 -155 -37 -112 -70 -244 -89 -355 -8 -46 -92 -189 -112 -189
-14 0 -11 46 12 150 27 126 49 339 49 476 0 61 3 113 6 117 4 3 17 -1 30 -10
31 -20 69 -10 91 25 34 53 56 43 35 -18z m-336 -36 c15 -41 17 -72 11 -312 -8
-282 -15 -382 -28 -382 -17 0 -14 88 6 193 6 30 4 37 -9 37 -11 0 -18 -13 -22
-40 -4 -22 -12 -47 -19 -57 -11 -15 -14 -5 -20 62 -10 122 -34 283 -51 350
-31 119 -32 125 -20 132 20 13 57 14 71 3 19 -16 32 -6 40 30 9 42 20 37 41
-16z m648 -3 c3 -5 -1 -14 -9 -21 -8 -7 -15 -25 -15 -40 0 -18 -38 -88 -105
-196 -104 -166 -165 -245 -165 -213 0 31 111 352 142 409 35 66 57 81 33 24
-18 -44 -18 -44 -1 -44 8 0 19 15 25 33 8 24 20 36 44 44 44 14 45 14 51 4z
m103 -84 c17 -30 18 -25 -32 -92 -41 -54 -55 -85 -39 -85 20 0 124 130 124
155 0 28 15 33 24 9 4 -11 -12 -39 -49 -83 -30 -36 -98 -129 -149 -206 -70
-104 -122 -167 -200 -244 -59 -57 -109 -102 -112 -98 -5 5 27 100 61 181 9 22
38 71 64 110 26 39 71 109 99 156 29 47 72 117 97 155 24 39 44 78 45 88 0 17
2 17 28 -3 15 -12 32 -31 39 -43z m638 32 c4 -5 4 -21 1 -34 -5 -18 -27 -34
-91 -64 -47 -22 -97 -49 -112 -60 -35 -29 -52 -26 -64 9 -8 22 -17 30 -34 30
-35 0 -136 -82 -208 -168 -94 -111 -300 -307 -360 -342 -48 -27 -87 -38 -87
-24 0 13 184 208 294 313 217 205 348 297 486 341 37 12 168 12 175 -1z m70
-128 c33 -29 33 -30 14 -47 -10 -9 -19 -23 -19 -29 0 -15 -22 -25 -54 -25 -25
0 -64 -25 -54 -35 3 -3 32 -1 65 5 102 21 113 22 113 14 -1 -24 -23 -37 -76
-43 -61 -8 -99 -24 -324 -144 -69 -37 -128 -67 -132 -67 -5 0 -8 7 -8 15 0 8
18 24 40 35 22 11 54 33 72 49 36 31 112 71 170 90 42 14 52 25 44 47 -5 13
-10 13 -40 0 -41 -17 -50 -7 -40 53 5 34 11 39 82 74 42 20 84 37 95 37 11 0
34 -13 52 -29z m-2450 -46 c59 -15 232 -86 278 -113 18 -11 48 -25 68 -31 48
-16 115 -73 104 -90 -13 -22 -73 -5 -177 47 -114 59 -221 89 -343 98 -67 5
-97 12 -114 25 -22 18 -23 21 -7 38 10 11 14 25 10 36 -6 15 -1 16 62 10 37
-4 91 -14 119 -20z m2070 -25 c10 -11 28 -20 40 -20 13 0 29 -7 36 -16 12 -15
10 -20 -15 -38 -15 -12 -60 -47 -100 -78 -39 -32 -76 -58 -83 -58 -19 0 -146
-60 -186 -87 -72 -49 -50 -12 49 85 54 53 126 128 159 165 33 37 65 67 71 67
6 0 19 -9 29 -20z m511 -45 c4 -8 3 -23 -1 -32 -6 -16 -8 -16 -26 6 -10 13
-19 27 -19 32 0 15 40 10 46 -6z m-2788 -32 c2 -9 -9 -13 -40 -13 -40 1 -42 2
-23 16 23 17 56 15 63 -3z m2752 -155 c19 -6 39 -14 45 -19 5 -5 16 -9 25 -9
8 0 26 -7 39 -16 33 -23 12 -41 -22 -19 -19 12 -31 14 -43 7 -10 -6 -29 -6
-43 -2 -14 5 -63 14 -108 20 -83 12 -94 18 -70 38 27 22 103 22 177 0z m-2517
0 c12 -6 53 -19 91 -29 56 -15 79 -16 125 -7 94 17 197 6 266 -30 73 -37 102
-58 93 -67 -4 -4 -23 -2 -43 5 -19 6 -73 16 -118 20 -45 5 -110 13 -145 19
-48 7 -82 6 -135 -4 -62 -12 -76 -12 -101 1 -26 13 -32 12 -63 -7 -18 -12 -40
-18 -48 -15 -19 7 -19 35 0 42 8 4 18 24 21 45 7 41 19 47 57 27z m1861 -44
c25 -10 19 -32 -13 -49 -17 -8 -50 -28 -74 -45 -24 -16 -80 -44 -123 -61 -43
-17 -84 -35 -91 -41 -7 -5 -14 -5 -17 1 -7 11 46 49 139 101 33 19 82 49 110
67 27 18 51 33 52 33 1 0 8 -3 17 -6z m302 -53 c5 -5 25 -14 44 -20 41 -13
120 -106 120 -141 0 -20 -3 -19 -41 13 -50 43 -135 66 -277 74 -97 6 -103 7
-100 27 2 16 16 25 63 38 65 18 175 23 191 9z m-1278 -80 c3 -8 -1 -12 -9 -9
-7 2 -15 10 -17 17 -3 8 1 12 9 9 7 -2 15 -10 17 -17z m-358 -11 c0 -9 -31
-30 -44 -30 -3 0 -6 9 -6 20 0 15 7 20 25 20 14 0 25 -4 25 -10z m-90 -20 c0
-12 -62 -52 -69 -44 -6 5 49 53 62 54 4 0 7 -5 7 -10z m250 -10 c0 -5 -2 -10
-4 -10 -3 0 -8 5 -11 10 -3 6 -1 10 4 10 6 0 11 -4 11 -10z m70 -46 c0 -16
-16 -19 -25 -4 -8 13 4 32 16 25 5 -4 9 -13 9 -21z m190 16 c0 -12 -28 -25
-36 -17 -9 9 6 27 22 27 8 0 14 -5 14 -10z m-325 -20 c-3 -5 -26 -10 -50 -10
-53 0 -95 -15 -95 -33 0 -9 -30 -25 -74 -41 -86 -30 -87 -30 -80 -12 6 17 108
72 167 91 51 16 141 19 132 5z m1261 -16 c72 -29 83 -43 62 -73 -13 -18 -16
-18 -44 -5 -17 8 -53 35 -80 59 -42 38 -46 44 -27 45 13 0 52 -12 89 -26z
m-1546 -14 c0 -5 -7 -10 -15 -10 -8 0 -15 5 -15 10 0 6 7 10 15 10 8 0 15 -4
15 -10z m385 0 c8 -12 -40 -24 -62 -15 -17 7 -16 8 2 15 28 12 53 12 60 0z
m-115 -10 c-8 -5 -31 -10 -50 -10 -26 0 -31 3 -20 10 8 5 31 10 50 10 26 0 31
-3 20 -10z m350 -80 c5 0 14 9 20 20 15 29 27 25 34 -11 8 -40 -17 -82 -194
-319 -30 -41 -67 -101 -80 -132 -25 -58 -45 -78 -35 -35 3 12 10 45 15 72 12
53 39 101 102 176 35 43 47 69 32 69 -19 0 -49 -28 -89 -85 -26 -36 -51 -65
-56 -65 -12 0 15 64 41 97 25 33 26 47 0 40 -24 -6 -26 5 -5 23 8 7 29 37 46
66 28 50 49 62 49 28 0 -31 21 -11 51 49 47 92 53 98 57 49 2 -23 7 -42 12
-42z m206 -17 c20 -43 47 -106 61 -140 24 -61 35 -73 48 -54 5 9 -23 92 -59
174 -9 20 -12 37 -7 37 16 0 58 -80 81 -155 19 -61 60 -268 60 -302 0 -26 -18
-12 -24 18 -10 50 -66 159 -82 159 -22 0 -17 -27 17 -91 18 -33 30 -61 28 -64
-8 -8 -259 268 -265 291 -7 29 3 74 16 74 6 0 10 -4 10 -10 0 -25 43 -119 56
-124 22 -8 37 3 25 18 -17 20 -69 186 -60 191 10 7 12 3 43 -90 27 -84 59
-145 75 -145 20 0 21 20 1 52 -40 69 -87 238 -66 238 4 0 23 -35 42 -77z
m-111 58 c3 -5 1 -12 -5 -16 -5 -3 -10 1 -10 9 0 18 6 21 15 7z m214 0 c7 -5
10 -14 6 -20 -5 -9 -10 -9 -21 0 -26 22 -14 38 15 20z m-704 -11 c4 -6 -6 -10
-22 -10 -15 0 -44 -4 -62 -10 -46 -13 -52 -4 -10 14 40 18 85 20 94 6z m95 0
c0 -5 -15 -10 -34 -10 -19 0 -38 5 -41 10 -4 6 10 10 34 10 23 0 41 -4 41 -10z
m738 -40 c152 -80 292 -211 292 -273 0 -14 -25 7 -87 72 -80 83 -123 111 -123
79 0 -7 12 -22 28 -35 32 -26 20 -29 -58 -12 -41 9 -53 17 -66 41 -13 25 -14
32 -2 39 7 5 16 9 21 9 19 0 2 23 -45 61 -91 71 -75 79 40 19z m335 -19 c54
-59 117 -183 117 -231 0 -12 5 -30 11 -42 19 -35 12 -186 -11 -252 -39 -115
-65 -117 -39 -3 10 45 19 115 19 155 0 112 -48 258 -76 230 -2 -3 3 -21 11
-41 8 -21 13 -37 9 -37 -17 0 -46 25 -80 70 -24 31 -76 77 -136 118 -54 37
-98 71 -98 76 0 16 92 -1 121 -23 33 -25 62 -27 79 -6 10 12 10 18 0 30 -10
12 -10 15 3 15 8 0 40 -27 70 -59z m-1318 19 c-3 -5 -24 -15 -45 -21 -22 -7
-63 -32 -91 -56 -28 -24 -54 -42 -56 -39 -3 2 7 22 21 42 20 30 39 43 88 60
71 25 92 28 83 14z m265 -17 c0 -5 -22 -21 -50 -36 -27 -15 -88 -64 -135 -109
-47 -44 -88 -78 -92 -75 -9 10 39 75 94 128 67 65 183 123 183 92z m675 -43
c11 -18 -22 -10 -49 11 -35 28 -22 45 14 19 16 -12 32 -25 35 -30z m-635 -24
c0 -8 -13 -24 -28 -34 -37 -27 -212 -102 -212 -92 0 13 49 44 110 70 30 12 69
33 85 46 35 27 45 30 45 10z m310 -181 c3 -87 1 -110 -10 -99 -5 5 -12 47 -16
94 -6 77 -5 84 9 70 9 -9 16 -35 17 -65z m-590 5 c0 -5 -4 -10 -10 -10 -5 0
-10 5 -10 10 0 6 5 10 10 10 6 0 10 -4 10 -10z m674 -43 c6 -26 -7 -86 -16
-72 -3 6 -9 29 -13 53 -5 34 -4 42 8 42 8 0 17 -10 21 -23z m-714 -2 c-7 -9
-15 -13 -17 -11 -7 7 7 26 19 26 6 0 6 -6 -2 -15z m-45 -64 c-20 -40 -35 -48
-35 -19 0 27 17 48 37 48 11 0 10 -6 -2 -29z m1415 20 c0 -6 -4 -13 -10 -16
-5 -3 -10 1 -10 9 0 9 5 16 10 16 6 0 10 -4 10 -9z m-600 -21 c0 -5 -2 -10 -4
-10 -3 0 -8 5 -11 10 -3 6 -1 10 4 10 6 0 11 -4 11 -10z m-70 -133 c0 -81 -20
-63 -27 24 -6 59 -5 63 10 50 13 -10 17 -30 17 -74z m-70 63 c0 -5 -4 -10 -10
-10 -5 0 -10 5 -10 10 0 6 5 10 10 10 6 0 10 -4 10 -10z m-14 -102 c-4 -24
-22 -92 -41 -153 -18 -60 -40 -137 -48 -170 -9 -33 -22 -85 -31 -115 -8 -30
-20 -81 -27 -113 -7 -32 -16 -60 -21 -63 -29 -18 26 263 83 421 16 45 34 108
40 140 12 67 24 95 41 95 7 0 8 -14 4 -42z m147 -13 c4 -8 9 -48 13 -90 8 -90
-10 -106 -20 -17 -4 31 -10 72 -13 90 -5 32 10 45 20 17z m-137 -126 c-9 -19
-15 -26 -16 -17 0 23 22 75 26 62 3 -6 -2 -26 -10 -45z m1559 -25 c0 -10 -8
-20 -17 -22 -18 -3 -26 27 -11 42 12 11 28 0 28 -20z m-425 -29 c0 -16 -34
-38 -43 -28 -10 9 12 43 28 43 8 0 15 -7 15 -15z m-1150 -4 c0 -6 -4 -13 -10
-16 -5 -3 -10 1 -10 9 0 9 5 16 10 16 6 0 10 -4 10 -9z m1572 -25 c62 -3 73
-6 81 -24 7 -14 24 -24 51 -30 49 -10 49 -5 -1 -162 -23 -72 -47 -126 -63
-145 -34 -37 -36 -45 -50 -145 -6 -45 -26 -126 -44 -180 -19 -54 -30 -103 -26
-110 13 -20 38 27 70 130 26 85 35 120 55 213 5 26 9 28 47 25 63 -5 65 -30
10 -148 -24 -52 -61 -144 -82 -205 -89 -258 -90 -260 -152 -331 -33 -38 -67
-81 -76 -96 -45 -76 -40 12 6 118 37 84 82 235 82 275 0 39 -17 37 -25 -3 -32
-149 -106 -308 -144 -308 -34 0 -33 34 5 131 43 111 68 265 56 343 -12 72 10
259 37 318 12 25 24 67 28 93 5 42 11 50 52 75 25 16 47 27 50 24 2 -2 -1 -28
-7 -56 -45 -223 -57 -273 -83 -353 -36 -115 -59 -211 -59 -253 0 -53 22 -33
37 34 7 32 36 129 63 214 27 85 54 183 60 218 6 34 20 83 31 108 21 50 24 86
10 113 -8 14 -23 17 -79 17 -86 -1 -107 -17 -121 -90 -5 -28 -19 -100 -30
-161 -27 -147 -48 -449 -32 -469 9 -10 4 -34 -20 -102 -17 -49 -37 -95 -45
-103 -12 -13 -17 -8 -36 35 -22 47 -23 60 -22 279 0 311 8 391 41 429 22 26
26 28 35 13 11 -20 54 -23 61 -3 3 7 0 19 -6 25 -6 6 -16 26 -21 43 -16 49
-39 46 -77 -8 -25 -33 -35 -42 -37 -29 -4 18 16 143 24 157 3 5 19 0 35 -9 26
-16 31 -16 39 -3 5 8 10 22 10 31 0 9 17 30 37 45 63 50 71 52 114 37 22 -7
72 -15 111 -17z m-395 -28 c12 -16 -17 -294 -43 -421 -13 -65 -15 -90 -7 -98
9 -9 13 -6 17 12 23 114 24 109 25 -145 1 -242 0 -258 -16 -250 -10 4 -39 9
-64 12 l-46 4 -27 66 c-103 252 -128 391 -108 595 10 105 21 129 47 107 8 -7
24 -10 36 -7 19 5 20 2 15 -26 -3 -18 -8 -108 -12 -202 -5 -150 -4 -182 15
-273 23 -110 57 -212 71 -212 20 0 20 24 1 78 -43 124 -56 219 -55 387 1 144
12 235 41 338 5 19 54 46 84 47 9 0 21 -6 26 -12z m-1197 -8 c0 -5 -4 -10 -10
-10 -5 0 -10 5 -10 10 0 6 5 10 10 10 6 0 10 -4 10 -10z m1940 -87 c0 -30 -17
-50 -31 -36 -8 8 -8 16 0 32 14 26 31 27 31 4z m-116 1 c9 -3 16 -13 16 -20 0
-8 6 -17 14 -20 8 -3 16 -14 19 -25 3 -12 14 -19 30 -19 14 0 28 -4 31 -9 7
-11 -51 -215 -94 -334 -17 -45 -46 -105 -65 -133 -18 -29 -31 -55 -28 -58 8
-8 53 34 53 50 0 15 27 26 35 14 6 -9 -39 -97 -78 -154 -15 -22 -17 -30 -7
-36 17 -10 4 -30 -20 -30 -12 0 -40 -26 -72 -65 -46 -58 -68 -77 -68 -59 0 3
18 40 40 83 22 43 40 91 40 107 1 66 58 213 128 327 48 77 51 89 20 85 -19 -2
-24 2 -26 28 -3 27 -9 33 -43 43 -32 10 -39 16 -33 29 5 14 42 113 69 190 5
13 15 15 39 6z m-1894 -149 l-8 -40 -1 36 c0 20 2 39 6 42 11 11 11 4 3 -38z
m-2009 -33 c-7 -16 -11 -38 -9 -48 4 -24 -25 -30 -46 -9 -23 23 -20 74 6 102
22 23 22 23 41 4 18 -17 18 -23 8 -49z m4077 -8 c2 -17 -17 -92 -43 -170 -43
-131 -65 -179 -65 -141 0 9 -7 20 -16 25 -14 8 -11 24 26 138 23 71 47 142 52
157 14 37 42 32 46 -9z m-4368 3 c0 -2 25 -128 55 -281 30 -152 53 -281 50
-286 -11 -18 -44 3 -51 34 -3 17 -17 63 -29 101 -13 39 -31 111 -41 160 -9 50
-21 96 -27 104 -8 9 -24 11 -52 7 -73 -10 -139 -26 -149 -36 -19 -19 -32 -10
-54 35 -12 25 -22 47 -22 49 0 2 11 7 25 10 15 4 27 16 31 30 3 13 16 34 28
45 34 32 69 13 82 -42 11 -50 28 -55 32 -10 4 45 74 108 102 93 11 -6 20 -12
20 -13z m817 -18 c9 -9 8 -18 -3 -35 -9 -13 -40 -87 -69 -166 -29 -79 -81
-215 -115 -303 -34 -88 -65 -176 -70 -195 -4 -19 -20 -63 -34 -97 -14 -35 -26
-69 -26 -76 0 -23 -22 -38 -37 -26 -21 18 -16 45 26 139 21 48 42 103 46 121
8 40 106 327 135 395 12 26 30 88 41 138 12 54 27 96 36 104 21 15 55 16 70 1z
m78 -41 c4 -18 14 -44 22 -56 13 -21 13 -26 -1 -41 -8 -9 -27 -41 -41 -71 -14
-30 -29 -62 -35 -70 -5 -8 -18 -33 -28 -55 -46 -98 -166 -315 -173 -315 -5 0
-9 3 -9 6 0 17 46 159 82 254 100 265 151 380 168 380 5 0 11 -15 15 -32z
m3585 -6 c0 -85 -93 -280 -245 -512 -52 -79 -220 -245 -306 -300 -110 -71
-107 -53 12 70 50 51 106 116 125 144 24 36 41 51 56 51 16 0 29 13 47 45 14
25 31 49 38 53 33 20 157 316 189 450 5 24 11 27 45 27 36 0 39 -2 39 -28z
m-2190 8 c0 -5 -4 -10 -10 -10 -5 0 -10 5 -10 10 0 6 5 10 10 10 6 0 10 -4 10
-10z m-75 -122 c-4 -35 -11 -72 -16 -83 -9 -20 -4 59 7 118 10 51 16 27 9 -35z
m900 52 c5 -8 11 -7 20 0 32 27 37 9 55 -193 12 -143 16 -157 37 -157 12 0 14
7 9 33 -14 65 -18 163 -7 147 6 -8 11 -36 11 -62 0 -25 14 -86 30 -135 39
-114 38 -125 -6 -82 -78 76 -141 202 -115 233 10 11 6 26 -17 73 -31 61 -51
153 -33 153 5 0 13 -5 16 -10z m-851 -83 c-4 -56 -1 -136 11 -241 10 -86 15
-159 12 -162 -3 -4 -8 9 -10 27 -3 19 -11 66 -17 104 -18 103 -24 265 -10 313
6 23 13 42 16 42 3 0 2 -37 -2 -83z m-2551 -39 c70 -122 83 -153 69 -162 -13
-8 -32 17 -81 101 -22 39 -50 74 -60 78 -11 3 -22 12 -25 20 -8 23 5 75 19 75
8 0 42 -51 78 -112z m1439 88 c37 -20 43 -29 46 -60 3 -31 -3 -44 -37 -83 -50
-57 -101 -132 -101 -150 0 -33 33 -6 89 70 74 102 84 112 100 93 7 -8 35 -23
63 -33 61 -22 80 -47 83 -114 2 -33 10 -61 24 -80 17 -23 21 -41 19 -80 l-3
-50 -60 -25 c-33 -13 -63 -24 -67 -24 -5 0 -8 24 -8 53 0 62 -25 109 -70 132
-40 21 -50 14 -135 -83 -69 -79 -84 -85 -85 -35 0 16 -11 28 -40 43 -37 19
-39 22 -29 48 5 15 21 43 34 62 13 19 30 56 37 83 11 42 10 51 -6 82 -18 34
-18 36 -1 75 10 22 26 47 36 56 11 10 19 23 19 31 0 21 45 15 92 -11z m-179
-12 c9 -9 -12 -60 -34 -80 -18 -16 -19 -16 -19 9 0 54 30 94 53 71z m-1367
-69 c69 -78 112 -162 112 -215 -1 -42 26 -112 76 -200 8 -14 20 -40 27 -58 7
-19 36 -69 66 -113 29 -44 53 -84 53 -90 0 -31 -49 18 -137 136 -32 44 -80
107 -105 140 -49 63 -150 236 -186 317 -11 26 -24 68 -27 92 l-7 45 42 -2 c37
-1 47 -7 86 -52z m334 -27 c12 -40 35 -118 51 -173 17 -55 32 -107 35 -116 4
-16 -40 -44 -55 -35 -4 3 -18 39 -31 81 -23 73 -51 111 -103 142 -8 4 -29 32
-47 61 -39 64 -32 77 42 85 28 4 56 11 62 17 19 19 25 10 46 -62z m3290 42 c0
-5 -5 -10 -11 -10 -5 0 -7 5 -4 10 3 6 8 10 11 10 2 0 4 -4 4 -10z m1337 -52
c-14 -23 -31 -63 -37 -88 -8 -31 -26 -60 -58 -92 -25 -27 -50 -48 -54 -48 -21
0 -5 50 26 82 19 20 51 69 71 109 45 90 55 103 68 90 5 -5 0 -25 -16 -53z
m-1280 -25 c12 -38 31 -102 44 -143 12 -41 32 -99 45 -129 31 -68 30 -75 -6
-101 l-30 -21 0 21 c0 16 4 20 15 16 20 -7 19 -3 -14 73 -37 85 -67 183 -76
246 -3 28 -9 62 -11 78 -10 53 12 26 33 -40z m-2860 45 c9 -12 -18 -295 -28
-301 -2 -1 -18 -12 -36 -25 -18 -12 -35 -22 -38 -22 -3 0 -5 78 -5 174 0 158
2 175 18 179 35 9 80 7 89 -5z m512 -57 c10 -7 5 -20 -23 -61 -35 -50 -46 -90
-27 -90 5 0 22 18 38 40 28 39 43 50 43 29 0 -6 -17 -39 -37 -75 -31 -53 -42
-64 -60 -61 -31 6 -36 0 -76 -78 -51 -100 -61 -112 -81 -96 -9 7 -16 25 -16
40 0 26 12 50 108 215 29 49 52 90 52 92 0 1 4 14 10 28 10 27 41 34 69 17z
m-1543 -68 c16 -21 90 -100 166 -175 129 -130 170 -178 150 -178 -5 0 -29 17
-53 39 -80 70 -118 91 -166 91 -38 0 -46 -4 -61 -30 -9 -16 -22 -30 -29 -30
-6 0 -30 16 -53 35 -23 19 -46 35 -51 35 -5 0 -15 12 -21 28 -7 15 -18 34 -25
43 -19 22 -6 79 18 79 10 0 39 -18 64 -40 43 -37 75 -51 75 -32 0 4 -20 27
-44 51 l-44 43 16 39 c8 21 18 39 22 39 4 0 20 -17 36 -37z m2714 -10 c-11
-21 -27 -48 -36 -60 -16 -22 -15 -23 5 -23 23 0 46 30 57 73 8 33 28 31 32 -5
4 -35 -39 -83 -96 -109 -50 -22 -163 -51 -170 -44 -11 10 142 195 161 195 4 0
-2 -18 -13 -40 -27 -54 -9 -51 32 5 40 54 56 58 28 8z m2260 -74 c-12 -30 -55
-118 -96 -195 -73 -140 -96 -169 -187 -238 -36 -27 -39 -28 -82 -16 -25 7 -45
16 -45 21 0 4 21 22 48 40 91 62 226 210 287 315 81 140 88 150 92 138 2 -6
-6 -36 -17 -65z m-4465 -69 c45 -110 105 -310 105 -351 0 -20 -4 -17 -25 20
-14 24 -36 57 -50 73 -14 16 -25 39 -25 50 0 12 -20 43 -45 69 -46 49 -118
190 -113 219 3 14 60 29 96 26 8 0 33 -48 57 -106z m2327 7 c20 -94 22 -137 8
-137 -11 0 -14 11 -33 133 -12 81 -12 105 2 91 3 -3 13 -42 23 -87z m893 -2
c56 -56 70 -75 55 -75 -21 0 -140 116 -140 137 0 7 2 13 5 13 3 0 39 -34 80
-75z m1435 -15 c0 -24 -10 -38 -57 -75 -32 -25 -74 -50 -93 -56 -19 -6 -56
-24 -82 -40 -36 -22 -48 -25 -48 -14 0 24 57 109 89 133 27 20 164 81 184 82
4 0 7 -13 7 -30z m-3320 -25 c0 -8 -4 -15 -10 -15 -5 0 -17 -11 -26 -26 -13
-19 -14 -28 -5 -37 8 -8 14 -8 23 1 19 19 28 14 28 -16 0 -23 -8 -33 -40 -51
-21 -12 -49 -34 -60 -48 -34 -44 -153 -103 -165 -83 -10 16 -22 11 -28 -10 -3
-12 -14 -20 -25 -20 -48 0 -31 30 78 140 36 36 94 95 128 132 54 58 67 66 83
58 10 -6 19 -17 19 -25z m-2062 -34 c20 -10 57 -24 81 -31 41 -11 118 -54 132
-74 4 -5 3 -21 -1 -36 -10 -34 14 -91 60 -143 25 -29 39 -37 66 -37 l34 0 0
-55 c0 -64 -8 -67 -77 -35 -34 15 -43 24 -43 44 0 18 -4 24 -14 20 -8 -3 -19
3 -26 15 -13 24 -51 46 -100 56 -19 4 -53 24 -75 44 -22 21 -55 48 -72 60 -18
12 -33 31 -33 42 0 14 -7 19 -25 19 -14 0 -29 8 -35 19 -15 28 -13 33 10 26
18 -6 20 -2 20 33 0 56 32 67 98 33z m1722 11 c0 -4 -20 -41 -45 -82 -45 -76
-55 -105 -32 -98 10 3 61 74 104 144 10 18 12 18 28 2 30 -28 10 -63 -113
-194 -119 -127 -194 -194 -219 -194 -22 0 -16 14 37 83 27 36 59 89 70 116 31
80 131 231 152 231 10 0 18 -4 18 -8z m-841 -59 c5 -21 12 -51 15 -66 12 -52
31 -25 28 38 -3 40 -1 55 7 51 6 -4 11 -25 11 -47 0 -22 5 -49 10 -60 6 -10
18 -81 26 -157 17 -145 33 -202 58 -202 24 0 28 17 12 48 -16 31 -11 72 9 72
20 0 65 -40 65 -58 0 -31 21 -92 31 -92 6 0 13 9 16 20 3 11 12 20 19 20 8 0
14 10 14 25 0 38 42 75 85 75 44 0 52 -16 35 -73 -17 -63 -43 -89 -82 -85 -30
3 -34 0 -46 -37 -12 -35 -11 -41 4 -52 19 -14 44 -1 44 22 0 7 6 18 13 24 17
13 40 -8 56 -52 13 -33 34 -31 39 2 2 15 -6 34 -24 52 -26 27 -26 29 -7 29 11
0 41 18 66 41 41 35 50 39 81 33 33 -6 35 -8 33 -43 -2 -33 -6 -38 -49 -58
-53 -24 -60 -40 -23 -49 35 -9 31 -27 -5 -22 -33 5 -44 -18 -12 -28 60 -20 75
-30 93 -65 10 -21 19 -45 19 -54 0 -20 -38 -20 -90 1 -22 9 -48 13 -57 9 -10
-4 -29 -9 -42 -11 -13 -3 -35 -14 -49 -24 -14 -11 -33 -20 -44 -20 -13 0 -18
-6 -16 -17 2 -14 15 -19 51 -21 28 -2 47 1 47 7 0 21 27 11 59 -23 58 -60 22
-100 -48 -52 -20 14 -42 26 -49 26 -17 0 -15 -41 4 -68 20 -29 15 -96 -8 -100
-9 -2 -19 5 -23 17 -3 12 -13 21 -21 21 -8 0 -16 15 -20 41 -5 26 -15 46 -30
56 -40 26 -60 -10 -29 -51 22 -29 18 -49 -14 -80 -34 -33 -60 -31 -80 5 -19
33 -8 73 24 87 14 6 25 19 25 28 0 13 -7 15 -39 9 -24 -4 -42 -2 -46 4 -3 6
-17 11 -31 11 -21 0 -24 5 -24 35 0 36 -15 46 -38 23 -27 -27 -8 -93 33 -108
l23 -9 -31 -34 c-29 -33 -32 -34 -53 -20 -29 18 -39 49 -24 68 10 12 4 24 -29
64 -23 27 -52 52 -66 55 -22 6 -25 12 -25 51 0 41 2 45 25 45 15 0 25 6 25 14
0 7 -11 21 -25 30 -35 23 -31 44 10 62 20 8 33 19 30 24 -9 15 -65 23 -80 10
-10 -8 -15 -8 -21 1 -4 7 -2 15 4 17 7 2 12 12 12 22 0 29 18 33 56 15 43 -20
124 -29 144 -15 13 9 13 11 0 20 -8 5 -28 10 -43 10 -38 0 -95 28 -108 52 -14
26 -4 65 21 78 16 9 26 5 57 -23 87 -78 133 -76 78 3 -31 44 -58 121 -95 263
-26 102 -27 109 -12 142 9 19 20 35 24 35 4 0 11 -17 17 -37z m3213 8 c18 -16
30 -32 26 -36 -10 -10 -88 34 -88 50 0 24 27 17 62 -14z m-2827 3 c13 -8 26
-22 29 -31 4 -8 -9 -55 -29 -104 -19 -48 -37 -106 -41 -128 -7 -43 -45 -88
-65 -76 -26 16 3 301 34 343 13 17 43 15 72 -4z m2041 -16 c69 -47 101 -98
120 -191 16 -77 13 -187 -5 -187 -5 0 -11 38 -13 83 -6 84 -21 133 -39 122 -5
-4 -9 -15 -9 -26 0 -29 -21 -23 -59 16 -24 25 -53 41 -101 55 -63 19 -110 52
-110 78 0 14 16 16 24 3 12 -20 89 -52 99 -42 12 12 -8 41 -29 41 -19 0 -70
47 -61 56 9 9 77 -27 130 -68 28 -22 42 -27 50 -19 14 14 -15 47 -65 72 -51
26 -56 39 -15 39 23 0 52 -11 83 -32z m-2941 2 c3 -6 50 -45 103 -87 132 -105
255 -217 243 -221 -10 -3 -110 48 -141 73 -8 7 -34 23 -57 35 l-43 24 -23 -22
c-29 -28 -71 -28 -98 -1 -11 11 -36 27 -55 35 -29 12 -34 19 -34 49 0 19 2 35
5 35 3 0 28 -11 55 -25 55 -28 70 -31 70 -12 0 6 -20 25 -45 41 -56 35 -72 61
-48 75 23 13 60 14 68 1z m3960 -75 c25 -55 52 -76 42 -32 -20 84 -20 89 -1
85 26 -5 33 -50 35 -213 2 -196 -28 -268 -45 -108 -14 125 -43 254 -65 283
-25 35 -26 40 -5 40 9 0 25 -22 39 -55z m-2825 13 c14 -15 19 -30 15 -43 -4
-11 -10 -37 -14 -58 -15 -70 -92 -161 -132 -155 -36 5 -34 31 5 114 33 68 39
74 64 72 18 -2 26 1 24 11 -1 7 2 19 8 26 8 10 7 16 -6 23 -9 5 -14 14 -10 21
11 17 23 14 46 -11z m2784 -78 c18 -67 53 -261 61 -350 6 -59 4 -68 -19 -99
-22 -30 -42 -77 -60 -146 -3 -11 -3 24 -1 78 2 53 1 97 -4 97 -13 0 -21 -26
-21 -66 0 -19 -5 -34 -11 -34 -8 0 -9 36 -4 123 9 171 9 216 1 267 -11 68 11
26 27 -51 7 -35 19 -65 26 -67 20 -7 7 84 -25 173 -34 94 -38 119 -24 145 11
21 12 21 25 3 7 -10 20 -43 29 -73z m-140 44 c25 -9 19 -24 -9 -24 -24 0 -32
10 -18 23 8 8 8 8 27 1z m-1018 -79 c16 -39 20 -150 4 -125 -5 8 -10 33 -10
55 0 70 -21 113 -33 68 -3 -11 -5 -7 -6 10 -2 39 27 35 45 -8z m-626 -22 c0
-3 -8 -15 -17 -25 -15 -17 -15 -21 0 -53 16 -33 16 -35 -3 -45 -11 -6 -20 -20
-20 -30 0 -25 8 -25 40 0 14 11 28 20 32 20 12 0 77 -74 78 -87 0 -7 -8 -28
-17 -48 l-17 -35 -78 0 c-60 0 -78 -3 -78 -14 0 -17 31 -26 92 -26 46 0 47 -1
54 -34 10 -56 -11 -70 -64 -42 -45 24 -319 50 -451 43 -143 -8 -211 -17 -211
-28 0 -5 103 -8 229 -7 204 2 255 -1 240 -16 -8 -8 -198 -26 -271 -26 -40 1
-120 8 -178 16 -139 20 -152 21 -207 23 l-48 2 37 14 c20 7 71 19 114 25 43 7
100 21 127 31 31 12 73 19 119 19 140 0 301 20 324 41 11 10 26 19 33 19 8 0
10 10 6 34 -4 19 -2 43 4 54 9 17 4 29 -35 77 -26 32 -43 60 -38 65 9 9 140
37 182 39 12 0 22 -2 22 -6z m-2490 -53 c45 -16 98 -30 119 -30 48 0 54 -6 36
-41 -12 -23 -22 -28 -57 -31 l-43 -3 3 -39 c3 -34 1 -38 -15 -33 -10 4 -67 20
-128 36 -60 17 -116 33 -123 36 -21 8 2 31 39 39 25 5 29 10 24 25 -8 26 21
71 45 71 10 0 55 -13 100 -30z m1710 -50 c0 -41 -28 -70 -102 -105 -77 -37
-110 -38 -83 -1 8 11 23 32 32 46 9 14 32 43 51 65 18 22 38 46 44 53 15 19
58 -23 58 -58z m-1139 12 c35 -22 88 -51 117 -66 28 -14 52 -28 52 -31 0 -2
-5 -16 -10 -31 -11 -29 1 -29 -145 -4 -27 5 -71 9 -97 9 -57 1 -88 33 -88 91
0 32 5 41 33 58 40 26 58 22 138 -26z m1456 21 c3 -7 -28 -22 -81 -38 -87 -27
-118 -53 -50 -42 20 4 45 2 54 -3 13 -7 27 -3 54 15 l36 24 0 -29 c0 -20 -8
-34 -22 -44 -44 -28 -318 -89 -400 -90 -43 -1 -78 2 -78 5 0 4 30 14 66 23 76
19 163 61 165 79 1 6 2 21 3 32 1 13 11 21 36 27 19 4 67 19 105 33 73 26 106
28 112 8z m248 -27 c19 -14 19 -15 -10 -26 -49 -20 -59 -26 -63 -40 -5 -13 41
-11 97 6 20 6 23 4 18 -10 -4 -10 -7 -28 -7 -41 0 -22 -5 -24 -67 -29 -62 -6
-184 -27 -240 -42 -38 -10 -26 13 22 40 53 31 65 51 65 105 0 22 5 42 13 44
28 12 154 7 172 -7z m823 -81 l-1 -40 -8 45 c-4 25 -7 56 -7 70 0 23 1 22 8
-5 4 -16 8 -48 8 -70z m-2268 50 c0 -16 -35 -21 -44 -6 -8 12 4 21 26 21 10 0
18 -7 18 -15z m-582 -64 c21 -11 56 -22 77 -26 57 -10 190 -51 263 -81 46 -20
62 -31 62 -46 0 -18 -6 -19 -117 -14 -198 8 -424 24 -429 29 -3 3 -2 32 2 66
5 48 10 61 23 61 10 0 26 7 37 15 25 19 38 19 82 -4z m1142 10 c0 -5 -6 -14
-14 -20 -16 -13 -32 2 -21 19 8 12 35 13 35 1z m-1442 -50 c57 -16 105 -30
107 -32 6 -7 6 -121 -1 -177 l-6 -53 -154 3 c-111 2 -154 6 -154 15 0 6 5 15
10 18 6 3 10 16 10 27 0 20 3 21 84 14 57 -4 87 -2 92 5 11 19 -12 31 -87 45
-108 20 -119 23 -119 35 0 26 35 81 57 90 12 4 23 15 23 24 0 21 20 19 138
-14z m3216 -131 c14 -80 31 -170 37 -200 14 -65 25 -489 13 -477 -4 4 -18 137
-30 295 -13 158 -30 321 -38 362 -14 68 -22 180 -12 169 2 -2 16 -69 30 -149z
m-2584 100 c0 -5 -7 -10 -15 -10 -8 0 -15 5 -15 10 0 6 7 10 15 10 8 0 15 -4
15 -10z m50 6 c0 -3 -4 -8 -10 -11 -5 -3 -10 -1 -10 4 0 6 5 11 10 11 6 0 10
-2 10 -4z m1244 -37 c-9 -16 -73 -41 -85 -34 -15 10 -1 24 34 34 45 13 59 13
51 0z m2811 -29 c3 -5 1 -10 -4 -10 -6 0 -11 5 -11 10 0 6 2 10 4 10 3 0 8 -4
11 -10z m-2995 -10 c0 -5 -7 -10 -16 -10 -8 0 -12 5 -9 10 3 6 10 10 16 10 5
0 9 -4 9 -10z m-55 -20 c-7 -11 -68 -44 -110 -60 -24 -9 -25 -8 -25 25 0 33 2
34 43 38 85 7 98 7 92 -3z m-1318 -27 c-20 -2 -52 -2 -70 0 -17 2 0 4 38 4 39
0 53 -2 32 -4z m4273 3 c0 -3 -4 -8 -10 -11 -5 -3 -10 -1 -10 4 0 6 5 11 10
11 6 0 10 -2 10 -4z m-3900 -51 c0 -8 -46 -17 -142 -28 -275 -31 -363 -39
-403 -35 -38 3 -40 4 -39 36 3 61 -14 58 298 48 213 -7 286 -12 286 -21z
m3870 0 c0 -16 -36 -72 -65 -102 -62 -64 -53 -34 19 64 28 38 46 53 46 38z
m-2795 -59 c22 -8 67 -15 101 -16 66 0 87 -13 98 -60 12 -52 -3 -56 -108 -30
-130 33 -152 11 -26 -26 88 -26 110 -36 104 -45 -14 -23 -74 -2 -281 97 -115
56 -134 75 -90 94 29 13 152 4 202 -14z m-1055 5 c0 -5 -7 -14 -15 -21 -13
-10 -15 -9 -15 9 0 12 6 21 15 21 8 0 15 -4 15 -9z m-107 -32 c-14 -14 -131
-29 -176 -22 -49 7 -41 14 30 23 93 12 159 12 146 -1z m1550 -34 c142 -24 169
-32 282 -79 l60 -25 0 -70 c0 -39 -3 -71 -6 -71 -4 0 -32 13 -63 29 -58 31
-154 63 -323 108 l-103 27 0 53 c0 29 2 53 5 53 3 0 70 -11 148 -25z m991 -32
c5 -35 26 -259 41 -451 7 -77 -4 -142 -24 -142 -3 0 -6 57 -7 128 -1 133 -19
428 -30 475 -4 16 -2 27 4 27 6 0 13 -17 16 -37z m-2453 -4 c9 -18 7 -25 -15
-47 -22 -23 -36 -27 -98 -30 -40 -2 -89 -11 -108 -19 -50 -23 -120 -30 -120
-11 0 18 56 71 96 92 32 15 127 32 196 35 29 1 40 -4 49 -20z m749 -24 c0 -8
-4 -15 -10 -15 -5 0 -10 7 -10 15 0 8 5 15 10 15 6 0 10 -7 10 -15z m240 -10
c28 -15 41 -35 22 -35 -20 0 -72 32 -67 41 8 12 11 12 45 -6z m2663 -16 c-17
-17 -37 -1 -22 17 8 10 15 12 23 4 7 -7 7 -13 -1 -21z m-2786 -24 c15 -8 37
-15 48 -15 22 0 119 -53 130 -70 4 -6 -6 -28 -21 -48 -15 -20 -28 -38 -29 -40
-3 -4 -94 49 -100 59 -4 5 -16 9 -28 9 -55 0 -120 73 -103 116 7 19 56 13 103
-11z m-807 -8 c0 -24 -30 -43 -182 -117 -82 -39 -148 -75 -148 -78 0 -16 -69
-50 -113 -56 -26 -3 -61 -13 -78 -21 -36 -19 -69 -11 -69 15 0 22 28 40 63 40
27 0 76 34 65 45 -4 4 -33 3 -65 -3 -67 -12 -83 -4 -83 39 0 28 0 28 63 28 34
0 85 5 112 11 28 7 75 15 105 20 75 10 209 46 262 69 52 24 68 25 68 8z m1166
-76 c99 -44 206 -94 239 -112 33 -18 80 -38 105 -44 l45 -12 3 -52 c2 -31 -1
-51 -8 -51 -21 0 -137 51 -193 86 -58 36 -81 38 -61 6 17 -27 84 -69 149 -93
33 -12 68 -28 78 -35 27 -17 4 -28 -36 -15 -17 5 -52 13 -77 17 -65 10 -245
106 -340 182 -58 47 -58 47 -53 96 4 35 1 47 -22 74 -15 18 -22 32 -17 32 5 0
90 -36 188 -79z m-1630 20 c-5 -7 -44 -11 -102 -11 l-95 0 7 -47 c3 -27 11
-54 17 -61 7 -9 6 -20 -3 -36 -16 -30 2 -92 29 -101 10 -3 24 -17 31 -30 7
-14 19 -25 25 -25 17 0 130 37 155 50 12 6 29 9 37 5 25 -9 -47 -78 -132 -127
-38 -23 -97 -62 -130 -88 -59 -46 -134 -90 -155 -90 -5 0 -10 11 -10 23 0 19
20 37 100 88 98 63 115 79 85 79 -18 0 -93 -36 -115 -55 -29 -25 -110 -47
-151 -40 -21 4 -41 10 -43 14 -9 13 6 51 19 51 15 0 20 13 31 73 6 34 10 38
45 43 33 6 39 10 39 32 0 23 -2 24 -42 18 -101 -16 -136 -18 -157 -6 -29 15
-23 20 41 35 47 10 53 14 56 40 5 37 -14 47 -54 28 -40 -19 -64 -11 -64 20 0
34 16 43 81 50 68 6 139 27 139 40 0 5 -15 7 -32 4 -113 -20 -125 -20 -148 3
-26 26 -21 46 11 41 54 -9 357 2 404 14 45 12 52 11 69 -5 10 -10 15 -23 12
-29z m1855 20 c152 -39 293 -94 297 -115 3 -14 -1 -15 -25 -5 -125 48 -189 69
-216 69 -44 0 -27 -11 93 -59 57 -22 122 -53 143 -68 33 -23 37 -30 31 -52 -9
-29 -10 -69 -3 -90 2 -10 -14 -25 -45 -42 -50 -28 -75 -58 -76 -94 0 -20 -78
-95 -99 -95 -17 0 -111 100 -111 118 0 22 77 49 93 33 13 -13 66 -14 84 -3 23
14 43 81 43 140 0 65 -5 73 -62 91 -20 7 -48 21 -61 31 -13 11 -67 35 -118 54
-137 50 -130 46 -123 68 3 10 0 25 -6 33 -20 24 31 19 161 -14z m-1357 -27
c43 -17 2 -115 -63 -148 -14 -8 -55 -37 -90 -65 -43 -35 -73 -51 -92 -51 -47
0 -34 24 41 74 64 42 86 66 60 66 -16 0 -91 -40 -126 -66 -39 -30 -44 -30 -44
0 0 35 23 54 125 102 49 23 106 54 125 68 39 28 42 29 64 20z m656 -18 c0 -7
-7 -19 -15 -26 -23 -19 -19 -33 23 -77 20 -21 57 -76 80 -122 l44 -82 -31 -12
c-22 -8 -31 -18 -31 -33 0 -17 -5 -21 -20 -17 -11 3 -20 0 -20 -6 0 -21 -19
-11 -46 24 -20 27 -29 56 -41 132 -8 55 -23 113 -34 131 l-19 33 35 15 c19 8
41 23 47 34 15 23 28 26 28 6z m70 -48 c74 -87 175 -188 234 -236 100 -81 216
-193 216 -208 0 -8 -14 -21 -31 -29 -35 -19 -28 -22 -126 67 -68 63 -85 61
-34 -3 23 -29 41 -56 41 -61 0 -22 -28 2 -73 63 -26 35 -65 87 -87 114 -22 28
-55 79 -73 115 -17 36 -51 91 -74 124 -24 32 -43 62 -43 67 0 17 31 9 50 -13z
m-515 -38 c4 -13 0 -31 -10 -47 -10 -14 -21 -60 -26 -102 -12 -95 -37 -169
-61 -177 -22 -7 -87 24 -102 49 -14 22 24 97 76 149 21 20 40 49 44 65 6 27
50 83 65 83 4 0 11 -9 14 -20z m227 -60 c19 -28 38 -130 38 -206 0 -49 -1 -50
-41 -68 -39 -17 -44 -18 -76 -2 -29 14 -34 21 -29 39 4 12 10 69 13 127 6 98
8 108 37 144 30 37 31 37 36 15 3 -13 13 -35 22 -49z m-362 25 c0 -20 -25 -69
-62 -120 -15 -23 -37 -64 -48 -92 -19 -50 -19 -51 0 -68 28 -25 26 -90 -5
-228 -30 -133 -42 -164 -56 -150 -7 7 -3 36 15 92 14 45 26 91 26 102 0 36
-18 19 -36 -33 -42 -129 -80 -174 -114 -133 -10 13 -10 19 5 35 13 14 20 46
26 116 9 104 36 175 115 306 34 56 35 60 19 78 -16 18 -16 20 1 43 41 54 114
87 114 52z m790 -10 c13 -14 39 -27 59 -30 48 -8 121 -35 121 -44 0 -21 73
-81 97 -81 37 0 97 -44 139 -101 19 -27 64 -74 100 -105 35 -31 64 -62 64 -70
0 -8 -18 -15 -45 -20 -25 -3 -57 -16 -72 -27 l-26 -21 -33 38 c-18 21 -38 55
-45 75 -23 72 -58 118 -141 182 -119 91 -258 210 -258 220 0 16 16 9 40 -16z
m-315 4 c4 -5 -1 -19 -10 -29 -15 -17 -16 -27 -6 -82 6 -35 17 -125 25 -200
15 -143 21 -167 38 -150 6 6 5 46 -2 110 -14 116 -11 138 13 102 23 -36 44
-128 57 -250 6 -58 14 -114 16 -126 5 -20 -37 -84 -56 -84 -5 0 -12 21 -16 48
-7 53 -20 82 -35 82 -7 0 -8 -22 -4 -65 l7 -66 -25 12 c-49 22 -61 68 -62 234
0 110 4 158 15 182 12 27 12 49 1 149 -12 110 -12 119 5 131 22 16 31 16 39 2z
m-255 -64 c12 -32 15 -128 5 -145 -17 -27 -44 -276 -45 -402 0 -116 -2 -128
-18 -128 -36 0 -52 35 -45 100 5 50 3 60 -10 60 -18 0 -27 -21 -27 -60 0 -60
-11 -90 -35 -90 -12 0 -30 8 -39 19 -16 17 -16 24 3 112 10 52 27 124 37 162
15 55 16 71 6 87 -11 18 -10 21 11 29 30 12 43 29 50 66 13 64 46 208 51 222
8 20 44 -1 56 -32z m3140 -117 c-35 -103 -57 -139 -46 -73 4 22 18 67 31 100
13 33 27 78 32 100 l8 40 3 -37 c2 -22 -9 -74 -28 -130z m65 56 c-23 -55 -30
-34 -9 28 13 38 19 47 22 32 2 -12 -4 -39 -13 -60z m-2938 44 c-3 -8 -6 -5 -6
6 -1 11 2 17 5 13 3 -3 4 -12 1 -19z m573 -28 c0 -5 -2 -10 -4 -10 -3 0 -8 5
-11 10 -3 6 -1 10 4 10 6 0 11 -4 11 -10z m-1234 -30 c-3 -17 -23 -61 -45 -98
-21 -37 -42 -78 -46 -92 -4 -14 -28 -64 -52 -111 -34 -65 -46 -102 -50 -149
-4 -40 -11 -64 -20 -67 -8 -3 -21 -23 -30 -44 -16 -41 -23 -45 -51 -29 -9 5
-45 19 -79 31 -66 23 -72 31 -48 63 8 11 15 26 15 33 0 21 54 98 93 133 21 18
67 72 103 121 42 56 73 89 87 91 15 2 32 21 52 59 17 31 36 64 44 73 22 26 34
19 27 -14z m-206 -15 c18 -9 41 -12 62 -8 l33 6 -20 -24 c-12 -13 -41 -46 -66
-74 -24 -27 -51 -65 -58 -82 -10 -25 -21 -34 -47 -39 -30 -6 -33 -8 -27 -35 6
-32 -11 -38 -48 -19 -26 14 -24 38 4 51 13 6 36 32 51 57 15 26 49 63 74 82
37 27 43 35 29 38 -25 5 -90 -39 -124 -85 -32 -44 -44 -54 -55 -47 -16 10 -7
43 20 74 23 28 131 120 140 120 2 0 16 -7 32 -15z m1177 -135 c23 -40 39 -78
36 -83 -8 -13 -48 36 -68 83 -9 19 -20 43 -25 52 -13 24 -12 30 3 26 6 -2 31
-37 54 -78z m2557 -29 c-20 -50 -40 -91 -44 -91 -5 0 -6 10 -3 23 8 32 74 170
79 164 3 -2 -12 -46 -32 -96z m-1000 -78 c-6 -106 -20 -190 -30 -180 -3 3 -1
62 5 132 6 69 11 133 11 141 0 7 5 14 10 14 7 0 9 -36 4 -107z m-1703 -53 c11
-62 23 -118 27 -124 3 -6 9 -56 12 -110 6 -91 5 -101 -15 -122 -11 -12 -31
-24 -44 -26 -25 -3 -28 -8 -57 -75 -16 -41 -19 -43 -60 -43 -33 0 -46 5 -54
20 -12 22 -36 27 -43 8 -3 -10 -8 -10 -21 1 -26 22 -34 42 -46 117 -6 38 -13
77 -16 87 -5 15 -2 18 14 13 14 -5 25 0 35 14 15 22 15 22 22 1 9 -30 63 -71
93 -71 15 0 50 12 79 27 45 22 54 31 59 62 6 31 -6 198 -23 316 -4 30 -3 37 6
29 7 -6 21 -62 32 -124z m2615 15 c-14 -30 -29 -55 -35 -55 -5 0 5 32 22 71
18 40 33 64 35 55 2 -9 -8 -41 -22 -71z m-3272 14 c3 -18 1 -38 -5 -45 -6 -7
-15 -30 -20 -51 -16 -64 -49 -285 -49 -333 0 -66 -11 -78 -48 -51 -36 25 -69
27 -100 5 -33 -23 -36 -14 -14 42 11 27 23 68 27 91 7 47 18 59 55 65 31 4 45
32 83 168 16 58 31 113 34 123 9 28 30 20 37 -14z m726 -21 c6 -29 25 -98 40
-153 16 -55 35 -135 42 -177 l14 -78 -32 0 c-38 0 -39 2 -54 150 -5 52 -21
140 -34 195 -13 55 -22 103 -20 107 14 23 33 3 44 -44z m1575 -65 c-4 -21 -12
-33 -22 -33 -11 0 -14 6 -9 23 3 12 11 47 18 77 l13 55 3 -45 c2 -24 1 -59 -3
-77z m-1344 -8 c16 -27 39 -65 51 -83 27 -43 26 -81 -2 -104 -32 -26 -37 -23
-45 25 -9 48 -45 135 -75 177 -11 15 -20 38 -20 50 0 21 0 21 30 3 17 -10 44
-40 61 -68z m214 36 c51 -47 50 -58 -7 -67 -32 -6 -40 -2 -78 37 l-41 43 33
17 c18 10 36 17 39 16 4 -1 28 -22 54 -46z m-1767 -21 l22 -30 -26 -40 c-20
-30 -37 -43 -67 -51 -36 -9 -43 -8 -54 7 -20 27 -16 54 8 54 11 0 17 5 14 10
-9 15 4 50 19 50 8 0 19 7 26 15 18 22 34 18 58 -15z m316 -27 c-5 -14 -15
-28 -23 -31 -10 -3 -11 3 -6 29 10 45 15 53 28 40 7 -7 8 -20 1 -38z m1341
-12 c55 -56 69 -77 60 -91 -15 -24 -43 -5 -85 57 -54 79 -56 83 -37 83 7 0 36
-22 62 -49z m256 10 c-12 -22 -36 -28 -46 -11 -3 5 4 19 16 31 26 26 47 12 30
-20z m1955 2 c-10 -10 -19 5 -10 18 6 11 8 11 12 0 2 -7 1 -15 -2 -18z m-80
-75 c-89 -196 -188 -360 -270 -448 -23 -25 -57 -71 -75 -102 -36 -63 -51 -79
-51 -51 0 10 25 52 55 93 96 132 181 262 230 355 79 148 125 225 135 225 5 0
-6 -33 -24 -72z m839 7 c-22 -19 -49 -38 -60 -43 -11 -5 -49 -23 -85 -40 -102
-50 -132 -40 -61 20 43 35 180 96 221 97 24 0 23 -2 -15 -34z m-1888 -53 c-19
-21 -60 -88 -91 -149 -31 -62 -62 -113 -70 -113 -7 0 -40 -42 -71 -92 -69
-110 -64 -103 -70 -96 -16 16 68 166 146 259 40 48 50 72 26 63 -17 -6 -114
-125 -146 -176 -33 -55 -53 -50 -31 8 13 34 130 165 175 195 19 13 35 30 35
37 0 31 -47 -2 -135 -96 -66 -71 -94 -88 -61 -38 9 14 45 59 81 99 53 62 74
78 122 96 33 12 72 31 88 41 43 28 44 5 2 -38z m120 -64 c20 -40 44 -98 54
-128 9 -31 23 -55 30 -55 24 0 13 49 -30 140 -23 47 -41 90 -41 95 0 18 19 10
31 -12 7 -12 36 -51 66 -87 30 -36 56 -76 59 -88 3 -12 -4 -52 -16 -88 -25
-75 -77 -144 -205 -270 -45 -44 -98 -101 -119 -127 -21 -27 -42 -48 -46 -48
-4 0 -5 43 -2 95 3 66 1 95 -6 95 -14 0 -19 -23 -26 -117 -7 -83 -15 -109 -47
-143 -21 -21 -24 -22 -27 -7 -2 9 4 41 12 71 9 30 16 68 16 84 0 28 15 101 54
267 8 33 17 72 21 88 8 37 25 34 25 -5 0 -61 13 -138 21 -132 14 8 10 115 -6
179 -16 58 -14 85 4 85 13 0 29 -54 36 -120 13 -125 16 -140 27 -134 14 9 4
128 -18 224 -16 72 -16 119 1 123 18 4 56 -222 50 -300 -4 -60 -2 -73 10 -73
22 0 20 131 -5 265 -22 119 -25 165 -11 165 9 0 30 -86 48 -194 9 -55 33 -76
33 -29 0 15 -11 76 -24 135 -20 94 -22 118 -9 118 1 0 19 -33 40 -72z m953 62
c0 -5 -4 -10 -10 -10 -5 0 -10 5 -10 10 0 6 5 10 10 10 6 0 10 -4 10 -10z
m-810 -52 c31 -43 37 -58 20 -58 -14 0 -71 81 -64 91 8 14 12 11 44 -33z
m1830 -11 c0 -24 -2 -24 -126 -31 -70 -3 -129 -4 -131 -2 -6 5 51 36 87 47 14
4 58 8 98 8 69 1 72 0 72 -22z m-4518 -5 c28 5 52 8 54 6 7 -8 -37 -136 -49
-140 -19 -7 -77 11 -77 24 0 6 -7 19 -16 29 -13 15 -14 23 -4 53 9 28 15 34
27 28 8 -5 37 -5 65 0z m2203 -12 c-3 -5 -10 -10 -16 -10 -5 0 -9 5 -9 10 0 6
7 10 16 10 8 0 12 -4 9 -10z m1255 0 c0 -5 -5 -10 -11 -10 -5 0 -7 5 -4 10 3
6 8 10 11 10 2 0 4 -4 4 -10z m478 -215 c4 -88 3 -94 -29 -158 -18 -37 -35
-64 -38 -61 -3 3 -6 31 -6 62 0 44 -3 57 -15 57 -12 0 -16 -18 -18 -87 -1 -49
-7 -88 -12 -88 -6 0 -10 9 -10 19 0 11 -5 43 -12 71 -13 56 -69 130 -119 155
-33 18 -55 53 -42 66 15 15 64 -8 96 -43 20 -22 31 -28 39 -20 8 8 2 22 -20
50 -17 22 -29 42 -25 46 14 14 34 4 69 -34 48 -52 70 -39 31 18 -34 48 -34 54
1 50 22 -2 30 -11 42 -45 8 -24 18 -43 22 -43 4 0 8 22 8 48 0 27 3 52 7 56
14 14 26 -31 31 -119z m-598 -13 c-62 -108 -171 -243 -185 -230 -4 4 23 49 62
100 38 51 80 111 93 133 32 53 82 116 88 110 3 -2 -23 -53 -58 -113z m910 71
c78 -16 234 -75 260 -98 9 -8 24 -13 35 -13 22 2 115 -49 115 -62 0 -5 -13
-11 -30 -14 -100 -20 -93 -16 -75 -36 21 -24 12 -53 -21 -68 -20 -10 -23 -15
-15 -30 12 -22 2 -104 -13 -114 -20 -14 -77 -8 -115 12 -36 18 -51 18 -51 -2
0 -4 25 -22 55 -39 30 -17 55 -32 55 -34 0 -2 -10 -20 -21 -40 -20 -34 -22
-35 -40 -19 -10 9 -24 32 -31 50 -8 22 -19 34 -30 34 -21 0 -23 -13 -6 -40 19
-30 6 -31 -47 -5 -28 13 -58 25 -68 25 -32 0 -13 -24 39 -49 l49 -24 -33 -9
c-31 -8 -32 -10 -26 -45 l7 -36 -44 7 c-24 4 -54 14 -67 22 -28 18 -112 131
-112 150 0 7 -16 47 -35 89 -36 76 -53 135 -41 135 19 0 94 -53 113 -79 12
-16 47 -43 78 -61 31 -18 67 -44 80 -58 21 -22 28 -25 51 -17 35 13 42 35 15
42 -16 4 -21 12 -19 31 4 31 -21 42 -29 13 -5 -20 -6 -20 -55 8 -64 37 -96 66
-108 96 -6 15 -17 25 -30 25 -11 0 -20 4 -20 9 0 5 9 7 20 4 30 -8 24 9 -21
61 -40 45 -46 76 -16 76 21 0 117 -34 165 -59 48 -25 52 -25 52 -8 0 19 -71
56 -165 88 -73 24 -80 29 -88 59 -10 41 -2 49 21 20 14 -17 37 -25 106 -36 49
-8 118 -27 155 -43 63 -28 81 -31 81 -11 0 18 -95 57 -180 74 -112 23 -120 26
-120 38 0 13 110 3 220 -19z m176 16 c77 -10 134 -31 134 -48 0 -5 -7 -14 -15
-21 -13 -10 -31 -6 -103 23 -48 19 -103 40 -122 45 l-35 10 32 1 c17 1 67 -4
109 -10z m-2160 -136 c-35 -180 -48 -225 -96 -333 -27 -62 -50 -117 -50 -124
-1 -12 -35 -56 -44 -56 -3 0 2 16 10 36 12 29 13 39 3 44 -9 6 -6 24 13 71 14
35 29 93 32 129 4 36 11 74 16 85 5 11 16 37 24 57 20 51 97 181 103 175 2 -3
-2 -41 -11 -84z m704 20 c56 -124 91 -305 70 -368 -6 -19 -15 -35 -19 -35 -5
0 -11 37 -15 83 -9 103 -14 124 -33 132 -24 9 -27 0 -15 -47 16 -62 23 -140
13 -134 -5 3 -11 24 -15 46 -13 82 -24 37 -19 -79 7 -139 0 -151 -54 -97 -39
39 -38 57 2 36 14 -7 27 -11 30 -8 6 6 -21 198 -29 206 -15 14 -17 -13 -7 -74
11 -60 9 -86 -4 -73 -2 3 -12 34 -21 70 -13 48 -15 87 -10 158 3 52 8 96 10
98 2 2 13 -1 25 -8 29 -19 35 -6 21 50 -15 64 -8 86 14 44 9 -18 21 -33 28
-33 10 0 8 22 -8 78 -13 44 6 21 36 -45z m586 42 c-11 -8 -27 -15 -35 -15 -10
1 -7 6 9 15 33 19 50 18 26 0z m43 -39 c-2 -1 -33 -17 -67 -35 -63 -32 -93
-35 -56 -5 34 27 119 64 123 53 1 -6 1 -11 0 -13z m-117 -8 c-6 -6 -15 -8 -19
-4 -4 4 -1 11 7 16 19 12 27 3 12 -12z m-42 -26 c0 -8 -95 -88 -173 -145 -58
-44 -65 -27 -10 23 53 48 163 130 176 130 4 0 7 -4 7 -8z m-41 -91 c-18 -16
-36 -27 -39 -25 -3 3 10 19 28 36 19 16 36 27 39 24 4 -3 -9 -19 -28 -35z
m-2721 -146 c2 -38 -2 -73 -8 -79 -12 -12 -11 -12 -15 87 -1 45 2 66 9 64 6
-2 12 -34 14 -72z m3244 5 c9 -83 9 -218 -1 -200 -10 18 -41 195 -41 234 0 21
4 27 18 24 13 -2 19 -17 24 -58z m-707 20 c-3 -5 -12 -10 -19 -10 -8 0 -19 -7
-26 -15 -7 -8 -16 -15 -21 -15 -15 0 -10 22 9 36 20 16 66 19 57 4z m-2339
-95 c26 -11 40 -26 55 -60 11 -25 26 -45 34 -45 18 0 18 4 6 48 -9 28 -8 33 6
30 27 -5 55 -53 61 -104 5 -48 4 -49 -15 -31 -29 25 -36 21 -29 -18 8 -39 -2
-45 -29 -15 -10 11 -43 29 -74 41 -66 25 -166 23 -219 -5 -17 -9 -32 -12 -32
-7 0 14 58 60 111 87 52 26 89 30 120 14 14 -8 19 -7 19 3 0 40 -70 49 -143
18 -43 -18 -57 -18 -57 0 0 14 59 38 148 58 1 1 18 -6 38 -14z m1324 -84 c-25
-88 -45 -115 -118 -158 -39 -24 -75 -43 -79 -43 -4 0 -42 -35 -85 -77 -43 -42
-80 -74 -84 -70 -9 9 11 38 92 132 38 44 80 97 94 118 37 55 55 46 20 -10 -17
-26 -30 -51 -30 -55 0 -14 85 48 114 83 15 17 36 49 47 70 23 46 41 52 29 10z
m-1920 -6 c46 -29 50 -30 50 -10 0 8 5 15 10 15 16 0 92 -49 127 -83 30 -28
31 -31 15 -43 -15 -12 -15 -15 -2 -24 22 -14 5 -12 -37 5 -78 33 -102 8 -25
-27 l47 -22 -32 -4 c-46 -5 -119 37 -183 105 l-54 58 32 3 c41 4 41 14 0 35
-29 14 -30 16 -10 16 12 1 40 -10 62 -24z m2735 -55 c-16 -31 -35 -40 -35 -16
0 28 12 46 31 46 18 0 19 -2 4 -30z m-540 -42 c-38 -186 -112 -498 -142 -598
-38 -125 -38 -125 -70 -128 -35 -3 -36 -1 -27 36 7 25 24 30 24 6 0 -8 4 -13
8 -10 8 5 17 38 58 226 16 70 49 196 64 245 5 17 18 71 30 120 11 50 22 100
25 113 3 12 12 22 21 22 12 0 14 -7 9 -32z m-50 5 c-4 -10 -18 -60 -31 -112
-12 -52 -28 -99 -34 -105 -13 -12 -8 14 15 94 7 25 18 66 25 93 7 26 17 47 22
47 6 0 7 -8 3 -17z m-1695 -51 c0 -89 -32 -427 -41 -437 -6 -5 -7 19 -4 65 21
328 29 428 37 424 4 -3 8 -26 8 -52z m319 -9 c0 -35 -1 -36 -10 -14 -5 14 -7
31 -5 38 10 24 16 13 15 -24z m-373 -25 c-3 -29 -6 -68 -6 -85 0 -22 -5 -33
-14 -33 -30 0 -38 88 -12 138 26 50 40 41 32 -20z m2185 -58 c-23 -39 -81
-123 -129 -187 -80 -108 -134 -188 -191 -285 -20 -33 -55 -57 -67 -45 -5 4 46
78 112 160 47 60 233 336 257 384 22 41 50 69 55 54 2 -6 -15 -43 -37 -81z
m-35 33 c-18 -36 -46 -62 -46 -43 0 16 50 83 57 77 2 -3 -2 -18 -11 -34z
m-2321 -3 c3 -5 -1 -10 -9 -10 -9 0 -16 5 -16 10 0 6 4 10 9 10 6 0 13 -4 16
-10z m83 -26 c29 -20 29 -37 0 -28 -31 9 -49 24 -42 35 7 13 16 11 42 -7z
m-78 -24 c0 -5 -15 -10 -32 -11 -49 0 -122 -31 -126 -53 -3 -16 0 -18 19 -12
61 19 97 26 132 26 54 0 43 -24 -14 -30 -24 -3 -42 -9 -39 -15 3 -5 14 -8 25
-6 32 5 5 -14 -47 -33 -73 -27 -148 -124 -148 -193 0 -15 -5 -35 -10 -43 -7
-11 -10 -7 -10 17 0 27 -3 30 -21 26 -21 -6 -22 -4 -15 46 5 41 4 52 -6 49 -7
-3 -17 -19 -22 -36 -12 -44 -28 -40 -21 6 19 110 46 154 130 212 65 45 205 79
205 50z m80 -50 c0 -5 -7 -10 -16 -10 -8 0 -12 5 -9 10 3 6 10 10 16 10 5 0 9
-4 9 -10z m2106 -93 c-67 -97 -95 -131 -101 -125 -8 7 27 64 89 143 32 42 61
74 64 71 3 -4 -20 -43 -52 -89z m-2081 43 c-3 -5 -23 -10 -43 -10 -28 0 -33 3
-22 10 20 13 73 13 65 0z m24 -89 c21 -13 3 -368 -19 -381 -13 -8 -15 16 -18
178 -3 218 -1 227 37 203z m1951 -105 c0 -3 -4 -8 -10 -11 -5 -3 -10 -1 -10 4
0 6 5 11 10 11 6 0 10 -2 10 -4z m-1315 -26 c44 -6 100 -16 125 -24 25 -8 62
-17 82 -21 36 -6 136 -46 208 -84 60 -32 50 -41 -50 -41 -109 0 -279 -26 -300
-46 -12 -12 -12 -14 5 -14 11 0 54 6 95 14 127 24 210 28 279 13 l64 -13 48
-91 c26 -49 67 -146 90 -214 50 -148 60 -171 95 -198 15 -12 25 -22 23 -24
-75 -43 -159 -78 -176 -73 -23 7 -73 74 -73 97 0 43 -171 279 -278 382 -73 70
-78 73 -101 58 -10 -7 -28 -2 -58 15 -23 14 -47 23 -53 19 -14 -9 4 -32 42
-51 15 -8 28 -19 28 -24 0 -18 -31 -10 -53 13 -35 36 -94 77 -111 77 -29 0
-17 -16 37 -51 38 -25 47 -35 34 -37 -10 -2 -42 11 -70 30 -87 56 -104 63
-122 48 -8 -7 -25 -10 -40 -6 -14 4 -34 1 -45 -6 -14 -9 -23 -9 -30 -2 -8 8 9
21 62 47 40 20 84 43 98 51 14 9 70 36 125 62 55 25 94 48 86 51 -14 6 -134
-38 -191 -70 -19 -11 -74 -39 -121 -63 -111 -56 -126 -84 -61 -110 97 -40 233
-146 263 -206 21 -41 39 -42 39 -2 0 16 -17 41 -52 75 -50 48 -51 49 -18 33
47 -23 187 -160 194 -190 4 -15 14 -24 26 -24 27 0 25 9 -10 62 -34 51 -105
115 -192 173 -94 62 -64 67 37 6 66 -39 210 -192 225 -237 33 -103 108 -214
144 -214 22 0 20 10 -8 39 -22 24 -68 109 -112 206 -9 22 -55 77 -102 123 -47
45 -82 82 -78 82 21 0 88 -44 103 -68 9 -15 40 -52 68 -82 28 -30 62 -77 74
-105 31 -67 103 -174 117 -175 6 0 23 -9 38 -21 14 -11 33 -19 42 -17 15 3 13
7 -8 33 -13 17 -32 52 -42 78 -23 60 -117 204 -184 281 -29 33 -52 63 -52 68
0 54 249 -264 271 -346 6 -22 27 -62 46 -88 l35 -48 -99 1 c-156 1 -180 7
-293 84 -91 61 -99 69 -83 81 17 12 16 16 -11 69 -29 55 -49 75 -64 60 -4 -3
6 -29 21 -57 16 -28 26 -52 23 -55 -6 -7 -113 85 -156 134 -23 26 -30 42 -26
58 3 13 3 30 0 39 -6 15 -79 63 -221 145 -40 23 -73 46 -73 51 0 6 -11 10 -25
10 -14 0 -25 -4 -25 -10 0 -10 27 -29 159 -106 46 -27 100 -63 120 -81 30 -27
33 -34 21 -42 -10 -7 -21 -6 -35 4 -11 8 -43 30 -71 49 -28 19 -57 42 -65 52
-11 14 -168 97 -221 117 -13 5 -2 18 82 104 44 44 153 115 204 132 53 18 134
30 171 25 17 -2 66 -8 110 -14z m-598 -172 c-2 -13 -4 -5 -4 17 -1 22 1 32 4
23 2 -10 2 -28 0 -40z m2228 -21 c67 -23 181 -80 235 -117 14 -9 40 -22 58
-28 81 -27 238 -165 299 -262 32 -50 93 -120 185 -210 76 -74 138 -140 138
-146 0 -7 18 -34 40 -60 22 -27 40 -55 40 -63 0 -8 -70 58 -155 145 -85 87
-154 153 -155 146 0 -7 72 -88 159 -180 87 -92 183 -199 213 -237 52 -67 84
-132 73 -143 -7 -7 -20 7 -64 66 -88 122 -345 401 -357 389 -4 -4 27 -43 69
-86 70 -71 85 -91 73 -91 -3 0 -26 18 -51 40 -42 36 -65 49 -65 35 0 -3 15
-27 33 -53 17 -27 67 -101 109 -165 42 -64 96 -142 118 -173 48 -65 47 -80 -2
-31 -36 35 -264 372 -285 420 -9 20 -20 27 -40 27 l-26 0 19 -22 c11 -13 44
-57 72 -98 29 -41 81 -115 116 -165 35 -49 62 -92 59 -95 -13 -14 -74 38 -99
84 -60 111 -124 193 -124 157 0 -5 21 -43 47 -85 25 -42 44 -79 40 -82 -12
-12 -61 22 -68 48 -9 36 -69 118 -86 118 -21 0 -15 -22 17 -60 45 -52 40 -61
-22 -43 -112 32 -143 47 -146 73 -7 49 -66 112 -210 226 -128 102 -441 399
-431 409 2 2 17 1 33 -2 30 -6 400 -353 568 -532 46 -50 87 -91 90 -91 13 0
19 60 8 80 -6 12 -81 94 -167 183 -85 89 -165 175 -176 192 l-22 30 49 -29
c27 -16 103 -85 169 -152 105 -109 147 -142 147 -117 0 4 -42 47 -92 96 -67
63 -86 86 -68 82 14 -4 38 -16 54 -27 l29 -21 17 23 c16 22 18 22 49 5 18 -9
40 -14 49 -10 15 6 14 9 -7 26 -13 10 -31 19 -42 19 -10 0 -58 14 -108 30 -98
33 -255 110 -223 110 31 0 210 -49 244 -66 30 -16 58 -13 58 5 0 14 -111 47
-243 72 -131 25 -211 48 -287 83 -42 19 -49 25 -30 25 50 1 407 -86 451 -109
11 -7 20 -7 24 0 9 14 -1 27 -27 33 -13 3 -57 14 -98 25 -93 25 -242 55 -428
86 -131 22 -163 30 -151 39 8 7 346 -41 415 -58 68 -17 112 -16 100 4 -13 20
-207 54 -471 80 -156 16 -192 23 -202 38 -28 38 -13 47 112 66 126 19 286 18
338 -2 22 -9 29 -8 34 5 3 8 2 18 -2 22 -10 10 -313 9 -414 -2 -69 -7 -83 -6
-79 5 7 21 97 66 106 53 8 -13 312 -26 312 -13 0 4 -48 10 -107 14 -108 7
-155 18 -123 29 8 2 22 7 30 10 33 13 187 -4 255 -27z m-495 -36 c0 -12 -20
-25 -27 -18 -7 7 6 27 18 27 5 0 9 -4 9 -9z m-1338 -62 c16 -12 27 -23 25 -25
-8 -8 -56 18 -61 32 -7 19 1 17 36 -7z m-467 -14 c0 -10 -6 -20 -12 -22 -8 -3
-13 5 -13 22 0 17 5 25 13 23 6 -3 12 -13 12 -23z m530 14 c12 -19 -5 -23 -22
-6 -16 16 -16 17 -1 17 9 0 20 -5 23 -11z m-328 -32 c43 -16 44 -33 2 -29 -53
5 -109 22 -109 32 0 13 68 11 107 -3z m1475 -169 c76 -113 217 -242 359 -330
49 -29 62 -48 35 -48 -34 0 -174 34 -206 50 -19 9 -73 30 -120 45 -53 18 -95
39 -112 56 -30 30 -32 37 -18 59 8 12 13 11 33 -8 27 -25 37 -28 37 -9 0 7
-16 29 -36 48 l-36 34 -15 -22 c-9 -13 -20 -23 -25 -23 -19 0 -38 71 -38 140
0 84 16 126 61 164 l34 29 6 -66 c4 -54 12 -76 41 -119z m-822 151 c0 -6 -4
-7 -10 -4 -5 3 -10 11 -10 16 0 6 5 7 10 4 6 -3 10 -11 10 -16z m886 -16 c9
-10 28 -42 41 -71 13 -29 41 -77 62 -105 43 -59 176 -175 262 -229 90 -57 180
-126 171 -132 -4 -2 -36 1 -71 9 -44 9 -72 22 -94 42 -18 17 -77 63 -131 103
-186 136 -306 278 -306 363 0 33 3 37 24 37 14 0 32 -8 42 -17z m-1453 -49
c44 -13 244 -155 337 -240 113 -102 192 -160 279 -204 60 -31 69 -33 201 -36
152 -5 143 -7 282 76 40 23 40 24 52 -33 6 -27 -44 -231 -101 -410 -20 -65
-29 -80 -51 -88 -15 -6 -37 -20 -50 -32 l-23 -21 -97 32 c-114 38 -125 39
-177 11 -63 -33 -85 -59 -126 -144 -56 -119 -94 -311 -85 -432 l6 -91 -52 -39
c-29 -21 -62 -49 -73 -62 l-21 -23 -18 93 c-11 52 -23 103 -29 113 -13 27 -35
121 -53 235 -21 136 -112 318 -260 524 -37 51 -44 70 -64 174 -30 164 -77 603
-66 621 5 8 139 -9 189 -24z m-338 -61 c3 -49 13 -146 21 -216 9 -71 14 -131
11 -133 -2 -2 -17 28 -32 68 -24 63 -28 92 -33 205 -2 73 -2 139 2 148 13 36
25 9 31 -72z m102 55 c-3 -8 -6 -5 -6 6 -1 11 2 17 5 13 3 -3 4 -12 1 -19z
m1823 -14 c57 -20 67 -29 75 -64 7 -31 162 -191 245 -252 25 -19 90 -68 145
-109 55 -41 117 -85 138 -98 55 -34 39 -36 -34 -6 -64 27 -272 177 -457 331
-102 85 -202 215 -164 214 4 0 27 -7 52 -16z m-1852 -111 c6 -54 16 -145 22
-203 6 -58 18 -134 26 -169 16 -72 13 -85 -11 -48 -15 23 -29 82 -40 167 -24
187 -37 331 -32 344 13 34 25 4 35 -91z m901 57 c12 -17 18 -30 13 -30 -10 0
-62 53 -62 63 0 14 28 -5 49 -33z m1146 -28 c22 -20 107 -103 190 -183 82 -80
202 -184 265 -230 63 -47 134 -107 158 -134 37 -42 50 -65 39 -65 -2 0 -46 36
-98 81 -52 44 -114 95 -139 112 -25 17 -79 58 -120 91 -41 33 -99 79 -130 102
-71 52 -260 242 -260 261 0 25 50 6 95 -35z m-2202 -44 c6 -88 57 -252 98
-316 16 -25 29 -49 29 -53 0 -11 62 -110 95 -152 17 -22 60 -76 97 -122 89
-110 158 -223 213 -345 44 -97 53 -130 38 -130 -8 0 -69 88 -90 130 -7 14 -43
61 -78 105 -36 44 -93 113 -126 154 -34 41 -74 99 -91 128 -28 49 -58 70 -58
41 0 -7 29 -52 65 -100 36 -49 62 -88 59 -88 -27 0 -138 124 -166 185 -14 31
-28 32 -28 2 0 -43 99 -162 182 -219 82 -55 111 -89 176 -203 41 -70 63 -100
75 -99 11 1 24 -11 33 -30 9 -17 25 -41 36 -53 18 -19 66 -140 68 -167 1 -23
-46 36 -112 143 -39 64 -82 125 -94 136 -12 11 -50 62 -84 113 -55 83 -74 102
-174 176 -98 73 -115 90 -141 142 -17 32 -31 61 -33 64 -2 2 -7 -2 -12 -10 -7
-12 -12 -12 -28 3 -22 20 -42 22 -42 4 0 -16 45 -131 65 -169 8 -14 15 -44 15
-66 0 -35 29 -256 45 -347 6 -28 5 -29 -9 -11 -21 26 -40 96 -71 256 -29 150
-62 280 -76 294 -20 22 -18 -27 5 -120 14 -54 39 -163 56 -242 28 -126 39
-159 102 -282 66 -133 98 -170 98 -117 0 12 -16 60 -35 106 -28 66 -40 117
-60 253 -23 163 -23 217 2 186 6 -7 16 -38 23 -68 7 -30 17 -63 22 -73 5 -11
16 -66 24 -124 18 -139 37 -200 79 -259 19 -27 38 -56 42 -64 14 -31 58 -86
97 -122 36 -33 38 -37 19 -38 -41 0 -93 33 -117 74 -29 50 -66 86 -66 65 0 -8
7 -25 16 -37 28 -41 3 -38 -31 3 -37 44 -59 40 -33 -6 16 -28 16 -29 -2 -29
-11 0 -20 1 -20 3 0 1 -9 27 -19 56 -22 69 -47 83 -37 22 3 -24 2 -41 -3 -41
-15 0 -40 41 -52 83 -5 20 -14 37 -19 37 -13 0 -13 -46 0 -71 7 -12 7 -19 1
-19 -17 0 -72 89 -78 125 -6 39 -22 46 -30 15 -5 -19 -23 -29 -23 -12 0 4 -18
27 -40 50 -22 22 -40 48 -40 55 0 8 -15 48 -34 90 -19 41 -39 101 -45 133 -13
69 -15 192 -3 179 13 -15 41 -132 51 -211 5 -40 14 -80 21 -90 9 -16 10 -12 5
21 -6 36 -5 38 8 20 7 -11 22 -48 32 -83 11 -39 26 -67 38 -74 29 -15 41 4 19
33 -21 27 -82 176 -106 258 -38 129 -56 300 -44 416 2 21 -1 30 -12 30 -12 0
-16 -19 -18 -102 -3 -98 -13 -129 -26 -80 -21 80 29 365 66 375 10 2 18 12 18
21 0 9 9 31 21 50 11 19 18 42 16 53 -3 10 -1 18 5 18 5 0 18 10 29 23 24 29
24 11 0 -44 -25 -56 -29 -91 -13 -96 8 -3 12 7 12 31 0 32 14 55 27 43 3 -3
10 -48 16 -99 9 -71 16 -93 27 -93 9 0 14 8 12 20 -16 123 -9 333 12 327 4 -1
9 -37 10 -79 1 -51 5 -78 14 -80 9 -4 12 15 12 74 0 77 0 78 16 48 35 -69 45
-48 19 38 -13 43 -13 52 1 78 8 16 18 27 23 25 4 -3 11 -38 14 -78z m1134 -30
c35 -50 76 -128 70 -134 -6 -7 -20 13 -70 99 -50 83 -49 104 0 35z m1376 -28
c26 -16 47 -34 47 -40 0 -6 67 -79 148 -163 146 -150 244 -264 192 -222 -41
32 -450 439 -450 447 0 14 15 9 63 -22z m597 -16 c17 -20 29 -39 26 -42 -7 -6
-54 36 -67 61 -17 30 7 19 41 -19z m-2891 -71 c0 -25 -1 -26 -9 -8 -12 27 -12
35 0 35 6 0 10 -12 9 -27z m-487 -55 c-7 -7 -12 -8 -12 -2 0 14 12 26 19 19 2
-3 -1 -11 -7 -17z m507 -95 c1 -17 -3 -35 -9 -38 -6 -4 -10 16 -9 52 0 42 3
52 9 38 5 -11 9 -34 9 -52z m1352 -194 c-17 -56 -29 -104 -26 -107 6 -6 20 30
47 123 12 44 24 73 26 64 2 -9 -26 -133 -62 -275 -54 -213 -85 -358 -86 -406
0 -5 -5 -8 -11 -8 -20 0 -2 107 54 324 33 127 38 160 21 144 -3 -4 -12 -36
-21 -72 -8 -36 -18 -66 -22 -66 -18 0 61 340 91 394 25 44 19 -13 -11 -115z
m-1334 19 c-3 -7 -5 -2 -5 12 0 14 2 19 5 13 2 -7 2 -19 0 -25z m3099 -172
c22 -24 55 -63 74 -87 19 -23 51 -59 71 -78 40 -39 100 -115 119 -151 21 -40
2 -33 -24 9 -15 23 -31 41 -36 41 -15 0 -13 -8 21 -66 41 -72 18 -69 -28 4
-20 31 -77 116 -127 187 -116 165 -128 185 -118 185 5 0 27 -20 48 -44z
m-3204 -155 c90 -69 124 -104 187 -200 31 -46 68 -102 84 -125 15 -22 36 -48
45 -56 20 -17 147 -201 174 -253 37 -70 32 -156 -5 -94 -212 344 -207 339
-380 507 -124 121 -154 161 -182 249 -10 31 5 26 77 -28z m1003 -32 c4 -6 -10
-25 -32 -44 -21 -18 -51 -56 -66 -84 -42 -77 -73 -208 -46 -199 9 3 52 111 66
167 3 14 30 49 58 78 46 48 57 54 86 51 44 -4 48 -28 14 -79 -16 -25 -35 -80
-50 -149 -23 -98 -24 -123 -18 -241 l6 -131 -23 7 c-13 4 -75 10 -139 14
l-116 6 2 109 c3 114 31 261 58 299 8 12 15 30 15 40 0 22 29 81 37 74 3 -3
-7 -42 -21 -86 -34 -105 -37 -271 -5 -271 12 0 11 97 -1 120 -11 20 22 138 66
237 28 63 92 111 109 82z m457 -56 c14 -16 28 -36 31 -46 12 -32 -13 -170 -49
-272 -20 -55 -50 -140 -67 -190 -19 -54 -33 -82 -35 -71 -7 32 28 396 44 459
8 32 14 67 14 77 0 26 18 70 28 70 4 0 20 -12 34 -27z m-245 -90 c-20 -62 -37
-156 -37 -207 0 -61 17 -32 29 49 15 95 43 205 53 205 12 0 10 -34 -6 -82 -8
-24 -16 -68 -19 -98 -3 -30 -13 -109 -22 -175 -9 -66 -20 -148 -23 -183 l-7
-62 -50 26 c-27 14 -55 31 -62 38 -7 6 -15 60 -19 132 -5 97 -3 136 10 198 10
42 22 76 27 76 9 0 4 -33 -13 -78 -8 -24 -4 -42 11 -42 4 0 20 42 35 93 16 50
36 101 46 112 10 11 23 31 30 44 8 16 15 20 22 13 7 -7 5 -26 -5 -59z m-1071
-135 c66 -68 134 -148 152 -178 17 -30 50 -81 74 -112 53 -71 135 -214 148
-257 17 -60 -12 -28 -69 77 -72 130 -189 282 -313 403 -54 53 -104 112 -113
132 -36 87 -18 78 121 -65z m3368 -20 c-4 -6 -15 -2 -26 10 -12 12 -17 25 -13
33 6 9 13 6 27 -10 10 -13 15 -28 12 -33z m-2189 -105 c-4 -49 -12 -92 -18
-98 -7 -7 -8 -4 -3 8 3 10 6 54 6 98 0 50 4 79 11 79 7 0 9 -27 4 -87z m-1198
25 c30 -29 76 -80 101 -113 25 -33 69 -87 98 -120 29 -33 70 -96 92 -140 22
-44 52 -102 66 -129 23 -44 34 -86 21 -86 -9 0 -153 147 -225 232 -81 95 -118
148 -101 148 19 0 120 -114 157 -178 20 -34 41 -65 46 -68 21 -13 17 8 -13 72
-27 56 -54 91 -149 184 -94 93 -120 125 -135 165 -10 28 -22 54 -26 60 -5 5
-9 13 -9 17 0 19 25 5 77 -44z m1137 -115 c-6 -164 -13 -233 -25 -233 -17 0
-4 288 16 348 11 31 13 3 9 -115z m56 -73 c0 -10 -4 -22 -10 -25 -6 -4 -10 7
-10 25 0 18 4 29 10 25 6 -3 10 -15 10 -25z m-11 -125 c0 -22 -4 -49 -9 -60
-6 -13 -9 7 -9 60 0 53 3 73 9 60 5 -11 9 -38 9 -60z m-320 30 c64 -13 93 -24
142 -58 68 -47 91 -61 133 -79 39 -18 36 -34 -5 -28 -63 9 -144 4 -204 -12
-76 -20 -155 -30 -155 -19 0 9 141 76 183 86 15 4 27 13 27 21 0 19 -41 18
-77 -1 -40 -22 -214 -96 -238 -101 -45 -11 87 94 145 115 71 26 84 41 36 41
-60 0 -121 -35 -229 -134 -57 -53 -111 -96 -120 -96 -8 0 -17 -9 -20 -20 -7
-29 -39 -27 -32 3 3 12 9 51 15 86 8 54 15 71 47 104 50 51 164 105 224 106
26 1 83 -6 128 -14z m334 -195 c73 0 35 -18 -50 -24 -58 -4 -122 -17 -186 -38
-55 -17 -108 -32 -120 -33 -21 -2 -38 -25 -19 -25 25 0 122 -122 211 -265 57
-92 176 -334 168 -341 -3 -3 -14 -1 -25 5 -12 6 -30 11 -41 11 -25 0 -42 31
-70 132 -32 113 -60 171 -140 283 -39 55 -71 108 -71 118 0 9 -8 17 -17 17
-18 0 -63 37 -63 52 0 10 119 67 205 99 37 14 67 18 115 14 36 -3 82 -5 103
-5z m-363 -27 c0 -5 -24 -21 -54 -36 -61 -32 -77 -56 -49 -72 64 -35 190 -198
257 -332 45 -90 51 -116 32 -132 -9 -8 -16 -22 -16 -32 0 -26 -17 -24 -71 10
-39 25 -49 39 -69 91 -34 90 -111 206 -227 341 -49 56 -72 98 -66 117 7 17 23
15 23 -4 0 -8 51 -68 113 -132 123 -129 179 -205 215 -297 29 -71 39 -85 48
-61 9 24 -37 129 -98 221 -27 42 -92 118 -144 169 -52 51 -94 97 -94 104 0 6
10 17 23 24 36 20 177 36 177 21z m-774 -13 c16 -5 61 -11 100 -13 38 -2 75
-7 82 -11 26 -16 10 -26 -41 -26 -152 0 -320 -115 -394 -270 -20 -41 -41 -82
-48 -90 -7 -8 -15 -28 -19 -45 -4 -16 -25 -70 -47 -120 -22 -49 -50 -111 -61
-137 -23 -51 -63 -93 -178 -185 -109 -87 -210 -152 -210 -135 0 19 91 120 167
185 108 91 213 193 213 206 0 6 -7 11 -15 11 -8 0 -15 -7 -15 -15 0 -8 -10
-20 -22 -26 -13 -7 -70 -55 -127 -107 -60 -54 -107 -89 -109 -82 -3 7 4 24 15
39 32 43 225 202 271 223 23 10 42 23 42 28 0 40 -90 -9 -205 -112 -42 -37
-80 -68 -86 -68 -7 0 -8 15 -4 43 5 30 16 49 38 67 18 14 59 49 92 79 33 30
97 78 142 108 45 30 85 58 89 64 31 51 -126 -40 -241 -138 -47 -41 -88 -73
-91 -71 -10 11 24 83 42 87 10 2 35 17 54 35 71 63 163 129 232 165 74 39 95
61 59 61 -23 0 -187 -101 -270 -166 -30 -24 -57 -42 -59 -40 -2 2 11 32 28 66
24 47 35 60 48 56 11 -4 37 10 72 39 30 25 99 67 152 93 89 43 122 72 82 72
-17 0 -189 -97 -248 -141 -50 -36 -62 -37 -39 -2 30 46 63 71 158 116 117 57
159 70 200 63 36 -7 53 5 31 23 -15 13 -82 2 -155 -23 -82 -30 -80 -9 3 30 39
18 68 24 124 24 63 0 72 2 72 18 0 34 22 40 76 22z m1258 -14 c56 -23 57 -40
2 -32 -57 9 -183 -9 -249 -35 -26 -10 -61 -19 -77 -19 -16 0 -31 -4 -34 -8 -3
-5 28 -44 67 -88 71 -77 135 -180 227 -363 43 -87 43 -101 -5 -101 -20 0 -64
71 -80 130 -4 14 -16 43 -27 65 -31 63 -179 296 -210 333 -15 18 -28 37 -28
42 0 20 143 67 240 80 91 12 139 11 174 -4z m63 -72 c2 -6 -37 -25 -89 -44
-78 -27 -102 -31 -149 -26 -36 3 -60 1 -67 -6 -9 -9 -16 -8 -30 5 -15 16 -15
19 -2 27 17 11 106 38 165 50 56 11 168 7 172 -6z m-820 -32 c72 -70 189 -226
262 -351 36 -60 26 -65 -49 -23 -39 21 -56 39 -82 87 -18 33 -38 75 -44 93
-15 41 -50 95 -103 156 -65 75 -53 105 16 38z m-364 -83 c4 -52 6 -120 4 -151
-4 -66 6 -75 23 -22 8 24 10 71 5 150 -4 66 -4 114 2 114 15 0 51 -29 73 -60
l22 -30 -29 -53 c-16 -28 -35 -68 -43 -87 -35 -93 -104 -221 -145 -270 -90
-110 -331 -366 -389 -415 -33 -28 -87 -68 -120 -91 -74 -49 -292 -157 -308
-152 -6 2 21 39 61 81 39 42 71 79 71 82 0 14 -41 -20 -110 -89 -52 -53 -82
-76 -98 -76 -22 0 -23 2 -11 17 30 36 203 173 220 173 23 0 71 56 149 173 36
54 66 94 68 89 1 -5 -7 -35 -18 -66 -20 -53 -39 -80 -149 -221 -65 -82 -39
-81 38 3 36 39 73 72 82 72 9 0 35 39 67 103 52 104 65 153 78 297 6 74 37
186 56 205 21 21 -19 -298 -48 -390 -9 -27 -29 -74 -45 -102 -16 -29 -29 -60
-29 -69 0 -63 91 101 114 206 25 114 49 326 42 374 -7 44 11 107 35 122 9 5 2
-229 -8 -256 -3 -8 -6 -51 -8 -95 -1 -44 -6 -108 -10 -142 -5 -43 -4 -63 3
-63 14 0 21 25 32 107 4 37 14 110 21 160 11 82 10 95 -4 110 -14 16 -14 28
-2 111 18 120 23 134 43 130 12 -2 17 -14 17 -35 1 -31 14 -60 16 -32 0 8 1
36 2 63 2 49 2 49 62 82 102 57 97 66 93 -171 -2 -148 0 -205 8 -205 20 0 24
39 24 226 0 99 3 184 7 188 18 18 29 -9 36 -95z m1356 71 c19 -10 3 -19 -99
-52 -91 -30 -133 -34 -176 -18 -26 10 -26 11 -8 24 22 15 128 53 164 59 30 6
99 -2 119 -13z m-1017 -72 c27 -29 58 -73 70 -98 12 -25 30 -58 41 -73 13 -19
16 -32 9 -39 -20 -20 -182 157 -182 200 0 11 -7 25 -15 32 -21 18 -19 30 7 30
13 0 40 -20 70 -52z m1162 32 c29 -11 35 -30 10 -30 -9 0 -55 -19 -102 -42
-68 -33 -98 -42 -138 -42 -51 0 -88 17 -81 37 4 13 221 84 259 86 15 1 38 -3
52 -9z m501 -45 c80 -28 154 -68 182 -97 33 -34 25 -44 -22 -28 -48 16 -73 -3
-29 -21 112 -46 135 -60 146 -83 17 -39 2 -43 -55 -14 -29 14 -63 31 -77 37
-14 7 -36 18 -50 26 -20 11 -55 12 -185 5 -88 -5 -173 -9 -190 -10 -23 0 -27
-3 -15 -10 9 -6 84 -10 174 -9 154 1 160 0 168 -20 4 -12 12 -21 18 -21 5 0
43 -32 84 -70 69 -66 153 -174 190 -247 17 -34 22 -83 8 -83 -11 0 -32 46 -32
70 0 34 -11 49 -45 60 -26 9 -49 33 -99 103 -87 123 -207 216 -230 178 -3 -5
16 -23 43 -40 71 -46 215 -201 199 -216 -2 -2 -31 3 -63 12 -80 21 -192 12
-365 -28 -130 -30 -141 -31 -311 -26 -253 6 -273 17 -358 198 -27 57 -77 153
-110 212 -62 108 -74 141 -46 117 30 -25 109 -154 167 -274 33 -66 71 -136 85
-155 27 -35 125 -87 143 -76 16 10 3 24 -38 41 -63 26 -91 63 -174 229 -44 87
-92 174 -106 192 -13 19 -22 36 -19 40 18 17 62 -40 133 -174 49 -91 95 -163
120 -188 72 -71 160 -143 179 -147 28 -4 32 29 5 37 -12 4 -61 45 -110 92 -75
73 -98 103 -150 199 -34 63 -60 119 -58 125 4 13 118 -77 118 -93 0 -6 24 -34
53 -62 28 -28 76 -82 105 -119 64 -80 161 -169 181 -165 26 5 23 27 -6 41 -35
19 -175 168 -267 285 l-20 25 30 -7 c65 -15 85 -30 130 -97 25 -37 72 -92 104
-122 88 -79 180 -125 180 -89 0 4 -23 20 -51 36 -87 49 -246 212 -226 232 3 3
51 8 108 10 56 3 114 11 128 18 14 7 50 16 79 20 61 8 82 15 82 27 0 14 -49
10 -138 -11 -97 -23 -155 -25 -171 -7 -9 11 -2 18 32 32 46 20 77 43 77 57 0
14 -26 9 -71 -16 -77 -42 -145 -59 -205 -51 -30 3 -54 10 -54 14 0 3 19 12 43
19 23 7 83 35 132 61 l90 48 190 -2 c154 -1 199 -5 240 -20z m-1805 -112 c4
-21 24 -101 44 -178 35 -135 54 -245 43 -245 -3 0 -13 35 -22 78 -10 42 -37
132 -60 199 -25 70 -41 132 -38 145 13 61 21 61 33 1z m1305 -33 c-3 -5 -18
-10 -33 -10 -21 0 -24 2 -12 10 20 13 53 13 45 0z m-1315 -169 c55 -153 71
-255 72 -436 0 -170 -23 -297 -72 -395 -31 -62 -232 -300 -238 -282 -2 6 4 46
12 89 28 139 39 264 40 440 1 95 4 173 7 173 4 0 13 -30 20 -67 16 -78 18
-222 6 -370 -6 -66 -5 -103 1 -103 16 0 20 20 32 148 14 144 2 317 -31 431
-21 74 -20 173 1 186 24 15 71 -209 90 -425 7 -74 14 -137 16 -139 10 -10 23
54 19 92 -3 23 -12 110 -21 192 -15 141 -50 288 -78 323 -19 25 0 142 23 142
4 0 27 -74 50 -164 35 -143 42 -184 47 -321 4 -85 10 -158 14 -160 21 -13 26
31 19 170 -7 155 -22 235 -80 436 -30 103 -30 108 -14 133 10 15 19 25 21 23
2 -1 21 -54 44 -116z m-143 47 c-3 -8 -6 -5 -6 6 -1 11 2 17 5 13 3 -3 4 -12
1 -19z m-46 -185 c-12 -65 -30 -146 -41 -179 -11 -34 -28 -99 -39 -145 -23
-94 -52 -181 -68 -201 -6 -7 -16 -40 -23 -72 -7 -33 -28 -108 -47 -168 -22
-72 -37 -143 -43 -211 -11 -116 -11 -297 -1 -342 7 -29 7 -30 19 -8 7 12 12
42 12 67 0 56 26 123 52 137 15 8 19 19 17 48 -2 26 3 43 17 57 13 13 32 66
52 151 30 119 33 145 35 309 2 148 5 185 20 214 17 34 17 31 13 -155 -7 -298
-38 -472 -108 -609 -22 -44 -51 -118 -63 -165 -39 -147 -54 -181 -117 -264
-16 -22 -16 -22 -22 18 -20 122 -30 169 -58 255 -17 52 -37 105 -45 118 -31
51 -83 203 -83 245 0 35 7 54 36 92 20 26 82 120 137 209 168 271 237 369 237
336 0 -18 -35 -82 -165 -300 -168 -284 -218 -377 -211 -397 9 -24 18 -12 86
120 33 66 78 144 99 175 21 32 51 82 66 112 15 30 41 74 57 98 48 70 100 191
94 217 -4 14 4 45 19 79 30 68 16 74 -21 9 -15 -27 -71 -111 -124 -188 -54
-77 -110 -162 -125 -190 -16 -27 -58 -95 -94 -151 -36 -55 -71 -109 -77 -120
-11 -18 -12 -17 -24 8 -10 20 -10 34 -2 55 6 15 13 41 17 56 3 16 25 47 48 70
24 23 65 70 92 105 28 35 67 85 87 110 80 101 128 172 196 295 40 71 72 131
72 134 0 20 -51 -47 -107 -142 -86 -144 -336 -475 -349 -462 -5 5 16 96 38
162 9 29 51 79 148 180 75 77 158 170 185 208 27 37 54 68 59 69 6 0 18 1 26
2 8 1 16 10 18 21 6 44 15 69 19 59 2 -7 -5 -65 -16 -131z m728 37 c35 -21 68
-43 73 -48 4 -4 7 -96 6 -203 l-3 -194 -62 129 c-35 70 -63 135 -63 143 0 8
-29 69 -65 137 -36 67 -65 126 -65 130 0 7 87 -38 179 -94z m1546 88 c32 -14
95 -125 95 -167 0 -17 -3 -31 -8 -31 -4 0 -23 26 -41 58 -19 31 -49 76 -68 99
-18 23 -33 44 -33 47 0 10 27 7 55 -6z m-1717 -103 c9 -20 9 -25 -3 -25 -12 0
-35 28 -35 44 0 17 28 2 38 -19z m-1043 -15 c3 -5 1 -10 -4 -10 -6 0 -11 5
-11 10 0 6 2 10 4 10 3 0 8 -4 11 -10z m1065 -153 c43 -90 84 -184 91 -208 7
-24 16 -48 20 -54 4 -5 44 -82 88 -170 71 -139 84 -173 100 -260 44 -233 34
-271 -19 -78 -36 130 -84 263 -124 342 -15 28 -37 79 -50 113 -30 80 -103 243
-148 333 -60 119 -70 145 -52 145 10 0 43 -58 94 -163z m548 131 c19 -19 14
-28 -16 -28 -35 0 -45 9 -31 27 14 16 31 17 47 1z m-434 -236 c58 -117 109
-225 112 -240 4 -15 23 -56 43 -92 l36 -65 3 80 c1 44 -4 152 -11 240 -15 169
-10 203 22 170 13 -13 16 -39 14 -153 -4 -233 14 -443 63 -712 24 -135 42
-250 39 -257 -2 -7 -11 -13 -19 -13 -11 0 -16 18 -20 68 -4 37 -11 87 -16 112
-6 25 -25 133 -44 242 -24 140 -39 205 -53 225 -26 36 -245 472 -272 541 -22
56 -28 93 -12 77 6 -6 57 -106 115 -223z m-1204 208 c0 -5 -5 -10 -11 -10 -5
0 -7 5 -4 10 3 6 8 10 11 10 2 0 4 -4 4 -10z m6 -94 c-20 -67 -42 -88 -31 -30
9 51 36 112 42 97 2 -7 -3 -37 -11 -67z m-132 -65 c-37 -63 -215 -223 -280
-251 -22 -10 -48 -30 -58 -45 -25 -38 -32 -24 -12 25 19 49 53 81 121 116 28
14 92 61 144 104 52 44 96 80 98 80 2 0 -4 -13 -13 -29z m2986 -21 c0 -5 -5
-10 -11 -10 -5 0 -7 5 -4 10 3 6 8 10 11 10 2 0 4 -4 4 -10z m-2898 -22 c-7
-7 -12 -8 -12 -2 0 14 12 26 19 19 2 -3 -1 -11 -7 -17z m2898 -33 c0 -8 -4
-15 -10 -15 -5 0 -10 7 -10 15 0 8 5 15 10 15 6 0 10 -7 10 -15z m-1490 -77
c0 -28 -3 -39 -10 -32 -9 9 -3 74 6 74 2 0 4 -19 4 -42z m0 -108 c0 -5 -4 -10
-10 -10 -5 0 -10 5 -10 10 0 6 5 10 10 10 6 0 10 -4 10 -10z m-940 -137 c0
-79 -25 -256 -40 -281 -18 -31 -12 247 6 301 9 26 20 47 25 47 5 0 9 -30 9
-67z m-82 -257 c-5 -81 -13 -126 -38 -201 -18 -53 -35 -94 -38 -91 -8 9 18
246 35 306 34 123 47 118 41 -14z m27 -96 c-4 -12 -9 -19 -12 -17 -3 3 -2 15
2 27 4 12 9 19 12 17 3 -3 2 -15 -2 -27z m1075 -206 c0 -21 -4 -33 -10 -29
-17 10 -11 65 7 65 2 0 3 -16 3 -36z m261 -137 c-16 -20 -3 -27 53 -27 58 0
201 -30 295 -61 49 -17 69 -19 82 -11 14 9 26 2 69 -44 29 -30 50 -57 47 -60
-3 -3 -19 2 -36 11 -63 32 -233 77 -344 90 -32 3 -90 18 -130 32 -40 14 -92
28 -117 32 -64 9 -61 34 5 42 88 10 89 10 76 -4z m240 -10 c-1 -12 -15 -9 -19
4 -3 6 1 10 8 8 6 -3 11 -8 11 -12z m104 -28 c7 -7 -1 -9 -24 -7 -19 2 -37 9
-39 17 -4 11 2 12 24 7 16 -4 34 -12 39 -17z m65 -30 c0 -5 -9 -9 -20 -9 -19
0 -27 20 -13 33 7 8 33 -11 33 -24z m-610 -11 c1 -37 -35 -207 -41 -196 -18
35 -19 92 -3 141 9 29 19 55 21 60 7 12 23 8 23 -5z m75 -30 c-23 -111 -15
-259 21 -385 13 -46 -22 -23 -65 42 l-44 66 7 77 c8 91 25 190 38 215 5 9 18
17 29 17 19 0 20 -4 14 -32z m93 -126 c0 -148 22 -274 62 -352 25 -48 25 -61
3 -53 -74 26 -134 200 -136 393 -1 111 11 150 47 150 l25 0 -1 -138z m108 -19
c1 -108 5 -140 26 -202 13 -41 30 -77 36 -79 17 -5 15 15 -13 120 -26 96 -32
198 -15 242 l9 25 42 -22 c23 -12 55 -38 71 -57 28 -33 30 -41 32 -140 3 -100
34 -268 57 -311 8 -15 39 -28 39 -16 0 1 -13 54 -29 117 -32 126 -49 274 -34
283 6 4 18 1 27 -6 12 -9 22 -48 36 -147 24 -165 44 -234 72 -254 33 -23 40
-9 17 36 -24 46 -69 249 -69 306 l1 37 25 -30 c14 -16 34 -41 44 -53 24 -28
25 -23 6 23 -8 19 -11 37 -7 39 13 8 149 -43 249 -93 53 -27 118 -69 143 -92
26 -24 55 -49 65 -55 11 -7 16 -15 11 -20 -4 -4 -33 11 -65 33 -77 54 -235
133 -268 133 -47 0 -20 -24 72 -63 162 -70 304 -169 304 -213 0 -8 -2 -14 -5
-14 -3 0 -42 29 -88 65 -90 72 -198 131 -222 122 -27 -11 -16 -23 41 -46 92
-39 301 -197 333 -253 9 -15 28 -32 44 -37 18 -7 27 -17 27 -31 0 -27 -16 -18
-93 49 -31 28 -79 65 -105 82 -26 18 -64 47 -85 66 -35 31 -88 45 -101 25 -2
-4 16 -61 41 -127 24 -66 47 -141 50 -167 6 -47 5 -48 -20 -48 -19 0 -28 6
-32 23 -2 12 -12 58 -20 102 -9 44 -22 107 -30 140 -8 33 -17 77 -20 98 -7 41
-35 53 -35 15 0 -21 59 -288 76 -346 6 -22 4 -23 -32 -20 -37 3 -38 4 -49 53
-7 33 -15 50 -25 50 -16 0 -18 -22 -7 -67 9 -36 -4 -36 -69 -2 -30 15 -70 50
-104 91 -72 85 -100 114 -134 138 -23 17 -32 36 -51 117 -13 53 -28 150 -35
215 -16 175 -20 203 -31 203 -24 0 0 -292 36 -431 9 -34 14 -63 12 -66 -3 -2
-33 8 -69 22 l-64 25 -33 103 c-19 56 -40 127 -47 157 -14 57 -19 262 -7 273
3 4 20 7 37 7 l31 0 1 -127z m359 57 c112 -36 215 -85 215 -101 0 -12 1 -13
-120 29 -47 16 -110 33 -140 37 -79 9 -114 22 -141 52 l-24 26 55 -6 c30 -3
100 -20 155 -37z m-1885 -67 c1 -23 -57 -153 -67 -153 -7 0 -13 6 -13 14 0 20
28 97 46 123 14 22 34 31 34 16z m1929 -28 c52 -14 119 -36 150 -48 62 -25
176 -95 168 -103 -3 -3 -40 12 -83 34 -89 45 -230 92 -274 92 -16 0 -41 11
-57 25 -36 31 -22 31 96 0z m-1869 -14 c0 -10 -9 -40 -21 -66 -12 -26 -29 -88
-40 -138 -10 -49 -22 -94 -27 -99 -33 -33 -16 105 27 221 16 42 31 84 35 94 7
22 26 13 26 -12z m2115 -31 c8 -13 -11 -13 -36 1 -11 5 -17 14 -14 20 7 10 39
-4 50 -21z m70 -50 c3 -5 1 -10 -4 -10 -6 0 -11 5 -11 10 0 6 2 10 4 10 3 0 8
-4 11 -10z m-2157 -101 c16 -64 4 -319 -15 -319 -7 0 -13 8 -13 19 0 10 -6 34
-14 52 -27 66 -29 119 -6 218 12 51 26 89 30 84 4 -4 12 -28 18 -54z m-167
-29 c-9 -22 -10 -20 -10 21 -1 25 2 49 7 53 11 12 14 -47 3 -74z m2409 15 c22
-27 5 -37 -19 -11 -19 20 -21 26 -9 26 9 0 21 -7 28 -15z m-2350 -166 c0 -6
-4 -7 -10 -4 -5 3 -10 11 -10 16 0 6 5 7 10 4 6 -3 10 -11 10 -16z m2277 -110
c1 -19 18 -83 37 -144 19 -60 33 -112 31 -114 -11 -11 -35 12 -35 33 0 33 -34
140 -70 219 -38 84 -38 96 2 65 24 -18 33 -34 35 -59z m-2076 -38 c23 -55 40
-82 54 -85 24 -6 101 -83 93 -92 -17 -16 -145 92 -173 145 -19 38 -31 111 -17
111 5 0 25 -36 43 -79z m2224 -40 c55 -42 112 -84 127 -93 29 -18 38 -48 15
-48 -7 0 -40 23 -75 50 -34 28 -90 70 -124 94 -41 28 -64 50 -66 65 -4 28 -6
29 123 -68z m-955 59 c0 -5 -4 -10 -10 -10 -5 0 -10 5 -10 10 0 6 5 10 10 10
6 0 10 -4 10 -10z m24 -130 c13 -162 119 -712 171 -885 41 -138 40 -135 17
-135 -12 0 -26 9 -32 20 -17 31 -90 345 -106 455 -8 55 -21 134 -29 175 -29
159 -60 444 -49 461 12 20 21 -10 28 -91z m916 -53 c28 -57 50 -107 50 -110 0
-4 -7 -7 -15 -7 -19 0 -54 57 -88 143 -32 79 -31 77 -12 77 10 0 34 -39 65
-103z m117 -30 c38 -28 43 -36 41 -66 -4 -51 -24 -49 -51 6 -14 26 -34 57 -46
67 -12 11 -21 23 -21 29 0 14 29 0 77 -36z"/>
<path d="M3710 12480 c0 -6 20 -35 45 -66 60 -74 88 -129 95 -189 4 -39 10
-52 29 -61 13 -7 34 -24 45 -39 14 -17 29 -26 41 -24 27 6 31 38 7 55 -12 8
-22 27 -24 42 -2 21 -9 28 -31 32 -23 4 -32 15 -51 61 -26 65 -55 109 -105
162 -35 37 -51 46 -51 27z"/>
<path d="M3342 12053 c2 -12 16 -20 42 -24 25 -4 46 -16 60 -34 26 -32 46 -27
46 11 0 53 -15 64 -86 64 -57 0 -65 -2 -62 -17z"/>
<path d="M3176 9768 c-24 -34 -2 -47 29 -18 13 12 22 27 19 31 -9 16 -33 9
-48 -13z"/>
<path d="M2091 9022 c-7 -13 -6 -26 3 -43 7 -14 13 -40 14 -58 1 -39 14 -56
36 -48 20 8 21 51 1 67 -20 17 -19 33 5 55 15 14 17 21 9 32 -16 19 -57 16
-68 -5z"/>
<path d="M1937 8933 c-11 -10 -8 -76 3 -93 16 -23 40 15 40 62 0 30 -4 38 -18
38 -10 0 -22 -3 -25 -7z"/>
<path d="M2025 8928 c-3 -7 -6 -24 -7 -38 -3 -22 1 -25 30 -28 40 -4 51 18 28
53 -18 27 -44 33 -51 13z"/>
<path d="M2202 8873 c2 -21 9 -29 27 -31 32 -5 46 11 32 37 -7 13 -22 21 -37
21 -22 0 -25 -4 -22 -27z"/>
<path d="M2316 8855 c-15 -16 -23 -85 -10 -85 4 0 22 10 41 21 27 17 33 27 31
48 -4 31 -37 40 -62 16z"/>
<path d="M2040 8780 c0 -35 23 -41 40 -10 13 25 5 40 -21 40 -14 0 -19 -7 -19
-30z"/>
<path d="M1894 8765 c-11 -28 44 -90 63 -71 3 3 -2 24 -12 46 -18 41 -41 52
-51 25z"/>
<path d="M2163 8745 c-12 -14 -35 -28 -52 -31 -21 -4 -31 -12 -31 -25 0 -29
38 -34 69 -10 14 12 36 26 49 31 16 7 22 17 20 32 -4 32 -29 33 -55 3z"/>
<path d="M2257 8673 c-15 -14 -7 -43 12 -43 27 0 34 15 15 34 -18 18 -18 18
-27 9z"/>
<path d="M2450 9292 c-15 -12 -21 -26 -18 -47 l3 -29 28 40 c38 57 33 73 -13
36z"/>
<path d="M2855 8920 c3 -5 8 -10 11 -10 2 0 4 5 4 10 0 6 -5 10 -11 10 -5 0
-7 -4 -4 -10z"/>
<path d="M2707 9213 c-12 -11 -8 -23 8 -23 8 0 15 7 15 15 0 16 -12 20 -23 8z"/>
<path d="M1535 9209 c-7 -11 22 -38 41 -39 6 0 17 7 25 16 10 13 10 17 -2 25
-19 12 -56 11 -64 -2z"/>
<path d="M1057 8483 c-26 -26 19 -45 53 -23 13 9 13 11 0 20 -17 11 -44 13
-53 3z"/>
<path d="M2500 8350 c0 -5 5 -10 10 -10 6 0 10 5 10 10 0 6 -4 10 -10 10 -5 0
-10 -4 -10 -10z"/>
<path d="M2550 8331 c0 -22 16 -36 24 -22 8 12 -3 41 -15 41 -5 0 -9 -9 -9
-19z"/>
<path d="M2227 8239 c-8 -30 2 -71 17 -66 17 5 19 49 3 71 -13 18 -14 18 -20
-5z"/>
<path d="M1997 7926 c-4 -10 -5 -21 -2 -24 9 -9 17 6 13 25 -3 17 -4 17 -11
-1z"/>
<path d="M5951 7305 c12 -57 150 -109 157 -59 3 19 -6 25 -60 43 -105 36 -100
36 -97 16z"/>
<path d="M2767 6434 c-35 -11 -52 -12 -67 -4 -31 17 -103 -20 -175 -89 -33
-32 -77 -64 -98 -71 -34 -13 -52 -40 -26 -40 30 0 110 46 137 78 34 44 96 88
135 97 46 12 30 -9 -53 -69 -44 -32 -80 -62 -80 -67 0 -21 34 -4 124 62 80 59
105 72 156 81 34 7 59 16 57 22 -5 17 -57 17 -110 0z"/>
<path d="M2928 6345 c-58 -30 -113 -55 -122 -55 -16 0 -33 -26 -24 -35 3 -3
31 4 63 15 71 25 77 25 45 0 -37 -28 -18 -34 36 -10 27 11 101 30 166 42 85
16 118 26 118 36 0 15 -12 15 -125 -8 -91 -18 -145 -23 -145 -14 0 16 96 54
135 54 47 0 42 24 -6 28 -26 2 -61 -11 -141 -53z"/>
<path d="M3133 6224 c-35 -15 -3 -24 87 -24 54 0 111 -5 125 -12 30 -13 49 -1
35 22 -7 12 -35 15 -122 17 -62 1 -119 0 -125 -3z"/>
<path d="M3192 6148 c3 -7 20 -16 39 -20 19 -5 72 -20 118 -34 86 -26 128 -26
100 1 -15 15 -198 65 -237 65 -14 0 -22 -5 -20 -12z"/>
<path d="M3240 6098 c0 -7 25 -42 55 -78 30 -35 55 -67 55 -71 0 -4 34 -44 75
-89 41 -45 75 -86 75 -92 0 -6 10 -8 25 -4 20 5 27 1 40 -24 17 -32 32 -38 41
-16 7 19 -13 56 -31 56 -27 0 -156 132 -142 146 2 3 16 -1 31 -7 14 -7 29 -9
32 -6 13 13 -19 36 -67 48 -42 11 -59 23 -110 81 -59 67 -79 81 -79 56z"/>
<path d="M3340 6055 c0 -7 126 -75 139 -75 25 0 3 26 -45 52 -43 24 -94 37
-94 23z"/>
<path d="M3515 5880 c-8 -13 3 -30 21 -30 18 0 18 14 0 29 -10 8 -16 9 -21 1z"/>
<path d="M3050 5821 c0 -5 10 -34 21 -65 16 -40 27 -56 40 -56 11 0 19 6 19
13 0 25 -52 117 -66 117 -8 0 -14 -4 -14 -9z"/>
<path d="M3470 5741 c0 -20 53 -71 73 -71 18 0 16 5 -18 40 -39 40 -55 49 -55
31z"/>
<path d="M4120 6111 c8 -5 92 -11 185 -14 94 -4 204 -11 245 -17 113 -16 114
-16 118 1 2 13 -18 18 -136 27 -159 14 -434 16 -412 3z"/>
<path d="M3820 6007 c0 -23 11 -46 38 -79 20 -25 58 -73 84 -106 45 -57 187
-182 208 -182 21 0 8 30 -22 51 -100 70 -238 228 -274 315 -18 43 -34 44 -34
1z"/>
<path d="M1846 5362 c-10 -17 31 -255 65 -375 38 -134 113 -336 133 -356 31
-30 28 1 -6 76 -68 148 -138 405 -154 564 -7 69 -25 112 -38 91z"/>
<path d="M1917 5343 c-13 -12 -7 -48 42 -253 73 -306 167 -548 199 -516 3 4
-15 50 -40 104 -69 146 -83 189 -132 412 -13 58 -29 123 -35 145 -6 22 -11 57
-11 78 0 35 -8 46 -23 30z"/>
<path d="M3308 5020 c-9 -6 -35 -40 -59 -77 -41 -66 -70 -162 -61 -206 7 -36
27 -9 38 52 6 34 18 69 26 79 9 9 18 29 21 43 4 14 20 43 37 64 16 20 27 41
24 46 -6 11 -5 11 -26 -1z"/>
<path d="M2435 4140 c-3 -5 1 -10 10 -10 9 0 13 5 10 10 -3 6 -8 10 -10 10 -2
0 -7 -4 -10 -10z"/>
<path d="M2451 4021 c-10 -19 -12 -57 -6 -185 7 -158 6 -163 -18 -224 -29 -70
-20 -91 15 -35 21 35 23 51 26 193 2 85 2 182 0 215 -3 56 -4 59 -17 36z"/>
<path d="M2334 3845 c-4 -10 -3 -30 3 -46 13 -34 0 -179 -23 -258 -9 -32 -12
-57 -6 -63 29 -29 65 130 60 267 -3 94 -19 140 -34 100z"/>
<path d="M4100 3737 c0 -26 116 -125 186 -161 66 -32 84 -36 84 -14 0 4 -27
21 -60 38 -33 16 -91 57 -129 90 -74 63 -81 68 -81 47z"/>
<path d="M2322 2840 c-35 -43 -66 -103 -112 -211 -35 -82 -67 -152 -72 -155
-11 -7 -10 -34 2 -34 14 0 58 79 95 173 47 117 72 165 116 223 22 28 39 54 39
57 0 20 -24 0 -68 -53z"/>
<path d="M2197 2423 c-10 -10 -8 -113 2 -113 12 0 21 36 21 83 0 35 -8 46 -23
30z"/>
<path d="M2258 2354 c-13 -22 -19 -122 -7 -129 17 -11 29 14 28 60 0 44 -13
84 -21 69z"/>
<path d="M4242 1684 c9 -83 86 -220 110 -196 7 7 -3 33 -27 77 -21 36 -43 87
-49 112 -17 66 -40 71 -34 7z"/>
<path d="M2390 10171 c-14 -27 9 -40 27 -16 17 24 17 35 -2 35 -8 0 -19 -9
-25 -19z"/>
<path d="M5970 9183 c0 -11 7 -28 15 -39 14 -18 15 -17 13 15 -3 36 -28 57
-28 24z"/>
<path d="M5 6610 c-3 -5 -1 -10 4 -10 6 0 11 5 11 10 0 6 -2 10 -4 10 -3 0 -8
-4 -11 -10z"/>
</g>
</svg>
