<?xml version="1.0" encoding="utf-8"?>
<!-- Generator: Adobe Illustrator 26.5.1, SVG Export Plug-In . SVG Version: 6.00 Build 0)  -->
<svg version="1.1" id="Layer_1" xmlns="http://www.w3.org/2000/svg" xmlns:xlink="http://www.w3.org/1999/xlink" x="0px" y="0px"
	 viewBox="0 0 1322.03 277.5" style="enable-background:new 0 0 1322.03 277.5;" xml:space="preserve">
<style type="text/css">
	.st0{fill:#E7BB00;}
</style>
<g>
	<g>
		<g transform="translate(66.243328, 35.836109)">
			<g>
				<path class="st0" d="M193.61,55.99c7.34,0,16.53,0.82,16.53-7.53c0-13.95-20.75-13.77-20.75-21.94
					c0-9.82,20.11-5.88,20.11-16.42c0-5.43-15.07-10.1-20.93-10.1c-6.98,0-12.59,6.41-12.59,13.31c0,15.8,15.51,17.26,15.51,29.48
					c0,5.77-6.24,8.62-12.02,8.62c-15.69,0-23.69-19.27-23.69-29.28c0-21.3,26.63-36.27,26.63-49.77c0-3.67-2.1-8.18-9.55-8.18
					h-28.18c2.48,2.48,3.21,5.61,3.21,10.83v70.16c0,5.24-0.73,8.35-3.21,10.83H193.61z"/>
			</g>
		</g>
	</g>
	<g>
		<g transform="translate(83.864709, 35.836109)">
			<g>
				<path class="st0" d="M205.09,47.9c6.24,6.34,14.41,9.46,22.77,9.46c8.53,0,17.26-3.39,23.96-10.19
					c13.14-13.31,13.5-34.43,0.75-47.29c-6.25-6.33-14.43-9.46-22.78-9.46c-8.53,0-17.26,3.4-23.96,10.11
					C192.61,13.84,192.32,34.97,205.09,47.9z M224.37-4.7c5.97-0.92,12.77,11.2,15.16,27.08c2.39,16.17-0.46,29.66-6.34,30.58
					c-5.97,0.91-12.76-11.11-15.25-27.09C215.46,9.8,218.31-3.79,224.37-4.7z"/>
			</g>
		</g>
	</g>
	<g>
		<g transform="translate(102.399613, 35.836109)">
			<g>
				<path class="st0" d="M247.98,41.66c0,8.82,7.43,15.69,16.34,15.69c13.14,0,15.8-8.53,19.66-8.53c1.37,0,2.1,1.66,2.39,3.21
					c0.45,2.49,2.01,3.95,4.77,3.95h22.5c-2.49-2.48-3.22-5.59-3.22-10.83V17.88c0-13.13-9.92-27.55-31.03-27.55
					c-9.74,0-19.38,1.39-25.61,7.35c-2.39,2.19-1.83,5.5-1.83,8.62v5.06c0,1.55,1.37,2.94,2.83,2.94c5.7,0,11.67-18.74,23.23-18.92
					c6.8-0.09,8,5.24,8,9.26c0,1.66-0.64,3.49-3.31,4.04C265.41,12.28,247.98,22.11,247.98,41.66z M282.68,14.66
					c2.49,0,3.31,1.57,3.31,5.7c0,5.7,0.09,9.09,0.09,14.87c0,5.97-2.48,10.47-7.43,10.47c-6.8,0-8.73-6.25-8.73-12.68
					C269.92,21.73,276.71,14.66,282.68,14.66z"/>
			</g>
		</g>
	</g>
	<g>
		<g transform="translate(120.309472, 35.836109)">
			<g>
				<path class="st0" d="M328.76,55.99c-2.48-2.48-3.21-5.59-3.21-10.83V20.18c0-10.2,3.85-13.04,8.07-13.04
					c4.04,0,5.24,3.94,5.24,8.16v29.85c0,5.24-0.73,8.35-3.21,10.83h30.75c-2.48-2.48-3.21-5.59-3.21-10.83V29.45l-0.09-10.92
					c0.46-8.82,4.13-11.38,8.07-11.38c4.04,0,5.24,3.94,5.24,8.16v29.85c0,5.24-0.73,8.35-3.21,10.83h30.76
					c-2.48-2.48-3.22-5.59-3.22-10.83V29.45l-0.09-17.53c0-9.55-2.3-21.59-15.69-21.59c-15.51,0-17.45,12.77-21.21,12.77
					c-0.28,0-1.1,0.18-1.75-1.01c-1.66-6.43-5.7-11.76-14.6-11.76c-15.51,0-17.44,12.77-21.2,12.77c-0.37,0-0.64,0-0.64-2.21v-1.55
					c0-4.68-1.1-7.62-5.06-7.62H298c2.48,2.48,3.22,5.59,3.22,10.83v42.61c0,5.24-0.75,8.35-3.22,10.83H328.76z"/>
			</g>
		</g>
	</g>
	<g>
		<g transform="translate(157.066775, 35.836109)">
			<g>
				<path class="st0" d="M410.26-23.01c4.4,1.19,3.94,5.97,3.94,7.07v62.81c0,5.24-0.73,8.35-3.21,10.83h30.76
					c-2.48-2.48-3.22-5.59-3.22-10.83V21.9c0-10.2,3.86-13.04,8.09-13.04c4.04,0,5.24,3.94,5.24,8.16v29.85
					c0,5.24-0.73,8.35-3.22,10.83h30.76c-2.48-2.48-3.21-5.59-3.21-10.83V31.16l-0.09-17.53c0-9.55-2.3-21.59-15.71-21.59
					c-15.51,0-17.44,12.77-21.2,12.77c-0.1,0-0.37,0-0.66,0v-36.73c0-1.83-0.09-3.58-2.74-3.58c-5.42,0-22.32,8.26-25.9,10.01
					c-0.18,0.09-1.01,0.27-1.01,1.19C408.87-23.19,409.98-23.1,410.26-23.01z"/>
			</g>
		</g>
	</g>
	<g>
		<g transform="translate(175.76997, 35.836109)">
			<g>
				<path class="st0" d="M464.82,27.31c0,18.08,15.98,31.76,33.61,31.76c17.62,0,25.42-12.49,25.42-19.45
					c0-1.57-0.82-1.94-1.46-1.94c-1.83,0-3.22,4.77-11.93,4.77c-10.56,0-25.35-9.46-25.35-12.76c0-1.57,1.19-1.48,2.12-1.48
					c16.16,0,36.18,3.58,36.18-11.65c0-12.68-9.28-24.53-25.63-24.53C476.29-7.95,464.82,7.2,464.82,27.31z M475.1,10.5
					c0-5.22,5.42-8.44,10.56-8.44c7.71,0,18.74,5.33,18.74,14.87c0,6.16-10.2,6.89-18.83,6.89C478.13,23.82,475.1,17.02,475.1,10.5z
					"/>
			</g>
		</g>
	</g>
	<g>
		<g transform="translate(192.309556, 35.836109)">
			<g>
				<path class="st0" d="M509.61-23.01c4.4,1.19,3.94,5.97,3.94,7.07v66.1c0,4.68,1.1,7.53,5.06,7.53h22.5
					c-2.48-2.48-3.22-5.59-3.22-10.83v-78.78c0-1.83-0.09-3.58-2.74-3.58c-5.42,0-22.32,8.26-25.9,10.01
					c-0.18,0.09-1.01,0.27-1.01,1.19C508.22-23.19,509.33-23.1,509.61-23.01z"/>
			</g>
		</g>
	</g>
	<g>
		<g transform="translate(200.915906, 35.836109)">
			<g>
				<path class="st0" d="M532.49,3.25c0,1.1,1.1,1.19,1.39,1.28c4.31,1.48,3.94,5.97,3.94,7.07v62.81c0,5.24-0.73,8.35-3.21,10.83
					h22.5c3.95,0,5.04-2.83,5.04-7.52V49.26c0-1.28,1.01-0.64,1.66,0.36c4.97,7.82,10.47,9.46,15.25,9.46
					c16.53,0,25.99-14.41,25.99-32.22c0-16.53-7.91-34.8-25.99-34.8c-10.19,0-13.59,7.27-15.43,7.27c-0.64,0-1.1-0.1-1.48-0.92
					v-2.76c0-1.83-0.09-3.58-2.74-3.58c-5.42,0-22.23,8.64-25.9,10.01C533.32,2.15,532.49,2.34,532.49,3.25z M562.14,15.18
					c0-4.68,0.92-13.49,6.62-13.49c10.19,0,12.02,12.58,12.02,22.59c0,10.65-0.37,23.32-10.56,23.32c-7.34,0-8.09-9.46-8.09-14.5
					V15.18z"/>
			</g>
		</g>
	</g>
	<g>
		<g transform="translate(220.268173, 35.836109)">
			<g>
				<path class="st0" d="M589.34,11.8c0,17.99,19.38,23.87,34.25,23.87c6.98,0,12.4-1.19,15.8-1.19c2.48,0,3.85,0.64,3.85,2.85
					c0,4.77-6.61,8.44-12.95,8.44c-16.8,0-26.17-12.13-31.67-12.13c-3.76,0-8.82,13.23-8.82,17.17c0,4.68,18.27,8.26,30.85,8.26
					c10.38,0,27.55-5.24,27.55-22.21c0-17.72-18.1-22.5-34.34-25.35c-7.71-1.37-13.87-3.21-13.87-7.71c0-4.59,4.13-6.34,7.35-6.34
					c11.47,0,20.29,18.1,32.49,18.1c3.31,0,8.55-6.34,8.55-12.49c0-5.33-13.32-11.02-29.48-11.02
					C605.05-7.95,589.34-3.54,589.34,11.8z"/>
			</g>
		</g>
	</g>
	<g>
		<g transform="translate(244.86118, 35.836109)">
			<g>
				<path class="st0" d="M662.76,7.79c3.12,10.46,4.86,15.32,7.35,24.05c2.57,9.19,4.58,21.86,12.11,21.86h15.8
					c1.83,0,3.48,0.27,3.48,1.92c0,2.03-3.48,7.35-11.93,7.35c-6.33,0-9.64-3.58-12.49-3.58c-1.83,0-3.3,4.67-4.77,9.26
					c-1.19,3.67-2.39,6.61-2.39,8.55c0,2.57,7.53,5.42,13.04,5.42c13.41,0,17.63-11.76,23.6-26.08C713.72,35.61,724,9.98,724-0.2
					c0-5.97-2.74-11.76-10-11.76c-9.56,0-21.3,6.71-21.3,12.49c0,4.68,16.62,2.76,16.62,26.17c0,10.29-3.4,20.95-6.62,20.95
					c-4.49,0-10-23.97-14.23-39.85c-1.83-6.98-3.58-13.23-1.37-18.36h-32.13C658.82-7.19,660.56,0.35,662.76,7.79z"/>
			</g>
		</g>
	</g>
	<g>
		<g transform="translate(263.540331, 35.836109)">
			<g>
				<path class="st0" d="M719.28,45.61c6.24,6.34,14.41,9.46,22.77,9.46c8.53,0,17.26-3.39,23.96-10.19
					c13.14-13.31,13.5-34.43,0.75-47.29c-6.25-6.33-14.43-9.46-22.78-9.46c-8.53,0-17.26,3.4-23.96,10.11
					C706.8,11.55,706.51,32.68,719.28,45.61z M738.56-6.99c5.97-0.92,12.77,11.2,15.16,27.08c2.39,16.17-0.46,29.66-6.34,30.58
					c-5.97,0.91-12.76-11.11-15.25-27.09C729.65,7.51,732.5-6.08,738.56-6.99z"/>
			</g>
		</g>
	</g>
	<g>
		<g transform="translate(282.075234, 35.836109)">
			<g>
				<path class="st0" d="M760.33-10.57c2.48,2.48,3.21,5.59,3.21,10.83v15.69l0.09,17.54c0,9.55,2.3,21.57,15.71,21.57
					c15.52,0,17.44-12.76,21.21-12.76c0.36,0,0.64,0,0.64,2.21v1.55c0,4.68,1.1,7.62,5.04,7.62h22.5
					c-2.48-2.48-3.21-5.59-3.21-10.83V0.26c0-5.24,0.73-8.35,3.21-10.83h-30.76c2.48,2.48,3.22,5.59,3.22,10.83v24.97
					c0,10.19-3.86,13.04-8.09,13.04c-4.04,0-5.24-3.95-5.24-8.18V0.26c0-5.24,0.73-8.35,3.22-10.83H760.33z"/>
			</g>
		</g>
	</g>
	<g>
		<g transform="translate(15.010846, 68.523454)">
			<g>
				<path class="st0" d="M2.98,166.72c16.07,7.16,27.27,9.82,27.27,24.05c0,6.89-4.22,10.28-10.65,10.28
					c-6.52,0-10.28-4.77-10.28-11.29c0-7.25,1.66-7.98,1.66-11.01c0-2.76-2.39-4.22-4.33-4.22c-3.58,0-7.43,1.83-10.92,3.67
					c-5.59,2.94-10.1,6.79-10.1,8.73c0,13.22,20.75,20.84,37.46,20.84c15.51,0,28.75-5.88,28.75-17.45
					c0-17.44-26.91-13.86-26.82-19.74c0-0.82,0.64-1.57,1.48-1.66c16.16-1.83,26.35-12.95,26.35-27.63
					c0-11.67-6.24-20.57-16.98-24.97c6.15,0.27,6.33,2.19,13.68,2.19c3.21,0,6.06-1.64,6.06-3.94c0-3.77-3.49-9.83-7.16-9.83
					c-4.51,0-4.86,9.83-17.17,9.83c-2.76,0-8.09-1.39-12.31-1.39c-20.38,0-33.97,11.29-33.97,28.11
					C-15.01,153.21-7.94,161.84,2.98,166.72z M18.96,117.5c5.88,0,9.83,10,9.83,25.24c0,15.16-3.95,25.17-9.83,25.17
					c-5.97,0-9.92-10.01-9.92-25.17C9.04,127.5,12.99,117.5,18.96,117.5z"/>
			</g>
		</g>
	</g>
	<g>
		<g transform="translate(34.098678, 68.523454)">
			<g>
				<path class="st0" d="M37.43,178.83h30.75c-2.48-2.48-3.21-5.59-3.21-10.83v-24.97c0-5.06,1.1-12.04,8.82-12.04
					c8.91,0,7.89,8.09,11.85,8.09c1.66,0,3.76-4.86,6.33-9.92c2.3-4.58,4.97-9.37,4.97-10.46c0-3.58-6.61-5.52-11.49-5.52
					c-14.41,0-16.62,12.77-19.83,12.77c-0.37,0-0.64,0-0.64-2.21v-1.55c0-4.68-1.1-7.62-5.06-7.62H37.43
					c2.48,2.48,3.21,5.59,3.21,10.83V168C40.63,173.23,39.9,176.35,37.43,178.83z"/>
			</g>
		</g>
	</g>
	<g>
		<g transform="translate(50.15745, 68.523454)">
			<g>
				<path class="st0" d="M93.44,170.74c6.24,6.34,14.41,9.46,22.77,9.46c8.53,0,17.26-3.39,23.96-10.19
					c13.14-13.31,13.5-34.43,0.75-47.29c-6.25-6.33-14.43-9.46-22.78-9.46c-8.53,0-17.26,3.4-23.96,10.11
					C80.95,136.68,80.67,157.81,93.44,170.74z M112.71,118.14c5.97-0.92,12.77,11.2,15.16,27.08c2.39,16.17-0.46,29.66-6.34,30.58
					c-5.97,0.91-12.76-11.11-15.25-27.09C103.81,132.64,106.66,119.05,112.71,118.14z"/>
			</g>
		</g>
	</g>
	<g>
		<g transform="translate(68.692354, 68.523454)">
			<g>
				<path class="st0" d="M134.02,114.56c3.86,3.39,5.59,10.92,7.8,18.36c3.12,10.46,4.68,15.43,6.89,24.05
					c2.39,9.28,5.04,21.86,12.58,21.86h20.11c2.57,0,5.24,0.09,7.16-5.5c1.01-3.03,2.1-6.07,3.21-9.1
					c2.12,7.44,5.06,14.6,10.65,14.6h20.11c2.58,0,5.33,0.09,7.16-5.5c6.34-19.2,14.52-39.49,14.52-48.39
					c0-5.97-2.76-11.76-10.01-11.76c-9.55,0-21.3,6.71-21.3,12.49c0,4.68,16.62,2.76,16.62,26.17c0,10.29-3.4,20.95-6.61,20.95
					c-4.51,0-10.01-23.97-14.23-39.85c-1.83-6.98-3.58-13.23-1.37-18.36h-32.15c3.86,3.39,5.7,10.92,7.8,18.36
					c2.4,8.26,3.95,13.04,5.61,18.9h-0.09c1.46,7.62-3.49,20.95-6.71,20.95c-4.49,0-10-23.97-14.23-39.85
					c-1.83-6.98-3.58-13.23-1.37-18.36H134.02z"/>
			</g>
		</g>
	</g>
	<g>
		<g transform="translate(106.555497, 68.523454)">
			<g>
				<path class="st0" d="M240.46,166.24c0,8.82,7.43,15.69,16.34,15.69c13.14,0,15.8-8.53,19.66-8.53c1.37,0,2.1,1.66,2.39,3.21
					c0.45,2.49,2.01,3.95,4.77,3.95h22.5c-2.49-2.48-3.22-5.59-3.22-10.83v-27.27c0-13.13-9.92-27.55-31.03-27.55
					c-9.74,0-19.38,1.39-25.61,7.35c-2.39,2.19-1.83,5.5-1.83,8.62v5.06c0,1.55,1.37,2.94,2.83,2.94c5.7,0,11.67-18.74,23.23-18.92
					c6.8-0.09,8,5.24,8,9.26c0,1.66-0.64,3.49-3.31,4.04C257.9,136.85,240.46,146.69,240.46,166.24z M275.16,139.24
					c2.49,0,3.31,1.57,3.31,5.7c0,5.7,0.09,9.09,0.09,14.87c0,5.97-2.48,10.47-7.43,10.47c-6.8,0-8.73-6.25-8.73-12.68
					C262.4,146.31,269.19,139.24,275.16,139.24z"/>
			</g>
		</g>
	</g>
	<g>
		<g transform="translate(124.465356, 68.523454)">
			<g>
				<path class="st0" d="M321.24,180.56c-2.48-2.48-3.21-5.59-3.21-10.83v-24.97c0-10.2,3.85-13.04,8.07-13.04
					c4.04,0,5.24,3.94,5.24,8.16v29.85c0,5.24-0.73,8.35-3.21,10.83h30.75c-2.48-2.48-3.21-5.59-3.21-10.83v-15.71l-0.09-10.92
					c0.46-8.82,4.13-11.38,8.07-11.38c4.04,0,5.24,3.94,5.24,8.16v29.85c0,5.24-0.73,8.35-3.21,10.83h30.76
					c-2.48-2.48-3.22-5.59-3.22-10.83v-15.71l-0.09-17.53c0-9.55-2.3-21.59-15.69-21.59c-15.51,0-17.45,12.77-21.21,12.77
					c-0.28,0-1.1,0.18-1.75-1.01c-1.66-6.43-5.7-11.76-14.6-11.76c-15.51,0-17.44,12.77-21.2,12.77c-0.37,0-0.64,0-0.64-2.21v-1.55
					c0-4.68-1.1-7.62-5.06-7.62h-22.5c2.48,2.48,3.22,5.59,3.22,10.83v42.61c0,5.24-0.75,8.35-3.22,10.83H321.24z"/>
			</g>
		</g>
	</g>
	<g>
		<g transform="translate(152.808627, 68.523454)">
			<g>
				<path class="st0" d="M367.62,98.57c0,1.1,1.1,1.19,1.39,1.28c4.31,1.46,3.94,5.97,3.94,7.07v62.81c0,5.24-0.73,8.35-3.21,10.83
					h22.5c3.95,0,5.04-2.85,5.04-7.53v-0.91c0-1.28,1.01-0.64,1.66,0.36c4.97,7.82,10.47,9.46,15.25,9.46
					c16.53,0,25.99-14.41,25.99-32.22c0-16.53-7.91-34.8-25.99-34.8c-10.19,0-13.59,7.27-15.43,7.27c-0.64,0-1.1-0.1-1.48-0.92
					v-30.3c0-1.83-0.09-3.58-2.74-3.58c-5.42,0-22.23,8.44-25.9,10.01C368.46,97.47,367.62,97.65,367.62,98.57z M397.28,155.96
					v-17.92c0-4.68,0.92-13.49,6.62-13.49c10.19,0,12.02,12.58,12.02,22.59c0,10.65-0.37,23.32-10.56,23.32
					C398.03,170.47,397.28,161.01,397.28,155.96z"/>
			</g>
		</g>
	</g>
	<g>
		<g transform="translate(172.160894, 68.523454)">
			<g>
				<path class="st0" d="M423.1,126.11c0,1.1,1.1,1.19,1.37,1.28c3.49,1.19,3.03,5.97,3.03,7.07v35.27c0,5.24-0.73,8.35-3.21,10.83
					h30.76c-2.48-2.48-3.22-5.59-3.22-10.83v-51.24c0-1.83-0.09-3.58-2.74-3.58c-5.42,0-21.39,8.26-24.97,10.01
					C423.92,125.01,423.1,125.2,423.1,126.11z M439.45,83.33c-8.09,0-13.41,5.33-13.41,13.41c0,8.07,5.33,13.4,13.41,13.4
					c8.07,0,13.4-5.33,13.4-13.4C452.85,88.65,447.53,83.33,439.45,83.33z"/>
			</g>
		</g>
	</g>
	<g>
		<g transform="translate(180.647041, 68.523454)">
			<g>
				<path class="st0" d="M450.5,116.3v4.58h2.85c4.31,0,4.22,3.13,4.22,5.88v29.48c0,12.58,2.48,25.7,20.11,25.7
					c4.4,0,9.55-2.1,10.01-5.42c-0.92-0.18-1.66-0.09-2.39-0.55c-4.88-3.03-4.42-10.83-4.42-17.99v-37.1h7.91v-4.58h-7.91V99.31
					c0-1.28-0.64-2.21-1.75-2.21C475.47,97.1,459.78,116.3,450.5,116.3z"/>
			</g>
		</g>
	</g>
	<g>
		<g transform="translate(190.91216, 68.523454)">
			<g>
				<path class="st0" d="M482.91,126.11c0,1.1,1.1,1.19,1.37,1.28c3.49,1.19,3.03,5.97,3.03,7.07v35.27c0,5.24-0.73,8.35-3.21,10.83
					h30.76c-2.48-2.48-3.22-5.59-3.22-10.83v-51.24c0-1.83-0.09-3.58-2.74-3.58c-5.42,0-21.39,8.26-24.97,10.01
					C483.73,125.01,482.91,125.2,482.91,126.11z M499.26,83.33c-8.09,0-13.41,5.33-13.41,13.41c0,8.07,5.33,13.4,13.41,13.4
					c8.07,0,13.4-5.33,13.4-13.4C512.66,88.65,507.33,83.33,499.26,83.33z"/>
			</g>
		</g>
	</g>
	<g>
		<g transform="translate(199.398307, 68.523454)">
			<g>
				<path class="st0" d="M518.5,172.48c6.24,6.34,14.41,9.46,22.77,9.46c8.53,0,17.26-3.39,23.96-10.19
					c13.14-13.31,13.5-34.43,0.75-47.29c-6.25-6.33-14.43-9.46-22.78-9.46c-8.53,0-17.26,3.4-23.96,10.11
					C506.01,138.42,505.73,159.55,518.5,172.48z M537.77,119.88c5.97-0.92,12.77,11.2,15.16,27.08c2.39,16.17-0.46,29.66-6.34,30.58
					c-5.97,0.91-12.76-11.11-15.25-27.09C528.87,134.38,531.72,120.79,537.77,119.88z"/>
			</g>
		</g>
	</g>
	<g>
		<g transform="translate(217.93321, 68.523454)">
			<g>
				<path class="st0" d="M559.55,116.3c2.48,2.48,3.21,5.59,3.21,10.83v15.69l0.09,17.54c0,9.55,2.3,21.57,15.71,21.57
					c15.51,0,17.44-12.76,21.21-12.76c0.36,0,0.64,0,0.64,2.21v1.55c0,4.68,1.1,7.62,5.04,7.62h22.5
					c-2.48-2.48-3.21-5.59-3.21-10.83v-42.61c0-5.24,0.73-8.35,3.21-10.83h-30.76c2.48,2.48,3.22,5.59,3.22,10.83v24.97
					c0,10.19-3.86,13.04-8.09,13.04c-4.04,0-5.24-3.95-5.24-8.18v-29.84c0-5.24,0.73-8.35,3.22-10.83H559.55z"/>
			</g>
		</g>
	</g>
	<g>
		<g transform="translate(236.20368, 68.523454)">
			<g>
				<path class="st0" d="M611.96,134.66c0,17.99,19.38,23.87,34.25,23.87c6.98,0,12.4-1.19,15.8-1.19c2.48,0,3.85,0.64,3.85,2.85
					c0,4.77-6.61,8.44-12.95,8.44c-16.8,0-26.17-12.13-31.67-12.13c-3.76,0-8.82,13.23-8.82,17.17c0,4.68,18.27,8.26,30.85,8.26
					c10.38,0,27.55-5.24,27.55-22.21c0-17.72-18.1-22.5-34.34-25.35c-7.71-1.37-13.87-3.21-13.87-7.71c0-4.59,4.13-6.34,7.35-6.34
					c11.47,0,20.29,18.1,32.49,18.1c3.31,0,8.55-6.34,8.55-12.49c0-5.33-13.32-11.02-29.48-11.02
					C627.67,114.91,611.96,119.33,611.96,134.66z"/>
			</g>
		</g>
	</g>
	<g>
		<g transform="translate(260.796687, 68.523454)">
			<g>
				<path class="st0" d="M712.54,182.81c4.77,0,10.37-1.55,15.23-9.46c0.64-1,1.66-1.64,1.66-0.36v0.91c0,4.68,1.1,7.53,5.06,7.53
					h22.5c-2.49-2.48-3.22-5.59-3.22-10.83V91.82c0-1.83-0.09-3.58-2.74-3.58c-5.43,0-22.23,8.44-25.9,10.01
					c-0.18,0.09-1.01,0.27-1.01,1.19c0,1.1,1.1,1.19,1.37,1.28c4.33,1.46,3.95,5.97,3.95,7.07v12.86c0,2.28-1.1,2.39-1.46,2.39
					c-1.83,0-5.24-7.27-15.43-7.27c-18.1,0-25.99,18.27-25.99,34.8C686.56,168.39,696.01,182.81,712.54,182.81z M722.82,125.43
					c5.7,0,6.61,8.8,6.61,13.49v17.92c0,5.04-0.73,14.5-8.07,14.5c-10.2,0-10.56-12.67-10.56-23.32
					C710.8,138.01,712.63,125.43,722.82,125.43z"/>
			</g>
		</g>
	</g>
	<g>
		<g transform="translate(279.956635, 68.523454)">
			<g>
				<path class="st0" d="M740.57,167.11c0,8.82,7.43,15.69,16.34,15.69c13.14,0,15.8-8.53,19.66-8.53c1.37,0,2.1,1.66,2.39,3.21
					c0.45,2.49,2.01,3.95,4.77,3.95h22.5c-2.49-2.48-3.22-5.59-3.22-10.83v-27.27c0-13.13-9.92-27.55-31.03-27.55
					c-9.74,0-19.38,1.39-25.61,7.35c-2.39,2.19-1.83,5.5-1.83,8.62v5.06c0,1.55,1.37,2.94,2.83,2.94c5.7,0,11.67-18.74,23.23-18.92
					c6.8-0.09,8,5.24,8,9.26c0,1.66-0.64,3.49-3.31,4.04C758.01,137.72,740.57,147.55,740.57,167.11z M775.27,140.11
					c2.49,0,3.31,1.57,3.31,5.7c0,5.7,0.09,9.09,0.09,14.87c0,5.97-2.48,10.47-7.43,10.47c-6.8,0-8.73-6.25-8.73-12.68
					C762.51,147.18,769.3,140.11,775.27,140.11z"/>
			</g>
		</g>
	</g>
	<g>
		<g transform="translate(297.866494, 68.523454)">
			<g>
				<path class="st0" d="M787.84,126.98c0,1.1,1.1,1.19,1.39,1.28c4.31,1.48,3.94,5.97,3.94,7.07v62.81c0,5.24-0.73,8.35-3.21,10.83
					h22.5c3.95,0,5.04-2.83,5.04-7.52v-28.46c0-1.28,1.01-0.64,1.66,0.36c4.97,7.82,10.47,9.46,15.25,9.46
					c16.53,0,25.99-14.41,25.99-32.22c0-16.53-7.91-34.8-25.99-34.8c-10.19,0-13.59,7.27-15.43,7.27c-0.64,0-1.1-0.1-1.48-0.92
					v-2.76c0-1.83-0.09-3.58-2.74-3.58c-5.42,0-22.23,8.64-25.9,10.01C788.67,125.88,787.84,126.07,787.84,126.98z M817.49,138.92
					c0-4.68,0.92-13.49,6.62-13.49c10.19,0,12.02,12.58,12.02,22.59c0,10.65-0.37,23.32-10.56,23.32c-7.34,0-8.09-9.46-8.09-14.5
					V138.92z"/>
			</g>
		</g>
	</g>
	<g>
		<g transform="translate(317.218743, 68.523454)">
			<g>
				<path class="st0" d="M842.39,126.98c0,1.1,1.1,1.19,1.39,1.28c4.31,1.48,3.94,5.97,3.94,7.07v62.81c0,5.24-0.73,8.35-3.21,10.83
					h22.5c3.95,0,5.04-2.83,5.04-7.52v-28.46c0-1.28,1.01-0.64,1.66,0.36c4.97,7.82,10.47,9.46,15.25,9.46
					c16.53,0,25.99-14.41,25.99-32.22c0-16.53-7.91-34.8-25.99-34.8c-10.19,0-13.59,7.27-15.43,7.27c-0.64,0-1.1-0.1-1.48-0.92
					v-2.76c0-1.83-0.09-3.58-2.74-3.58c-5.42,0-22.23,8.64-25.9,10.01C843.23,125.88,842.39,126.07,842.39,126.98z M872.05,138.92
					c0-4.68,0.92-13.49,6.62-13.49c10.19,0,12.02,12.58,12.02,22.59c0,10.65-0.37,23.32-10.56,23.32c-7.34,0-8.09-9.46-8.09-14.5
					V138.92z"/>
			</g>
		</g>
	</g>
	<g>
		<g transform="translate(336.570991, 68.523454)">
			<g>
				<path class="st0" d="M899.24,135.53c0,17.99,19.38,23.87,34.25,23.87c6.98,0,12.4-1.19,15.8-1.19c2.48,0,3.85,0.64,3.85,2.85
					c0,4.77-6.61,8.44-12.95,8.44c-16.8,0-26.17-12.13-31.67-12.13c-3.76,0-8.82,13.23-8.82,17.17c0,4.68,18.27,8.26,30.85,8.26
					c10.38,0,27.55-5.24,27.55-22.21c0-17.72-18.1-22.5-34.34-25.35c-7.71-1.37-13.87-3.21-13.87-7.71c0-4.59,4.13-6.34,7.35-6.34
					c11.47,0,20.29,18.1,32.49,18.1c3.31,0,8.55-6.34,8.55-12.49c0-5.33-13.32-11.02-29.48-11.02
					C914.95,115.78,899.24,120.19,899.24,135.53z"/>
			</g>
		</g>
	</g>
	<g>
		<g transform="translate(352.749966, 68.523454)">
			<g>
				<path class="st0" d="M945.32,170.78c0,6.7,5.33,12.02,12.02,12.02c6.62,0,11.93-5.33,11.93-12.02c0-6.61-5.31-11.93-11.93-11.93
					C950.64,158.85,945.32,164.17,945.32,170.78z"/>
			</g>
		</g>
	</g>
</g>
</svg>
