<?xml version="1.0" encoding="utf-8"?>
<!-- Generator: Adobe Illustrator 26.5.1, SVG Export Plug-In . SVG Version: 6.00 Build 0)  -->
<svg version="1.1" id="Layer_1" xmlns="http://www.w3.org/2000/svg" xmlns:xlink="http://www.w3.org/1999/xlink" x="0px" y="0px"
	 viewBox="0 0 235 473.27" style="enable-background:new 0 0 235 473.27;" xml:space="preserve">
<style type="text/css">
	.st0{fill:#FFFFFF;}
	.st1{clip-path:url(#SVGID_00000142175231812564456640000010558517551754366594_);}
	.st2{clip-path:url(#SVGID_00000052807437469238491620000004236404220291782821_);}
	.st3{fill:none;}
</style>
<g>
	<g>
		<path class="st0" d="M155.6,243.81c-4.49,11.95-9.16,23.69-11.15,36.32c-1.42,9.33-2.25,18.72-2.5,28.17
			c-0.35,10.15-0.98,20.32-1.8,30.48c-0.9,11.2-2.02,22.4-3.17,33.59c-1.21,13.38-3.74,26.49-7.6,39.36
			c-1.23,3.92-2.7,7.75-4.3,11.57c-3.36,8.23-6.27,16.63-8.71,25.18c0,0.14,0.06,0.31,0.13,0.68c0.81-0.76,1.57-1.57,2.28-2.42
			c5.65-7.7,11-15.53,15.02-24.18c2.44-5.23,5-10.4,7.5-15.6c0.43-0.9,0.73-2.17,2-1.8c1.5,0.44,0.85,1.75,0.61,2.7
			c-2.27,8.99-4.55,17.99-6.86,26.97c-0.02,0.3-0.02,0.6,0,0.9c1.11-0.92,2-2.02,2.7-3.28c0.5-0.86,0.9-1.76,1.38-2.63
			c0.39-0.74,1.06-1.3,1.8-0.85c0.58,0.44,0.91,1.03,0.99,1.75c0,0.74-0.13,1.46-0.38,2.17c-1.84,8.33-3.79,16.65-5.5,25.01
			c-0.9,4.33-1.35,8.76-2,13.14c-0.12,0.76-0.31,1.51-0.46,2.26c-1.71-0.21-1.57-1.27-1.53-2.1c0.2-4.17,0.08-8.4,0.76-12.51
			c1.05-6.48,2.63-12.86,3.99-19.29c0.1-0.47,0.16-0.96,0.3-1.8c-1.71,1.14-2.57,2.6-3.74,3.78c-0.82,0.82-1.39,2.56-2.92,1.6
			c-1.34-0.91-0.39-2.29,0.1-3.36c2.7-5.82,3.65-12.1,5.39-18.16c0-0.15,0-0.32-0.14-1c-0.59,1.09-1.01,1.8-1.36,2.55
			c-3.96,8.53-8.79,16.52-14.48,24c-0.81,1.08-1.71,2.06-2.7,2.96c-2.42,2.1-4.3,4.6-5.65,7.49c-0.62,1.26-1.28,2.5-1.97,3.72
			c-0.2,0.52-0.54,0.93-1.01,1.22c-0.47,0.29-0.99,0.41-1.54,0.37c-0.12-0.5-0.16-1-0.13-1.51c0.28-1.37,0.65-2.71,1.12-4.02
			c1.03-2.71,1.62-5.51,1.81-8.39c0.62-7.6,1.36-15.21,2.05-22.8c0.05-0.38-0.03-0.73-0.22-1.05l-0.77,2.18
			c-2.27,6.91-5.18,13.54-8.77,19.86c-0.8,1.35-1.44,2.78-2.15,4.18c-0.35,0.69-0.82,1.51-1.64,1.12c-0.47-0.23-0.6-1.19-0.84-1.8
			c-0.03-0.24-0.03-0.48,0-0.73c0.16-1.47,0.24-2.94,0.25-4.42c-0.09-1.88-0.33-3.74-0.73-5.59c-0.2,2.53-0.33,5.09-0.6,7.62
			c-0.16,1.46-0.62,2.89-0.81,4.37c-0.21,1.68-0.32,3.39-0.33,5.08c0,1.21,0.25,2.42-0.65,3.73c-0.28-0.4-0.52-0.83-0.74-1.27
			c-1.39-3.86-2.64-7.79-4.18-11.6c-3.04-7.45-5.24-15.2-8.56-22.55c-0.23-0.66-0.62-1.18-1.19-1.57c0.38,1.99,0.66,4,0.83,6.01
			c0.16,4.01,0.15,8.02,0.13,12.04c-0.17,0.74-0.45,1.42-0.83,2.06c-1.99-2.3-1.69-5.13-3.43-7.29c0.56,4.04,1.15,7.89,1.62,11.74
			c0.2,1.62,0.27,3.26,0.21,4.91c-0.06,0.65-0.36,1.15-0.9,1.51c-0.78,0.37-1.2-0.39-1.41-1.01c-2.62-7.54-7.2-14.09-10.8-21.13
			c-1.36-2.64-2.55-5.4-3.8-8.05c-0.39-0.93-0.91-1.79-1.54-2.57c0.14,0.74,0.25,1.47,0.43,2.2c1.8,7.26,3.55,14.53,5.39,21.77
			c1.65,6.31,4.47,12.05,8.47,17.21c1.16,1.53,2.95,2.64,4.49,3.92c0.59,0.5,1.24,0.9,1.94,1.42c-0.28,0.37-0.63,0.59-1.08,0.65
			c-0.46,0.06-0.86-0.06-1.22-0.35c-1.75-1.26-3.78-2.35-5.09-3.96c-4.15-4.94-7.16-10.52-8.99-16.71
			c-1.98-7.04-3.79-14.13-5.48-21.24c-2.07-8.64-4.63-17.13-7.65-25.5c-0.17-0.46-0.32-0.93-0.45-1.41
			c-0.16-0.73-0.31-1.64,0.68-1.8c0.43-0.07,1.06,0.55,1.46,0.99c0.29,0.4,0.5,0.84,0.65,1.33c3.21,7.49,6.52,14.94,9.61,22.48
			c2.14,5.28,4.64,10.37,7.51,15.29c1.68,2.85,3.3,5.71,5.16,9c0.28-1.21,0.28-2.41,0-3.61c-0.66-4.12-1.39-8.24-2.06-12.37
			c-0.17-1.03-0.22-2.07-0.31-3.01c1.27-0.68,1.59,0.1,1.88,0.76c1.07,2.41,2.09,4.84,3.12,7.26c0.21,0.5,0.47,0.97,0.9,1.87
			c0.53-3.76,0.32-7.49-0.59-11.18c-1.8-7.5-3.91-14.94-5.9-22.41c-0.16-0.62-0.4-1.24-0.61-1.87c-0.31-0.9-0.16-1.69,0.82-2.03
			c0.98-0.32,1.5,0.5,1.8,1.27c0.22,0.53,0.35,1.09,0.55,1.64c3,7.83,6.03,15.66,9.09,23.48c0.17,0.27,0.37,0.52,0.58,0.75
			c0-1.18,0.07-2.02,0-2.83c-0.4-6.48-0.48-12.95-0.24-19.44c0.16-6.56-0.24-13.12-0.33-19.69c-0.08-5.32-0.08-10.65-0.05-15.98
			c0.02-7.39,0.43-14.76,1.22-22.1c1.07-9.7,1.94-19.44,2.7-29.16c0.31-3.92,0.35-7.88,0.3-11.81c-0.12-7.64-0.32-15.27-0.61-22.89
			c-0.33-8.53-0.9-17.09-1.23-25.58c-0.31-5.67-0.1-11.31,0.65-16.95c0.25-2.45,0.28-4.91,0.05-7.36
			c-0.36-6.54-1.14-13.1-1.15-19.65c0-6.22,0.67-12.46,1.07-18.68c0.62-9.74,1.38-19.47,1.89-29.23c0.46-9.1,0.9-18.22,0.9-27.32
			c0.05-6.72-0.47-13.43-0.73-20.03c-0.38-0.17-0.54-0.33-0.67-0.31c-3.91,0.51-7.49-0.55-11.06-1.92
			c-2.41-1.01-4.89-1.28-7.44-0.77c-1.26,0.12-2.48-0.08-3.65-0.56c-1.19-0.43-2.32-0.97-3.4-1.62c-1.66-0.98-3.43-1.37-5.35-1.15
			c-3.74,0.43-6.21-1.57-8.38-4.14c-0.74-0.91-1.45-1.75-2.3-2.77c1.07-0.71,1.89-0.37,2.78,0.43c1.09,1.01,2.24,1.96,3.42,2.86
			c1.89,1.38,4.14,1.31,6.3,1.2c0.47-0.13,0.88-0.37,1.21-0.74c0.76-0.65,1.39-1.45,2.2-2.02c5.14-3.59,9.14-8.31,12.97-13.1
			c2.42-3.03,4.32-6.44,6.46-9.68c0.5-0.83,1.13-1.54,1.9-2.12c-4.22,11.5-10.85,21.28-22.01,28.08c2.04,1.47,4.22,2.67,6.56,3.59
			c0.66,0.2,1.31,0.22,1.98,0.08c2.82-0.33,5.54,0.05,8.15,1.16c2.3,0.82,4.63,1.47,7.02,1.98c1.05,0.12,2.11,0.12,3.16,0
			c1.34-13.33,3.41-26.49,0.63-40.06c-3.43,1.06-6.71,1.57-8.61,4.86c-2.87,4.94-7.2,8.68-11.69,12.18
			c-0.93,0.7-1.95,1.22-3.04,1.59c4.49-4.62,8.71-9.32,12.78-14.39c-1.81-0.44-2.48,0.59-3.13,1.5c-3.2,4.55-7.95,7.29-12.78,9.84
			c-1.15,0.54-2.35,0.94-3.59,1.21c-0.41,0.01-0.75-0.14-0.99-0.48c-0.09-0.4,0.01-0.75,0.3-1.04c0.56-0.39,1.16-0.7,1.8-0.96
			c4.65-2.36,8.91-5.31,12.74-8.85c0.28-0.32,0.54-0.66,0.78-1.01c-3.1-0.35-5.9-0.78-8.72-0.9c-2.29-0.13-4.32,0.54-6.08,2.02
			c-3.92,3.16-8.38,2.39-12.8,1.52c-0.48-0.09-0.84-0.78-1.26-1.21l0.22-0.58c0.9,0,1.8,0,2.63,0c1.43,0.08,2.87,0.27,4.3,0.35
			c2.17,0.21,4.12-0.35,5.86-1.65c3.48-2.7,7.57-2.39,11.65-1.98c2.17,0.36,4.34,0.47,6.53,0.33c2.43-0.33,4.77-1.03,7.01-2.06
			c4.23-1.92,8.42-2.7,12.99-1.33c3.13,1.03,6.28,1.09,9.46,0.2c2.51-0.67,4.86-0.29,7.05,1.13c2.13,1.27,4.44,1.98,6.91,2.17
			c2.57,0.14,4.97,0.86,7.19,2.18c0.51,0.31,1.04,0.54,1.61,0.69c3.05,0.7,5.82,2.03,8.3,3.96c0.73,0.41,1.49,0.75,2.29,0.99
			c0.45,0.28,0.89,0.58,1.3,0.91c-0.86,0.69-1.8,0.8-2.79,0.31c-1.39-0.6-2.71-1.31-3.96-2.17c-1.3-1.07-2.8-1.67-4.49-1.8
			c1.33,3.4,3.02,6.6,5.09,9.61c1.87,2.94,3.99,5.73,5.8,8.81c-0.46-0.25-0.89-0.55-1.29-0.9c-4.85-5.2-9.23-10.68-11.53-17.48
			c-0.18-0.54-0.51-0.98-0.98-1.3c-1.81-1.04-3.61-2.1-5.82-2.24c-3.27-0.1-6.29-1.04-9.06-2.81c-1.31,5.09-1.09,10.12,0.65,15.08
			c1.72,5.63,4.17,10.93,7.36,15.89c1.34,1.98,3.01,3.73,4.49,5.59c0.36,0.43,0.73,0.84,1.13,1.3c-1.09,0.61-1.59-0.16-2.11-0.56
			c-2.75-2.33-5.08-5.02-6.97-8.09c-2.25-3.66-4.06-7.52-5.46-11.57c-0.16-0.46-0.36-0.9-0.56-1.42c-0.75,2.22-0.69,4.62,0.53,9.25
			c0.78,2.97,1.8,5.89,2.83,9.16c-2.2-2.3-2.8-5.13-3.88-7.7l-0.48,0.1c-0.09,3.91-0.23,7.81-0.25,11.69c0,2.02,1.42,3.12,3.43,2.7
			c0.75-0.15,1.46-0.4,2.13-0.76c1.23-0.6,2.53-0.91,3.91-0.93c1.37-0.02,2.68,0.25,3.93,0.82c0.15,0.06,0.3,0.14,0.45,0.22
			c2.7,1.53,5.25,1.8,8.02,0.06c1.61-0.98,3.33-1.22,5.15-0.74c4.71,1.11,8.85,0,12.79-3.02c-5.91-2.37-10.5-6.36-14.38-11.12
			c-6.98-8.62-9.3-12.67-9.15-15.81c0.46,0.37,0.9,0.77,1.28,1.22c2.71,3.95,5.25,8.03,8.1,11.88c3.77,5.21,8.41,9.45,13.94,12.71
			c0.4,0.25,0.82,0.44,1.26,0.59c0.45,0.15,0.9,0.24,1.36,0.29c0.46,0.03,0.92,0.03,1.38-0.03c0.46-0.06,0.91-0.17,1.35-0.35
			c0.44-0.16,0.84-0.38,1.23-0.63c0.38-0.27,0.74-0.56,1.05-0.9c0.31-0.35,0.59-0.71,0.82-1.12c0.23-0.4,0.41-0.83,0.55-1.28
			c0.21-0.88,0.53-1.73,0.96-2.53c2.74-4.95,2.28-9.82-0.59-14.51c-1.94-3.16-4.15-6.16-6.22-9.25c-0.44-0.59-0.66-1.26-0.65-1.99
			c0.48,0.12,0.94,0.3,1.38,0.54c2.18,1.59,4,3.51,5.46,5.77c1.46,2.26,2.49,4.7,3.05,7.34c0.35,1.44,0.68,2.88,1.13,4.29
			c0.81,2.75,0.51,5.38-0.9,7.88c-0.88,1.75-1.86,3.46-2.93,5.1c-0.48,0.86-1.15,1.53-2,2.02c-0.85,0.5-1.77,0.71-2.77,0.68
			c-2.18-0.01-4.11,0.66-5.83,1.99c-2.47,1.83-5.22,2.68-8.27,2.58c-1.11-0.08-2.21,0-3.3-0.12c-1.81-0.2-3.53,0.13-5.15,0.96
			c-1.22,0.74-2.55,1.11-3.98,1.11c-1.42,0-2.74-0.37-3.98-1.11c-1.26-0.85-2.65-1.27-4.17-1.22c-1.53,0.05-2.89,0.53-4.1,1.45
			c-1.8,1.23-3.61,1.07-5.85,0.12c-0.45,25.52-0.91,50.74-1.31,76.05c2.11,0.36,3.48-0.7,4.95-1.37c5.74-2.57,11.38-5.39,17.24-7.7
			c8.87-3.46,18.07-5.43,27.57-5.91c2.63-0.21,5.17,0.17,7.63,1.14c2.45,0.96,4.57,2.41,6.37,4.33
			c5.88,5.95,10.63,12.67,14.28,20.19c1.51,3.03,3.45,5.86,4.84,8.93c2.39,5.27,3.39,10.78,3.04,16.56
			c-0.15,1.98-1.08,3.48-2.8,4.49c-2.45,1.66-5.15,2.37-8.1,2.14l-4.04-0.24c-2.63-0.25-5.02,0.38-7.19,1.89
			c-0.91,0.74-1.94,1.16-3.1,1.28c-1.15,0.12-2.25-0.09-3.28-0.63c-0.46-0.21-0.99-0.29-1.42-0.51c-1.2-0.6-2.41-0.63-3.64-0.1
			C160.11,243.39,158.04,244.49,155.6,243.81z M115.65,438.17h0.48c0.22-0.52,0.43-1.05,0.65-1.57c2.2-5.4,4.4-10.84,6.63-16.25
			c1.15-2.8,2.7-5.51,3.51-8.4c2.3-8.24,3.96-16.6,4.98-25.11c1.22-9.28,2.12-18.6,3.21-27.87c1.98-17.09,3.36-34.17,3.8-51.31
			c0.1-7.24,0.74-14.44,1.88-21.58c1.76-11.16,4.68-22.02,8.73-32.57c2.65-6.49,4.67-13.17,6.04-20.05
			c1.12-6.42,2.92-12.64,5.39-18.67c0.07-0.28,0.1-0.55,0.09-0.83c-5.14-1.77-10.42-3-15.82-3.66c-0.18,1.14-0.41,2.17-0.53,3.2
			c-0.73,7.6-1.96,15.14-3.69,22.58c-1.07,4.55-1.36,9.25-3.05,13.69c-0.78,1.99-1.44,4.02-1.96,6.1
			c-2.8,11.45-4.33,23.07-4.6,34.84c-0.08,6.15-0.17,12.32-0.39,18.47c-0.4,13.91-2.14,27.65-5.22,41.23
			c-2.13,9.21-4.11,18.44-8.1,27.13c-0.61,1.53-1.13,3.09-1.58,4.67c-1.86,5.7-3.77,11.4-5.54,17.09c-0.61,2.2-1.12,4.42-1.51,6.68
			c-0.29,1.43-0.44,2.88-0.67,4.32c-0.1,0.61,0,1.41-1.27,1.22c-0.1-0.62-0.18-1.24-0.24-1.88c-0.28-9.18-0.59-18.37-0.8-27.56
			c-0.22-14.62,0.53-29.21,2.24-43.74c0.5-4.4,0.73-8.83,0.69-13.26c-0.09-10.08-1.07-20.15-0.96-30.25c0.16-13.87,0-27.76,0-41.63
			c0-8.99,0.54-17.92-0.56-26.81c-0.78-6.04-1.08-12.1-0.9-18.18c0.08-1.97,0.29-3.94,0.32-5.91c0.38-15.5,0.73-31.01,1.07-46.53
			c0.15-7.13,0.12-14.29,0.33-21.43c0.36-11.48,0.81-22.96,1.3-34.44c0.16-3.94,0.51-7.86,0.84-11.79
			c0.29-3.34,0.67-6.67,1.04-10.36c-1.19-0.01-2.36,0.07-3.54,0.27c-2.32,0.62-4.65,0.7-7.01,0.24c-2.03-0.39-4.08-0.67-6.38-1.03
			c0.54,1.83,0.97,3.68,1.29,5.55c0.8,7.2,0.68,14.4-0.35,21.58c-1.23,7.72-1.59,15.49-1.06,23.29c0.41,5.57,0.44,11.15,0.47,16.73
			c0,3.59-0.32,7.2-0.33,10.84c-0.05,15.2-1.49,30.31-3,45.43c-0.81,7.78-1.04,15.58-0.68,23.39c0.3,6.15,0.22,12.31,0.28,18.47
			c0,2.2-0.15,4.41-0.06,6.61c0.17,4.6,0.53,9.18,0.71,13.77c0.41,9.84,0.78,19.68,1.13,29.53c0.13,3.35,0.08,6.73,0.25,10.09
			c0.54,12.25,0,24.46-1.6,36.62c-1.58,12.47-2.45,24.99-2.6,37.55c0,3.94,0.17,7.87,0.3,11.8c0.14,4.76,0.39,9.52,0.45,14.29
			c0.09,8.09,0,16.23,0.07,24.36c-0.07,6.65,1.07,13.08,3.41,19.3c0.66,1.67,1.16,3.39,1.74,5.07c0.56-1.05,0.88-2.17,0.92-3.36
			c0.12-5.66,0.15-11.31,0.22-16.97c0-1.39,0-2.8,0.13-4.17c0.12-0.98-0.08-2.44,1.45-2.47c1.39,0,1.28,1.36,1.41,2.27
			c0.82,5.76,1.57,11.53,2.35,17.31c0.08,0.48,0.2,0.97,0.39,1.8c0.51-0.8,0.8-1.19,1.03-1.61c3.5-6.75,6.64-13.64,8.25-21.1
			c0.66-2.96,1.33-5.93,2.07-8.87c0.29-1.21,0.73-2.35,1.33-3.45c0.4-0.63,0.98-0.97,1.73-1c0.53,0.09,1.11,0.9,1.3,1.54
			c0.16,0.81,0.18,1.62,0.07,2.44c-0.6,7.04-1.19,14.07-1.75,21.11L115.65,438.17z M109.48,397.85l0.35,0.1
			c0.78-2.65,1.71-5.28,2.34-7.97c1.56-6.72,3.33-13.38,6.29-19.7c0.58-1.28,1.03-2.6,1.33-3.98c1.57-6.8,3.3-13.57,4.55-20.43
			c3.04-16.52,4.11-33.21,4.17-49.98c-0.07-4.68,0.14-9.36,0.62-14.01c1.52-12.39,3.68-24.67,7.85-36.54
			c0.53-1.88,0.91-3.79,1.18-5.73c-1.54-1.07-3.02-2.21-4.42-3.42c-1.39-1.3-3.02-2.07-4.9-2.33c-1.92-0.25-3.8-0.73-5.61-1.41
			c-3.3-1.39-5.84-3.61-6.53-7.26c-0.18-1.5-0.93-2.63-2.25-3.36c-1.46-0.84-3-1.61-4.71-2.52c0.1,0.9,0.15,1.45,0.23,2
			c0.89,7.02,1.22,14.07,1.03,21.14c-0.38,17.23-1.01,34.45-1.19,51.69c-0.08,8.51,0.62,17.04,0.99,25.57
			c0.15,3.59,0.61,7.19,0.47,10.78c-0.21,5.16-0.9,10.3-1.24,15.46c-0.53,8.42-1.23,16.86-1.3,25.3c-0.1,8.87,0.47,17.73,0.76,26.58
			H109.48z M172.68,216.07c0.61,5.71,2.6,10.78,4.39,15.91c-3.28-5.01-5.48-10.46-6.6-16.35l-5.74-1.03
			c0.36,1.88,0.65,3.32,0.9,4.76c0.25,1.45,0.59,2.9,0.81,4.36s1.12,2.7,0.43,4.65c-2.71-3.59-3.08-7.55-4.26-11.53
			c-3.61,8.09-4.79,16.41-6.41,25.05c1.01-0.09,2.03-0.27,3.02-0.5c2.83-0.9,5.67-1.59,8.63-0.55c0.4,0.16,0.81,0.23,1.23,0.22
			c0.75,0.03,1.45-0.1,2.13-0.43c3.16-2.37,6.77-2.7,10.57-2.42c1.56,0.12,3.12,0,4.99,0c-0.38-0.81-0.81-1.59-1.28-2.35
			c-1.89-2.86-3.15-5.96-3.78-9.32c-0.22-0.97-0.65-2.03,0.3-3.26c0.44,0.38,0.82,0.82,1.13,1.33c0.39,0.98,0.61,2.04,0.94,3.04
			c1.15,3.5,2.33,6.99,3.47,10.45c4.3-1,5.5-2.15,5.83-6c0.35-3.85-0.68-7.19-4.04-9.75c-2.41-1.69-5-3.03-7.78-4.01
			C178.7,217.14,175.74,216.38,172.68,216.07z M136.01,208.44h-9.84c-3.53,0-7.06,0.06-10.59-0.12c-2.04-0.23-4.06-0.58-6.05-1.05
			c0,2.12-0.1,4.17,0,6.2c0.13,1.13,0.43,2.22,0.9,3.26c0.99,2.48,3.69,2.82,5.81,4.39c1.06-1.15,2.04-2.17,2.97-3.23
			c0.92-1.06,1.72-2.03,2.52-3.08c0.81-1.04,1.54-2.09,2.32-3.12l0.58,0.3c-0.61,1.8-0.9,3.69-1.89,5.23
			c-1.51,2.15-3.15,4.21-4.9,6.15c0.09,2.03,0.84,3.77,2.25,5.23c1.38,1.54,3.09,2.51,5.12,2.9c1.42,0.24,2.78,0.66,4.19,0.91
			c2.06,0.25,3.84,1.11,5.32,2.57c1.08,0.97,2.22,1.87,3.41,2.7c0.17-0.4,0.33-0.83,0.46-1.26c1.09-5.2,3-10.21,3.16-15.64
			c0.1-3.59,0.9-7.19,1.46-11.04l-5.15-1.05c-0.78,1.67-1.53,3.13-2.15,4.65c-1.41,3.46-3.89,6.11-6.69,8.51
			c-0.53,0.46-1.07,1.09-1.99,0.6C130.1,217.88,132.96,213.31,136.01,208.44z M179.37,206.73c0.07-0.43,0.09-0.84,0.07-1.27
			c-1.62-4.09-3.61-7.93-7.2-10.78c-1.12-1-2.14-2.09-3.09-3.25c-0.73-0.8-1.35-1.69-2.1-2.47c-0.61-0.66-1.35-1.13-2.2-1.41
			c-0.86-0.28-1.73-0.33-2.62-0.15c1.35,0.81,2.6,1.74,3.77,2.79c2.29,2.52,4.39,5.2,6.49,7.88c1.88,2.41,3.59,4.92,5.47,7.37
			C178.4,205.92,178.88,206.34,179.37,206.73z M183.31,213.21c0.43-1.64-0.65-2.66-1.23-3.8c-0.09-0.17-0.76-0.17-1.09-0.07
			c-0.25,0.21-0.36,0.46-0.31,0.78C181.31,211.29,181.7,212.63,183.31,213.21z M184.6,214.71c-0.56,1.08-0.36,1.58,0.98,1.44
			L184.6,214.71z"/>
	</g>
	<g>
		<path class="st0" d="M148.09,78.55c-0.62-0.16-1.22-0.37-1.8-0.63c-5.83-3.25-12.29-4.55-18.8-5.46
			c-11.53-1.6-23.1-3.01-34.79-2.7c-6.42,0.15-12.85,0.27-19.22,0.84c-7.37,0.69-14.38,2.68-21.02,5.96
			c-2.94,1.42-5.99,2.6-8.63,4.59c-2.48,1.88-4.39,4.01-5.21,7.04c-0.68,2.49,0.12,4.56,2.17,6.29c2.3,1.96,4.72,1.68,7.29,0.9
			c0.7-0.31,1.45-0.45,2.22-0.39l-5.1,2.95c0.17,1.27,0.33,2.51,0.56,4.25c-0.71-0.47-1.11-0.59-1.16-0.8
			c-0.56-2.1-2.13-3.3-3.95-4.24c-1.64-0.92-2.89-2.21-3.77-3.87c-0.9-1.39-1.14-2.89-0.76-4.49c0.69-2.81,1.73-5.5,3.95-7.57
			c4.39-4.08,8.62-8.34,13.22-12.19c12.17-10.1,25.84-17.39,41.03-21.83c5.14-1.49,10.31-1.58,15.51-0.28
			c3.19,0.71,6.34,1.65,9.43,2.78c2.96,1.11,5.24,3.24,7.29,5.58c3.13,3.55,6.18,7.19,9.46,10.59c3.8,3.93,7.83,7.67,11.75,11.51
			c0.22,0.23,0.43,0.46,0.61,0.7L148.09,78.55z M100.28,50.18c0.37,0.18,0.75,0.33,1.15,0.45c4.65,0.52,9.14,1.71,13.43,3.56
			s8.24,4.31,11.8,7.35c0.43,0.21,0.86,0.37,1.31,0.46c-0.71-0.77-1.37-1.59-1.97-2.47c-1.61-2.65-3.87-4.54-6.75-5.67
			c-2.88-1.21-5.83-2.2-8.78-3.19c-1.84-0.59-3.71-1.06-5.61-1.39C103.39,49.01,101.78,48.69,100.28,50.18z M130.24,64.17
			l-0.52,0.66c0.54,0.7,1.14,1.36,1.8,1.96c0.25,0.22,0.84,0.07,1.29,0.09c0-0.45,0.13-1.11-0.12-1.3
			C131.91,65.05,131.09,64.58,130.24,64.17z"/>
	</g>
	<path class="st0" d="M152.78,341.65c2.32-0.82,4.3-1.36,6.13-2.24c1.86-0.93,3.21-2.35,4.08-4.24c0.9-1.8,1.58-3.73,2.51-6
		c0.29,0.47,0.51,0.98,0.66,1.51c0.13,1.54,0,3.13,0.25,4.65c0.25,1.61,0.71,3.18,1.36,4.69c0.52,1.26,1.33,2.28,2.43,3.09
		c1.09,0.8,2.33,1.24,3.68,1.35c-7.19,2.57-10.1,8.17-11.82,15.15c-0.33-0.68-0.69-1.06-0.65-1.37c1.19-6.83-1.94-11.69-7.4-15.51
		C153.68,342.5,153.42,342.2,152.78,341.65z"/>
	<path class="st0" d="M52.88,143.16c1.09,0.63,0.7,1.54,0.84,2.29c0.28,2.27,0.73,4.51,1.36,6.72c1.04,2.89,2.96,5.16,6.51,5.39
		c0.1,0,0.18,0.22,0.39,0.48c-6.98,2.7-9.46,8.51-10.9,15.61c-0.35-0.9-0.67-1.29-0.62-1.66c0.7-6.56-2.47-11.14-7.78-14.67
		c-0.52-0.35-1-0.74-1.8-1.29c2.04-0.73,4.02-1.57,5.97-2.51c1.87-1.08,3.19-2.64,3.99-4.65C51.63,147.02,52.19,145.1,52.88,143.16z
		"/>
	<path class="st0" d="M141.94,115.72c-7.34-1.49-20.96-21.58-21.97-32.02c1.46,0.5,1.68,1.8,2.12,2.88
		c2.64,6.81,6.14,13.15,10.51,19.01c2.39,3.13,5.39,5.86,8.09,8.78C141,114.77,141.37,115.13,141.94,115.72z"/>
	<path class="st0" d="M74.29,111.16c-0.06-0.32-0.15-0.53-0.09-0.61c5.9-7.2,10.19-15.38,14.74-23.39c0.4-0.69,0.52-2.07,1.8-1.58
		c1.08,0.43,0.29,1.47,0.1,2.17c-0.32,1.11-0.74,2.18-1.26,3.2c-3.23,6.82-7.83,12.79-12.74,18.48
		C76.19,110.19,75.55,111.08,74.29,111.16z"/>
	<path class="st0" d="M134.54,147.8c0.46-0.02,0.91,0.03,1.35,0.2s0.82,0.4,1.15,0.73c0.33,0.31,0.59,0.69,0.77,1.12
		c0.17,0.43,0.25,0.88,0.25,1.34c-0.01,0.44-0.1,0.86-0.26,1.27c-0.17,0.4-0.41,0.77-0.73,1.08s-0.67,0.55-1.07,0.73
		c-0.4,0.17-0.83,0.27-1.27,0.28c-0.45,0.01-0.88-0.06-1.3-0.22c-0.41-0.16-0.78-0.39-1.11-0.7c-0.32-0.3-0.58-0.66-0.76-1.07
		c-0.18-0.4-0.28-0.83-0.29-1.28c-0.01-0.44,0.06-0.88,0.22-1.29c0.16-0.41,0.39-0.78,0.69-1.12c0.31-0.32,0.67-0.58,1.07-0.76
		C133.67,147.91,134.1,147.81,134.54,147.8z"/>
	<path class="st0" d="M141.21,94.92c3.06,2.27,6.08,4.59,9.21,6.77c3.12,2.18,6.77,3.35,11.03,4.21
		C155.01,108.09,143.94,100.72,141.21,94.92z"/>
	<path class="st0" d="M52.25,92.8c0.63-0.59,1.31-1.14,2.02-1.66c2.7-1.8,5.5-3.48,8.25-5.21c1.29-0.98,2.74-1.58,4.34-1.8
		C65.88,87.79,56.86,93.43,52.25,92.8z"/>
	<path class="st0" d="M201.9,79.66c0.02,0.4-0.03,0.78-0.17,1.15c-0.15,0.37-0.35,0.7-0.62,0.99c-0.28,0.29-0.6,0.51-0.96,0.66
		c-0.37,0.16-0.75,0.23-1.14,0.23c-0.46,0.05-0.91-0.02-1.34-0.17c-0.44-0.15-0.82-0.39-1.15-0.71c-0.33-0.31-0.59-0.69-0.76-1.12
		c-0.17-0.43-0.25-0.86-0.24-1.33c0.02-0.82,0.32-1.51,0.9-2.09c0.58-0.56,1.28-0.86,2.09-0.88c0.91,0.02,1.68,0.35,2.34,0.98
		C201.48,78,201.84,78.76,201.9,79.66z"/>
	<path class="st0" d="M54.85,125.39c0,0.43-0.07,0.83-0.23,1.22c-0.16,0.38-0.39,0.73-0.68,1.03c-0.3,0.3-0.65,0.53-1.04,0.68
		c-0.39,0.16-0.8,0.24-1.21,0.23c-0.4,0.01-0.8-0.06-1.16-0.22c-0.37-0.15-0.69-0.38-0.97-0.67c-0.28-0.29-0.47-0.62-0.61-1
		c-0.14-0.38-0.18-0.77-0.16-1.16c0.02-0.43,0.13-0.82,0.31-1.2c0.18-0.38,0.43-0.71,0.74-1c0.31-0.28,0.67-0.5,1.06-0.63
		c0.39-0.15,0.81-0.22,1.22-0.2c0.38,0,0.74,0.08,1.08,0.23c0.35,0.15,0.66,0.37,0.91,0.65c0.25,0.28,0.45,0.6,0.58,0.96
		C54.82,124.65,54.88,125.01,54.85,125.39z"/>
	<path class="st0" d="M116.55,84.69l7.56,17.59C120.35,99.64,115.4,88.38,116.55,84.69z"/>
	<path class="st0" d="M77.63,304.28c0.43-0.02,0.82,0.05,1.21,0.18c0.39,0.15,0.74,0.36,1.05,0.65c0.3,0.29,0.53,0.62,0.7,1
		s0.25,0.78,0.27,1.2c-0.01,0.37-0.09,0.73-0.24,1.06c-0.15,0.35-0.37,0.63-0.63,0.9c-0.28,0.25-0.59,0.44-0.93,0.56
		c-0.35,0.13-0.7,0.18-1.08,0.17c-0.85-0.02-1.6-0.33-2.21-0.93c-0.62-0.6-0.97-1.33-1.03-2.18c0-0.38,0.07-0.74,0.22-1.08
		c0.15-0.33,0.37-0.63,0.65-0.89c0.28-0.24,0.6-0.43,0.96-0.54C76.91,304.27,77.26,304.23,77.63,304.28z"/>
	<path class="st0" d="M46.61,288.17c-1.8,0-2.94-1.05-2.95-2.65c-0.03-0.41,0.01-0.81,0.15-1.19c0.13-0.39,0.32-0.74,0.59-1.04
		c0.28-0.31,0.59-0.54,0.96-0.73c0.37-0.17,0.76-0.27,1.16-0.29c0.4-0.01,0.8,0.05,1.18,0.18c0.38,0.15,0.73,0.36,1.01,0.63
		c0.3,0.28,0.53,0.6,0.69,0.98c0.16,0.37,0.25,0.76,0.25,1.16c0,0.4-0.08,0.78-0.24,1.14c-0.15,0.37-0.38,0.69-0.67,0.97
		c-0.28,0.28-0.61,0.48-0.98,0.62C47.4,288.11,47.01,288.18,46.61,288.17z"/>
	<path class="st0" d="M91.84,89.97c0.46,0.17,0.78,0.5,0.96,0.97c0.18,0.46,0.16,0.91-0.06,1.36c-1.18,4.24-2.42,8.56-5.73,11.91
		C88.25,99.36,89.58,94.53,91.84,89.97z"/>
	<path class="st0" d="M172.24,381.06c-0.74-0.03-1.36-0.32-1.87-0.86c-0.5-0.55-0.74-1.2-0.7-1.94c0.09-0.73,0.4-1.34,0.93-1.83
		c0.54-0.5,1.18-0.75,1.91-0.78c0.69,0.03,1.28,0.31,1.75,0.82c0.47,0.52,0.69,1.13,0.67,1.83c-0.03,0.74-0.31,1.37-0.82,1.89
		C173.6,380.72,172.98,381.02,172.24,381.06z"/>
	<path class="st0" d="M173.98,286.01c-0.02-0.35,0.02-0.67,0.14-0.99c0.12-0.31,0.29-0.6,0.52-0.84c0.23-0.24,0.51-0.44,0.82-0.56
		c0.31-0.14,0.63-0.2,0.97-0.2c0.66,0.01,1.22,0.23,1.69,0.67c0.48,0.44,0.76,0.99,0.83,1.64c0.05,1.22-1.23,2.32-2.71,2.35
		c-0.29,0.05-0.58,0.02-0.86-0.06c-0.29-0.09-0.53-0.23-0.76-0.44c-0.22-0.2-0.38-0.44-0.5-0.71
		C174,286.58,173.96,286.29,173.98,286.01z"/>
	<path class="st0" d="M58.06,96.94c-1.76,3.45-4.51,5.2-7.97,6.87C51.25,101.1,55.67,97.27,58.06,96.94z"/>
	<g>
		<defs>
			<rect id="SVGID_1_" x="197.32" y="312.49" width="6.41" height="5.9"/>
		</defs>
		<use xlink:href="#SVGID_1_"  style="overflow:visible;fill:#FFFFFF;"/>
		<clipPath id="SVGID_00000105419339046536655490000005666073915582772923_">
			<use xlink:href="#SVGID_1_"  style="overflow:visible;"/>
		</clipPath>
		<g style="clip-path:url(#SVGID_00000105419339046536655490000005666073915582772923_);">
			<path class="st0" d="M199.29,314.94c-0.01-0.61,0.2-1.12,0.61-1.54c0.43-0.43,0.94-0.63,1.54-0.63c0.56,0,1.05,0.2,1.44,0.59
				c0.4,0.39,0.6,0.86,0.6,1.43c0,0.65-0.23,1.2-0.69,1.66c-0.46,0.45-1.01,0.67-1.66,0.67c-0.56-0.03-1.03-0.25-1.39-0.69
				C199.37,315.99,199.22,315.49,199.29,314.94z"/>
		</g>
	</g>
	<path class="st0" d="M154.76,94.74c-1.88,1.39-3.72,0.5-5.46,0.08c-1.26-0.31-2.87-0.4-3.21-2.18
		C147.48,92.47,153.09,93.84,154.76,94.74z"/>
	<path class="st0" d="M49.32,89.29c-2.14,1.14-4.37,2.06-6.96,1.72c-0.48-0.09-0.83-0.37-1.04-0.82c0.05-0.48,0.3-0.82,0.74-1.01
		c2.35-0.29,4.72-0.46,7.1-0.66L49.32,89.29z"/>
	<path class="st0" d="M157.93,51.74c1.04,1.89,1.13,7.19,0,9.32c-0.29-0.39-0.5-0.81-0.65-1.27
		C156.91,55.53,157.11,53.13,157.93,51.74z"/>
	<path class="st0" d="M153.92,87.96c-1.62,1.62-4.89,2-6.36,0.9c-0.29-0.21-0.58-0.83-0.46-1c0.32-0.33,0.7-0.58,1.14-0.74
		c0.13-0.06,0.33,0,0.5,0L153.92,87.96z"/>
	<path class="st0" d="M171.74,334.7c1.62-2.05,7.01-4.49,9.66-4.37C178.4,332.29,175.19,333.74,171.74,334.7z"/>
	<path class="st0" d="M63.01,312.37c-0.4,0.28-0.83,0.48-1.3,0.61c-3.35,0.28-6.16,0-7.19-0.52
		C56.14,311.72,61.29,311.61,63.01,312.37z"/>
	<path class="st0" d="M59.48,147.96c0.9-1.61,6.36-4.57,8.66-4.72C67.1,144.83,61.45,147.91,59.48,147.96z"/>
	<path class="st0" d="M170.01,352.55l5.93,7.09l-0.23,0.33c-0.35-0.08-0.81-0.06-1.03-0.27c-3.84-3.76-5.08-5.4-5.17-6.86
		L170.01,352.55z"/>
	<path class="st0" d="M58.1,166.38c0.36,0,0.8-0.08,0.9,0.08c2.03,2.09,4,4.21,6.35,6.71C63.19,172.65,58.75,168.3,58.1,166.38z"/>
	<path class="st0" d="M152.06,325.78c1.6,0.78,4.55,4.68,5.62,7.29c-0.97-0.17-1.03-0.13-3.23-3.15
		C153.55,328.68,152.07,327.66,152.06,325.78z"/>
	<path class="st0" d="M39.34,140.27c0.38,0.06,0.74,0,0.9,0.16c1.92,2.07,3.56,4.34,4.93,6.82
		C43.71,146.75,40.03,142.41,39.34,140.27z"/>
	<path class="st0" d="M51.95,325.3c-1.15-2.22-1.15-7.54-0.16-9.14C52.64,317.76,52.79,322.48,51.95,325.3z"/>
	<path class="st0" d="M51.9,301.04c0.58,2.86,0.78,5.73,0.6,8.63c0,0.2-0.4,0.38-0.67,0.61C50.98,308.51,50.91,303.38,51.9,301.04z"
		/>
	<path class="st0" d="M148.1,106.65c2.83,0.68,4.69,2.5,7.62,3.18c-1.47,0.37-2.92,0.25-4.33-0.33
		C149.98,108.91,148.88,107.97,148.1,106.65z"/>
	<path class="st0" d="M49.36,312.37c-2.37,0.74-4.77,0.84-7.2,0.33C43.71,311.76,46.74,311.57,49.36,312.37z"/>
	<g>
		<defs>
			<rect id="SVGID_00000104689487340797185560000012685622798330445184_" x="35.6" y="165.01" width="8.34" height="5.9"/>
		</defs>
		<use xlink:href="#SVGID_00000104689487340797185560000012685622798330445184_"  style="overflow:visible;fill:#FFFFFF;"/>
		<clipPath id="SVGID_00000038408619380128540990000013076077527635382965_">
			<use xlink:href="#SVGID_00000104689487340797185560000012685622798330445184_"  style="overflow:visible;"/>
		</clipPath>
		<g style="clip-path:url(#SVGID_00000038408619380128540990000013076077527635382965_);">
			<path class="st0" d="M42.74,165.19c-0.12,0.28-0.27,0.53-0.46,0.75c-1.97,1.61-3.98,3.19-6.15,4.92
				C36.6,169.33,40.03,166.22,42.74,165.19z"/>
		</g>
	</g>
	<path class="st0" d="M83.13,110.03c0.54-1.19,1-2.41,1.65-3.53c0.21-0.35,0.9-0.41,1.42-0.6c0.07,0.45,0.32,0.98,0.16,1.33
		c-0.52,1.41-1.42,2.48-2.7,3.24L83.13,110.03z"/>
	<path class="st0" d="M151.87,82.85c-1.3-0.08-2.49-1.21-2.27-2c0.21-0.52,0.59-0.86,1.13-1.01c0.9-0.16,2.12,0.98,1.97,1.8
		C152.6,82.16,152.07,82.56,151.87,82.85z"/>
	<path class="st0" d="M147.06,355.86c1.95-2.19,4.23-3.92,6.86-5.18C153.25,352.17,149.57,354.93,147.06,355.86z"/>
	<path class="st0" d="M124.94,104.82c1.69,0.51,2.57,1.49,3.8,4.14C126.39,108.39,125.55,106.84,124.94,104.82z"/>
	<path class="st0" d="M46.26,103.25c1.19-0.08,2.05,0,2.09,1.22c-0.09,0.39-0.35,0.65-0.74,0.76
		C46.45,105.24,46.1,104.52,46.26,103.25z"/>
	<path class="st0" d="M46.95,307.66l2.37,1.66C47.56,309.74,47.44,308.48,46.95,307.66z"/>
	<path class="st0" d="M51.73,311.79c0.3,0.5,0.66,0.84,0.6,1.09c-0.06,0.26-0.51,0.48-0.77,0.71c-0.23-0.28-0.63-0.55-0.65-0.84
		C50.9,312.47,51.33,312.23,51.73,311.79z"/>
	<path class="st0" d="M160.79,50.6l1.52,1.84C160.89,52.38,160.89,52.38,160.79,50.6z"/>
	<path class="st0" d="M54.63,314.97c0.47,0.58,0.94,1.18,1.41,1.8l-0.53,0.45l-1.54-1.67L54.63,314.97z"/>
	<path class="st0" d="M152.85,51.9l2.37-2.12C154.56,51.47,154.56,51.47,152.85,51.9z"/>
	<path class="st0" d="M54.51,309.04l1.59-1.38c0.06,0.41-0.03,0.78-0.27,1.13c-0.23,0.35-0.54,0.56-0.93,0.67L54.51,309.04z"/>
	<path class="st0" d="M49.11,315.01l-1.9,1.58c-0.02-0.46,0.09-0.88,0.37-1.26c0.27-0.37,0.62-0.62,1.07-0.74L49.11,315.01z"/>
	<path class="st0" d="M105.86,121.91c0.32,0.88,0.54,1.77,0.65,2.7c0,3.43-0.12,6.88-0.24,10.31c-0.15,4.84-0.32,9.67-0.52,14.51
		c-0.22,5.31-0.47,10.62-0.75,15.95c-0.33,6.38-0.77,12.77-1.03,19.15c-0.15,3.85,0,7.7,0,11.55c0,0.76,0,1.53,0,2.52
		c-0.43-0.12-0.77-0.35-1.03-0.71c-0.27-0.36-0.37-0.76-0.32-1.21c-0.22-2.2-0.5-4.4-0.54-6.61c-0.18-8.53,0.06-17.04,0.7-25.54
		c0.5-6.54,0.52-13.11,0.78-19.66c0.29-6.88,0.59-13.75,0.9-20.62c0.09-0.77,0.23-1.52,0.43-2.27L105.86,121.91z"/>
	<path class="st0" d="M91.73,408.24c-0.27-2.07-0.69-4.12-0.8-6.2c-0.62-11.31-0.38-22.61,0.73-33.87
		c0.44-4.23,0.31-8.51,0.46-12.77c0-1.01-0.15-2.13,0.9-2.9c1.35,0.8,1.21,2.07,1.26,3.12c0.14,3.68,0.31,7.37,0.12,11.05
		c-0.29,5.24-1.13,10.45-1.31,15.67c-0.28,7.7-0.17,15.4-0.25,23.11c0,0.9-0.13,1.86-0.21,2.78L91.73,408.24z"/>
	<path class="st0" d="M155.16,224.48c0.51,1.8,0,3.53-0.15,5.28c-0.62,6.18-2.78,11.96-4.98,17.71c-2.5,6.53-4.95,13.07-7.44,19.59
		c-0.43,1.09-0.9,2.17-1.44,3.28c-1.33-0.68-0.76-1.46-0.58-2.1c0.63-2.2,1.51-4.36,2.03-6.57c2.17-8.71,5-17.18,8.53-25.43
		c1.2-2.94,1.8-6.12,2.64-9.21c0.24-0.9,0.44-1.8,0.66-2.7L155.16,224.48z"/>
	<path class="st0" d="M94.17,411.95c-0.54,0.46-0.9,0.97-1.2,0.96c-0.45-0.1-0.75-0.37-0.9-0.81c0-0.29,0.47-0.84,0.81-0.9
		C93.21,411.13,93.57,411.6,94.17,411.95z"/>
	<path class="st0" d="M169.04,234.64c-1.81-0.62-2.82-1.92-2.44-2.9c0.22-0.44,0.56-0.71,1.05-0.83c0.48,0.01,0.86,0.23,1.13,0.65
		C168.93,232.58,169.02,233.6,169.04,234.64z"/>
	<path class="st0" d="M138.79,214.09c0.73,2.83-2.7,9.21-6.3,11.69C134,221.56,136.09,217.66,138.79,214.09z"/>
	<path class="st0" d="M130.67,227.93l1.13-0.84c0.21,0.29,0.65,0.73,0.56,0.84c-0.29,0.35-0.62,0.6-1.03,0.77
		C131.28,228.74,130.94,228.3,130.67,227.93z"/>
</g>
<rect class="st3" width="235" height="360"/>
</svg>
