<?xml version="1.0" encoding="utf-8"?>
<!-- Generator: Adobe Illustrator 27.0.0, SVG Export Plug-In . SVG Version: 6.00 Build 0)  -->
<svg version="1.1" id="Layer_1" xmlns="http://www.w3.org/2000/svg" xmlns:xlink="http://www.w3.org/1999/xlink" x="0px" y="0px"
	 viewBox="0 0 168.1 427.3" style="enable-background:new 0 0 168.1 427.3;" xml:space="preserve">
<style type="text/css">
	.st0{fill:#FFFFFF;}
	.st1{clip-path:url(#SVGID_00000047777585498600991770000013501682155666243736_);}
	.st2{clip-path:url(#SVGID_00000070803997522789429470000016439122145661576098_);}
</style>
<g>
	<g>
		<path class="st0" d="M120,197.8c-4.5,11.9-9.2,23.7-11.1,36.3c-1.4,9.3-2.2,18.7-2.5,28.2c-0.4,10.1-1,20.3-1.8,30.5
			c-0.9,11.2-2,22.4-3.2,33.6c-1.2,13.4-3.7,26.5-7.6,39.4c-1.2,3.9-2.7,7.8-4.3,11.6c-3.4,8.2-6.3,16.6-8.7,25.2
			c0,0.1,0.1,0.3,0.1,0.7c0.8-0.8,1.6-1.6,2.3-2.4c5.7-7.7,11-15.5,15-24.2c2.4-5.2,5-10.4,7.5-15.6c0.4-0.9,0.7-2.2,2-1.8
			c1.5,0.4,0.9,1.8,0.6,2.7c-2.3,9-4.6,18-6.9,27c0,0.3,0,0.6,0,0.9c1.1-0.9,2-2,2.7-3.3c0.5-0.9,0.9-1.8,1.4-2.6
			c0.4-0.7,1.1-1.3,1.8-0.9c0.6,0.4,0.9,1,1,1.8c0,0.7-0.1,1.5-0.4,2.2c-1.8,8.3-3.8,16.6-5.5,25c-0.9,4.3-1.4,8.8-2,13.1
			c-0.1,0.8-0.3,1.5-0.5,2.3c-1.7-0.2-1.6-1.3-1.5-2.1c0.2-4.2,0.1-8.4,0.8-12.5c1.1-6.5,2.6-12.9,4-19.3c0.1-0.5,0.2-1,0.3-1.8
			c-1.7,1.1-2.6,2.6-3.7,3.8c-0.8,0.8-1.4,2.6-2.9,1.6c-1.3-0.9-0.4-2.3,0.1-3.4c2.7-5.8,3.6-12.1,5.4-18.2c0-0.1,0-0.3-0.1-1
			c-0.6,1.1-1,1.8-1.4,2.5c-4,8.5-8.8,16.5-14.5,24c-0.8,1.1-1.7,2.1-2.7,3c-2.4,2.1-4.3,4.6-5.7,7.5c-0.6,1.3-1.3,2.5-2,3.7
			c-0.2,0.5-0.5,0.9-1,1.2s-1,0.4-1.5,0.4c-0.1-0.5-0.2-1-0.1-1.5c0.3-1.4,0.7-2.7,1.1-4c1-2.7,1.6-5.5,1.8-8.4
			c0.6-7.6,1.4-15.2,2.1-22.8c0.1-0.4,0-0.7-0.2-1l-0.8,2.2c-2.3,6.9-5.2,13.5-8.8,19.9c-0.8,1.4-1.4,2.8-2.2,4.2
			c-0.3,0.7-0.8,1.5-1.6,1.1c-0.5-0.2-0.6-1.2-0.8-1.8c0-0.2,0-0.5,0-0.7c0.2-1.5,0.2-2.9,0.2-4.4c-0.1-1.9-0.3-3.7-0.7-5.6
			c-0.2,2.5-0.3,5.1-0.6,7.6c-0.2,1.5-0.6,2.9-0.8,4.4c-0.2,1.7-0.3,3.4-0.3,5.1c0,1.2,0.2,2.4-0.7,3.7c-0.3-0.4-0.5-0.8-0.7-1.3
			c-1.4-3.9-2.6-7.8-4.2-11.6c-3-7.5-5.2-15.2-8.6-22.5c-0.2-0.7-0.6-1.2-1.2-1.6c0.4,2,0.7,4,0.8,6c0.2,4,0.2,8,0.1,12
			c-0.2,0.7-0.4,1.4-0.8,2.1c-2-2.3-1.7-5.1-3.4-7.3c0.6,4,1.2,7.9,1.6,11.7c0.2,1.6,0.3,3.3,0.2,4.9c-0.1,0.6-0.4,1.1-0.9,1.5
			c-0.8,0.4-1.2-0.4-1.4-1c-2.6-7.5-7.2-14.1-10.8-21.1c-1.4-2.6-2.6-5.4-3.8-8c-0.4-0.9-0.9-1.8-1.5-2.6c0.1,0.7,0.2,1.5,0.4,2.2
			c1.8,7.3,3.5,14.5,5.4,21.8c1.7,6.3,4.5,12,8.5,17.2c1.2,1.5,2.9,2.6,4.5,3.9c0.6,0.5,1.2,0.9,1.9,1.4c-0.3,0.4-0.6,0.6-1.1,0.6
			c-0.5,0.1-0.9-0.1-1.2-0.4c-1.8-1.3-3.8-2.4-5.1-4c-4.2-4.9-7.2-10.5-9-16.7c-2-7-3.8-14.1-5.5-21.2c-2.1-8.6-4.6-17.1-7.7-25.5
			c-0.2-0.5-0.3-0.9-0.5-1.4c-0.2-0.7-0.3-1.6,0.7-1.8c0.4-0.1,1.1,0.5,1.5,1c0.3,0.4,0.5,0.8,0.7,1.3c3.2,7.5,6.5,14.9,9.6,22.5
			c2.1,5.3,4.6,10.4,7.5,15.3c1.7,2.9,3.3,5.7,5.2,9c0.3-1.2,0.3-2.4,0-3.6c-0.7-4.1-1.4-8.2-2.1-12.4c-0.2-1-0.2-2.1-0.3-3
			c1.3-0.7,1.6,0.1,1.9,0.8c1.1,2.4,2.1,4.8,3.1,7.3c0.2,0.5,0.5,1,0.9,1.9c0.5-3.8,0.3-7.5-0.6-11.2c-1.8-7.5-3.9-14.9-5.9-22.4
			c-0.2-0.6-0.4-1.2-0.6-1.9c-0.3-0.9-0.2-1.7,0.8-2c1-0.3,1.5,0.5,1.8,1.3c0.2,0.5,0.3,1.1,0.6,1.6c3,7.8,6,15.7,9.1,23.5
			c0.2,0.3,0.4,0.5,0.6,0.8c0-1.2,0.1-2,0-2.8c-0.4-6.5-0.5-13-0.2-19.4c0.2-6.6-0.2-13.1-0.3-19.7c-0.1-5.3-0.1-10.6-0.1-16
			c0-7.4,0.4-14.8,1.2-22.1c1.1-9.7,1.9-19.4,2.7-29.2c0.3-3.9,0.3-7.9,0.3-11.8c-0.1-7.6-0.3-15.3-0.6-22.9
			c-0.3-8.5-0.9-17.1-1.2-25.6c-0.3-5.7-0.1-11.3,0.7-16.9c0.2-2.4,0.3-4.9,0.1-7.4c-0.4-6.5-1.1-13.1-1.2-19.6
			c0-6.2,0.7-12.5,1.1-18.7c0.6-9.7,1.4-19.5,1.9-29.2c0.5-9.1,0.9-18.2,0.9-27.3c0.1-6.7-0.5-13.4-0.7-20c-0.4-0.2-0.5-0.3-0.7-0.3
			c-3.9,0.5-7.5-0.6-11.1-1.9c-2.4-1-4.9-1.3-7.4-0.8c-1.3,0.1-2.5-0.1-3.7-0.6c-1.2-0.4-2.3-1-3.4-1.6c-1.7-1-3.4-1.4-5.3-1.2
			c-3.7,0.4-6.2-1.6-8.4-4.1c-0.7-0.9-1.5-1.8-2.3-2.8c1.1-0.7,1.9-0.4,2.8,0.4c1.1,1,2.2,2,3.4,2.9c1.9,1.4,4.1,1.3,6.3,1.2
			c0.5-0.1,0.9-0.4,1.2-0.7c0.8-0.7,1.4-1.4,2.2-2c5.1-3.6,9.1-8.3,13-13.1c2.4-3,4.3-6.4,6.5-9.7c0.5-0.8,1.1-1.5,1.9-2.1
			c-4.2,11.5-10.8,21.3-22,28.1c2,1.5,4.2,2.7,6.6,3.6c0.7,0.2,1.3,0.2,2,0.1c2.8-0.3,5.5,0.1,8.2,1.2c2.3,0.8,4.6,1.5,7,2
			c1.1,0.1,2.1,0.1,3.2,0c1.3-13.3,3.4-26.5,0.6-40.1c-3.4,1.1-6.7,1.6-8.6,4.9c-2.9,4.9-7.2,8.7-11.7,12.2c-0.9,0.7-1.9,1.2-3,1.6
			c4.5-4.6,8.7-9.3,12.8-14.4c-1.8-0.4-2.5,0.6-3.1,1.5c-3.2,4.6-7.9,7.3-12.8,9.8c-1.2,0.5-2.3,0.9-3.6,1.2c-0.4,0-0.8-0.1-1-0.5
			c-0.1-0.4,0-0.8,0.3-1c0.6-0.4,1.2-0.7,1.8-1c4.7-2.4,8.9-5.3,12.7-8.8c0.3-0.3,0.5-0.7,0.8-1c-3.1-0.3-5.9-0.8-8.7-0.9
			c-2.3-0.1-4.3,0.5-6.1,2c-3.9,3.2-8.4,2.4-12.8,1.5c-0.5-0.1-0.8-0.8-1.3-1.2l0.2-0.6c0.9,0,1.8,0,2.6,0c1.4,0.1,2.9,0.3,4.3,0.3
			c2.2,0.2,4.1-0.3,5.9-1.7c3.5-2.7,7.6-2.4,11.7-2c2.2,0.4,4.3,0.5,6.5,0.3c2.4-0.3,4.8-1,7-2.1c4.2-1.9,8.4-2.7,13-1.3
			c3.1,1,6.3,1.1,9.5,0.2c2.5-0.7,4.9-0.3,7.1,1.1c2.1,1.3,4.4,2,6.9,2.2c2.6,0.1,5,0.9,7.2,2.2c0.5,0.3,1,0.5,1.6,0.7
			c3.1,0.7,5.8,2,8.3,4c0.7,0.4,1.5,0.8,2.3,1c0.4,0.3,0.9,0.6,1.3,0.9c-0.9,0.7-1.8,0.8-2.8,0.3c-1.4-0.6-2.7-1.3-4-2.2
			c-1.3-1.1-2.8-1.7-4.5-1.8c1.3,3.4,3,6.6,5.1,9.6c1.9,2.9,4,5.7,5.8,8.8c-0.5-0.2-0.9-0.6-1.3-0.9C101,51.2,96.6,45.8,94.3,39
			c-0.2-0.5-0.5-1-1-1.3c-1.8-1-3.6-2.1-5.8-2.2c-3.3-0.1-6.3-1-9.1-2.8c-1.3,5.1-1.1,10.1,0.7,15.1c1.7,5.6,4.2,10.9,7.4,15.9
			c1.3,2,3,3.7,4.5,5.6c0.4,0.4,0.7,0.8,1.1,1.3c-1.1,0.6-1.6-0.2-2.1-0.6c-2.8-2.3-5.1-5-7-8.1c-2.2-3.7-4.1-7.5-5.5-11.6
			c-0.2-0.5-0.4-0.9-0.6-1.4c-0.8,2.2-0.7,4.6,0.5,9.2c0.8,3,1.8,5.9,2.8,9.2c-2.2-2.3-2.8-5.1-3.9-7.7L76,59.6
			c-0.1,3.9-0.2,7.8-0.2,11.7c0,2,1.4,3.1,3.4,2.7c0.8-0.2,1.5-0.4,2.1-0.8c1.2-0.6,2.5-0.9,3.9-0.9c1.4,0,2.7,0.2,3.9,0.8
			c0.2,0.1,0.3,0.1,0.4,0.2c2.7,1.5,5.2,1.8,8,0.1c1.6-1,3.3-1.2,5.1-0.7c4.7,1.1,8.9,0,12.8-3c-5.9-2.4-10.5-6.4-14.4-11.1
			c-7-8.6-9.3-12.7-9.2-15.8c0.5,0.4,0.9,0.8,1.3,1.2c2.7,3.9,5.2,8,8.1,11.9c3.8,5.2,8.4,9.4,13.9,12.7c0.4,0.2,0.8,0.4,1.3,0.6
			c0.4,0.2,0.9,0.2,1.4,0.3c0.5,0,0.9,0,1.4,0s0.9-0.2,1.4-0.3c0.4-0.2,0.8-0.4,1.2-0.6c0.4-0.3,0.7-0.6,1.1-0.9
			c0.3-0.3,0.6-0.7,0.8-1.1c0.2-0.4,0.4-0.8,0.6-1.3c0.2-0.9,0.5-1.7,1-2.5c2.7-4.9,2.3-9.8-0.6-14.5c-1.9-3.2-4.1-6.2-6.2-9.2
			c-0.4-0.6-0.7-1.3-0.6-2c0.5,0.1,0.9,0.3,1.4,0.5c2.2,1.6,4,3.5,5.5,5.8c1.5,2.3,2.5,4.7,3.1,7.3c0.3,1.4,0.7,2.9,1.1,4.3
			c0.8,2.8,0.5,5.4-0.9,7.9c-0.9,1.7-1.9,3.5-2.9,5.1c-0.5,0.9-1.1,1.5-2,2c-0.9,0.5-1.8,0.7-2.8,0.7c-2.2,0-4.1,0.7-5.8,2
			c-2.5,1.8-5.2,2.7-8.3,2.6c-1.1-0.1-2.2,0-3.3-0.1c-1.8-0.2-3.5,0.1-5.1,1c-1.2,0.7-2.6,1.1-4,1.1c-1.4,0-2.7-0.4-4-1.1
			c-1.3-0.8-2.7-1.3-4.2-1.2c-1.5,0.1-2.9,0.5-4.1,1.4c-1.8,1.2-3.6,1.1-5.8,0.1c-0.4,25.5-0.9,50.7-1.3,76.1
			c2.1,0.4,3.5-0.7,4.9-1.4c5.7-2.6,11.4-5.4,17.2-7.7c8.9-3.5,18.1-5.4,27.6-5.9c2.6-0.2,5.2,0.2,7.6,1.1c2.5,1,4.6,2.4,6.4,4.3
			c5.9,5.9,10.6,12.7,14.3,20.2c1.5,3,3.5,5.9,4.8,8.9c2.4,5.3,3.4,10.8,3,16.6c-0.1,2-1.1,3.5-2.8,4.5c-2.4,1.7-5.1,2.4-8.1,2.1
			l-4-0.2c-2.6-0.2-5,0.4-7.2,1.9c-0.9,0.7-1.9,1.2-3.1,1.3c-1.1,0.1-2.2-0.1-3.3-0.6c-0.5-0.2-1-0.3-1.4-0.5
			c-1.2-0.6-2.4-0.6-3.6-0.1C124.5,197.4,122.4,198.5,120,197.8z M80.1,392.2h0.5c0.2-0.5,0.4-1,0.7-1.6c2.2-5.4,4.4-10.8,6.6-16.2
			c1.2-2.8,2.7-5.5,3.5-8.4c2.3-8.2,4-16.6,5-25.1c1.2-9.3,2.1-18.6,3.2-27.9c2-17.1,3.4-34.2,3.8-51.3c0.1-7.2,0.7-14.4,1.9-21.6
			c1.8-11.2,4.7-22,8.7-32.6c2.6-6.5,4.7-13.2,6-20.1c1.1-6.4,2.9-12.6,5.4-18.7c0.1-0.3,0.1-0.6,0.1-0.8c-5.1-1.8-10.4-3-15.8-3.7
			c-0.2,1.1-0.4,2.2-0.5,3.2c-0.7,7.6-2,15.1-3.7,22.6c-1.1,4.6-1.4,9.2-3.1,13.7c-0.8,2-1.4,4-2,6.1c-2.8,11.4-4.3,23.1-4.6,34.8
			c-0.1,6.1-0.2,12.3-0.4,18.5c-0.4,13.9-2.1,27.6-5.2,41.2c-2.1,9.2-4.1,18.4-8.1,27.1c-0.6,1.5-1.1,3.1-1.6,4.7
			c-1.9,5.7-3.8,11.4-5.5,17.1c-0.6,2.2-1.1,4.4-1.5,6.7c-0.3,1.4-0.4,2.9-0.7,4.3c-0.1,0.6,0,1.4-1.3,1.2c-0.1-0.6-0.2-1.2-0.2-1.9
			c-0.3-9.2-0.6-18.4-0.8-27.6c-0.2-14.6,0.5-29.2,2.2-43.7c0.5-4.4,0.7-8.8,0.7-13.3c-0.1-10.1-1.1-20.1-1-30.2
			c0.2-13.9,0-27.8,0-41.6c0-9,0.5-17.9-0.6-26.8c-0.8-6-1.1-12.1-0.9-18.2c0.1-2,0.3-3.9,0.3-5.9c0.4-15.5,0.7-31,1.1-46.5
			c0.2-7.1,0.1-14.3,0.3-21.4c0.4-11.5,0.8-23,1.3-34.4c0.2-3.9,0.5-7.9,0.8-11.8c0.3-3.3,0.7-6.7,1-10.4c-1.2,0-2.4,0.1-3.5,0.3
			c-2.3,0.6-4.7,0.7-7,0.2c-2-0.4-4.1-0.7-6.4-1c0.5,1.8,1,3.7,1.3,5.6c0.8,7.2,0.7,14.4-0.3,21.6c-1.2,7.7-1.6,15.5-1.1,23.3
			c0.4,5.6,0.4,11.1,0.5,16.7c0,3.6-0.3,7.2-0.3,10.8c-0.1,15.2-1.5,30.3-3,45.4c-0.8,7.8-1,15.6-0.7,23.4
			c0.3,6.1,0.2,12.3,0.3,18.5c0,2.2-0.2,4.4-0.1,6.6c0.2,4.6,0.5,9.2,0.7,13.8c0.4,9.8,0.8,19.7,1.1,29.5c0.1,3.4,0.1,6.7,0.2,10.1
			c0.5,12.2,0,24.5-1.6,36.6c-1.6,12.5-2.4,25-2.6,37.5c0,3.9,0.2,7.9,0.3,11.8c0.1,4.8,0.4,9.5,0.4,14.3c0.1,8.1,0,16.2,0.1,24.4
			c-0.1,6.6,1.1,13.1,3.4,19.3c0.7,1.7,1.2,3.4,1.7,5.1c0.6-1,0.9-2.2,0.9-3.4c0.1-5.7,0.2-11.3,0.2-17c0-1.4,0-2.8,0.1-4.2
			c0.1-1-0.1-2.4,1.4-2.5c1.4,0,1.3,1.4,1.4,2.3c0.8,5.8,1.6,11.5,2.3,17.3c0.1,0.5,0.2,1,0.4,1.8c0.5-0.8,0.8-1.2,1-1.6
			c3.5-6.8,6.6-13.6,8.2-21.1c0.7-3,1.3-5.9,2.1-8.9c0.3-1.2,0.7-2.4,1.3-3.5c0.4-0.6,1-1,1.7-1c0.5,0.1,1.1,0.9,1.3,1.5
			c0.2,0.8,0.2,1.6,0.1,2.4c-0.6,7-1.2,14.1-1.8,21.1L80.1,392.2z M73.9,351.8l0.3,0.1c0.8-2.6,1.7-5.3,2.3-8
			c1.6-6.7,3.3-13.4,6.3-19.7c0.6-1.3,1-2.6,1.3-4c1.6-6.8,3.3-13.6,4.6-20.4c3-16.5,4.1-33.2,4.2-50c-0.1-4.7,0.1-9.4,0.6-14
			c1.5-12.4,3.7-24.7,7.9-36.5c0.5-1.9,0.9-3.8,1.2-5.7c-1.5-1.1-3-2.2-4.4-3.4c-1.4-1.3-3-2.1-4.9-2.3c-1.9-0.2-3.8-0.7-5.6-1.4
			c-3.3-1.4-5.8-3.6-6.5-7.3c-0.2-1.5-0.9-2.6-2.2-3.4c-1.5-0.8-3-1.6-4.7-2.5c0.1,0.9,0.2,1.4,0.2,2c0.9,7,1.2,14.1,1,21.1
			c-0.4,17.2-1,34.4-1.2,51.7c-0.1,8.5,0.6,17,1,25.6c0.2,3.6,0.6,7.2,0.5,10.8c-0.2,5.2-0.9,10.3-1.2,15.5
			c-0.5,8.4-1.2,16.9-1.3,25.3C73,334.1,73.6,343,73.9,351.8L73.9,351.8L73.9,351.8z M137.1,170.1c0.6,5.7,2.6,10.8,4.4,15.9
			c-3.3-5-5.5-10.5-6.6-16.4l-5.7-1c0.4,1.9,0.6,3.3,0.9,4.8c0.2,1.4,0.6,2.9,0.8,4.4s1.1,2.7,0.4,4.6c-2.7-3.6-3.1-7.6-4.3-11.5
			c-3.6,8.1-4.8,16.4-6.4,25.1c1-0.1,2-0.3,3-0.5c2.8-0.9,5.7-1.6,8.6-0.6c0.4,0.2,0.8,0.2,1.2,0.2c0.8,0,1.4-0.1,2.1-0.4
			c3.2-2.4,6.8-2.7,10.6-2.4c1.6,0.1,3.1,0,5,0c-0.4-0.8-0.8-1.6-1.3-2.4c-1.9-2.9-3.1-6-3.8-9.3c-0.2-1-0.6-2,0.3-3.3
			c0.4,0.4,0.8,0.8,1.1,1.3c0.4,1,0.6,2,0.9,3c1.1,3.5,2.3,7,3.5,10.4c4.3-1,5.5-2.1,5.8-6c0.4-3.9-0.7-7.2-4-9.8
			c-2.4-1.7-5-3-7.8-4C143.1,171.1,140.1,170.4,137.1,170.1z M100.4,162.4h-9.8c-3.5,0-7.1,0.1-10.6-0.1c-2-0.2-4.1-0.6-6.1-1.1
			c0,2.1-0.1,4.2,0,6.2c0.1,1.1,0.4,2.2,0.9,3.3c1,2.5,3.7,2.8,5.8,4.4c1.1-1.1,2-2.2,3-3.2c0.9-1.1,1.7-2,2.5-3.1
			c0.8-1,1.5-2.1,2.3-3.1L89,166c-0.6,1.8-0.9,3.7-1.9,5.2c-1.5,2.1-3.2,4.2-4.9,6.1c0.1,2,0.8,3.8,2.2,5.2c1.4,1.5,3.1,2.5,5.1,2.9
			c1.4,0.2,2.8,0.7,4.2,0.9c2.1,0.2,3.8,1.1,5.3,2.6c1.1,1,2.2,1.9,3.4,2.7c0.2-0.4,0.3-0.8,0.5-1.3c1.1-5.2,3-10.2,3.2-15.6
			c0.1-3.6,0.9-7.2,1.5-11l-5.1-1.1c-0.8,1.7-1.5,3.1-2.1,4.6c-1.4,3.5-3.9,6.1-6.7,8.5c-0.5,0.5-1.1,1.1-2,0.6
			C94.5,171.9,97.4,167.3,100.4,162.4z M143.8,160.7c0.1-0.4,0.1-0.8,0.1-1.3c-1.6-4.1-3.6-7.9-7.2-10.8c-1.1-1-2.1-2.1-3.1-3.2
			c-0.7-0.8-1.4-1.7-2.1-2.5c-0.6-0.7-1.4-1.1-2.2-1.4c-0.9-0.3-1.7-0.3-2.6-0.1c1.4,0.8,2.6,1.7,3.8,2.8c2.3,2.5,4.4,5.2,6.5,7.9
			c1.9,2.4,3.6,4.9,5.5,7.4C142.8,159.9,143.3,160.3,143.8,160.7z M147.7,167.2c0.4-1.6-0.6-2.7-1.2-3.8c-0.1-0.2-0.8-0.2-1.1-0.1
			c-0.2,0.2-0.4,0.5-0.3,0.8C145.7,165.3,146.1,166.6,147.7,167.2z M149,168.7c-0.6,1.1-0.4,1.6,1,1.4L149,168.7z"/>
	</g>
	<g>
		<path class="st0" d="M112.5,32.5c-0.6-0.2-1.2-0.4-1.8-0.6c-5.8-3.2-12.3-4.6-18.8-5.5c-11.5-1.6-23.1-3-34.8-2.7
			c-6.4,0.2-12.8,0.3-19.2,0.8c-7.4,0.7-14.4,2.7-21,6c-2.9,1.4-6,2.6-8.6,4.6c-2.5,1.9-4.4,4-5.2,7c-0.7,2.5,0.1,4.6,2.2,6.3
			c2.3,2,4.7,1.7,7.3,0.9c0.7-0.3,1.5-0.4,2.2-0.4l-5.1,2.9c0.2,1.3,0.3,2.5,0.6,4.2C9.4,55.7,9,55.6,9,55.4c-0.6-2.1-2.1-3.3-4-4.2
			c-1.6-0.9-2.9-2.2-3.8-3.9c-0.9-1.4-1.1-2.9-0.8-4.5c0.7-2.8,1.7-5.5,4-7.6c4.4-4.1,8.6-8.3,13.2-12.2
			c12.2-10.1,25.8-17.4,41-21.8C63.9-0.3,69-0.4,74.2,0.9c3.2,0.7,6.3,1.7,9.4,2.8c3,1.1,5.2,3.2,7.3,5.6c3.1,3.5,6.2,7.2,9.5,10.6
			c3.8,3.9,7.8,7.7,11.8,11.5c0.2,0.2,0.4,0.5,0.6,0.7L112.5,32.5z M64.7,4.2c0.4,0.2,0.8,0.3,1.2,0.5c4.7,0.5,9.1,1.7,13.4,3.6
			s8.2,4.3,11.8,7.3c0.4,0.2,0.9,0.4,1.3,0.5c-0.7-0.8-1.4-1.6-2-2.5c-1.6-2.7-3.9-4.5-6.8-5.7c-2.9-1.2-5.8-2.2-8.8-3.2
			c-1.8-0.6-3.7-1.1-5.6-1.4C67.8,3,66.2,2.7,64.7,4.2z M94.6,18.2l-0.5,0.7c0.5,0.7,1.1,1.4,1.8,2c0.2,0.2,0.8,0.1,1.3,0.1
			c0-0.4,0.1-1.1-0.1-1.3C96.3,19,95.5,18.6,94.6,18.2z"/>
	</g>
	<path class="st0" d="M117.2,295.6c2.3-0.8,4.3-1.4,6.1-2.2c1.9-0.9,3.2-2.4,4.1-4.2c0.9-1.8,1.6-3.7,2.5-6c0.3,0.5,0.5,1,0.7,1.5
		c0.1,1.5,0,3.1,0.2,4.6c0.2,1.6,0.7,3.2,1.4,4.7c0.5,1.3,1.3,2.3,2.4,3.1c1.1,0.8,2.3,1.2,3.7,1.4c-7.2,2.6-10.1,8.2-11.8,15.1
		c-0.3-0.7-0.7-1.1-0.6-1.4c1.2-6.8-1.9-11.7-7.4-15.5C118.1,296.5,117.8,296.2,117.2,295.6z"/>
	<path class="st0" d="M17.3,97.2c1.1,0.6,0.7,1.5,0.8,2.3c0.3,2.3,0.7,4.5,1.4,6.7c1,2.9,3,5.2,6.5,5.4c0.1,0,0.2,0.2,0.4,0.5
		c-7,2.7-9.5,8.5-10.9,15.6c-0.3-0.9-0.7-1.3-0.6-1.7c0.7-6.6-2.5-11.1-7.8-14.7c-0.5-0.4-1-0.7-1.8-1.3c2-0.7,4-1.6,6-2.5
		c1.9-1.1,3.2-2.6,4-4.6C16,101,16.6,99.1,17.3,97.2z"/>
	<path class="st0" d="M106.3,69.7c-7.3-1.5-21-21.6-22-32c1.5,0.5,1.7,1.8,2.1,2.9c2.6,6.8,6.1,13.2,10.5,19
		c2.4,3.1,5.4,5.9,8.1,8.8C105.4,68.8,105.8,69.1,106.3,69.7z"/>
	<path class="st0" d="M38.7,65.2c-0.1-0.3-0.2-0.5-0.1-0.6c5.9-7.2,10.2-15.4,14.7-23.4c0.4-0.7,0.5-2.1,1.8-1.6
		c1.1,0.4,0.3,1.5,0.1,2.2c-0.3,1.1-0.7,2.2-1.3,3.2c-3.2,6.8-7.8,12.8-12.7,18.5C40.6,64.2,40,65.1,38.7,65.2z"/>
	<path class="st0" d="M98.9,101.8c0.5,0,0.9,0,1.4,0.2s0.8,0.4,1.1,0.7c0.3,0.3,0.6,0.7,0.8,1.1c0.2,0.4,0.2,0.9,0.2,1.3
		c0,0.4-0.1,0.9-0.3,1.3c-0.2,0.4-0.4,0.8-0.7,1.1s-0.7,0.6-1.1,0.7c-0.4,0.2-0.8,0.3-1.3,0.3c-0.4,0-0.9-0.1-1.3-0.2
		c-0.4-0.2-0.8-0.4-1.1-0.7c-0.3-0.3-0.6-0.7-0.8-1.1c-0.2-0.4-0.3-0.8-0.3-1.3c0-0.4,0.1-0.9,0.2-1.3c0.2-0.4,0.4-0.8,0.7-1.1
		c0.3-0.3,0.7-0.6,1.1-0.8C98.1,101.9,98.5,101.8,98.9,101.8z"/>
	<path class="st0" d="M105.6,48.9c3.1,2.3,6.1,4.6,9.2,6.8c3.1,2.2,6.8,3.3,11,4.2C119.4,62.1,108.3,54.7,105.6,48.9z"/>
	<path class="st0" d="M16.7,46.8c0.6-0.6,1.3-1.1,2-1.7c2.7-1.8,5.5-3.5,8.2-5.2c1.3-1,2.7-1.6,4.3-1.8
		C30.3,41.8,21.3,47.4,16.7,46.8z"/>
	<path class="st0" d="M166.3,33.7c0,0.4,0,0.8-0.2,1.2c-0.1,0.4-0.4,0.7-0.6,1c-0.3,0.3-0.6,0.5-1,0.7c-0.4,0.2-0.8,0.2-1.1,0.2
		c-0.5,0.1-0.9,0-1.3-0.2c-0.4-0.2-0.8-0.4-1.1-0.7c-0.3-0.3-0.6-0.7-0.8-1.1c-0.2-0.4-0.2-0.9-0.2-1.3c0-0.8,0.3-1.5,0.9-2.1
		c0.6-0.6,1.3-0.9,2.1-0.9c0.9,0,1.7,0.3,2.3,1C165.9,32,166.2,32.8,166.3,33.7z"/>
	<path class="st0" d="M19.2,79.4c0,0.4-0.1,0.8-0.2,1.2c-0.2,0.4-0.4,0.7-0.7,1c-0.3,0.3-0.7,0.5-1,0.7c-0.4,0.2-0.8,0.2-1.2,0.2
		c-0.4,0-0.8-0.1-1.2-0.2c-0.4-0.1-0.7-0.4-1-0.7c-0.3-0.3-0.5-0.6-0.6-1s-0.2-0.8-0.2-1.2c0-0.4,0.1-0.8,0.3-1.2s0.4-0.7,0.7-1
		c0.3-0.3,0.7-0.5,1.1-0.6c0.4-0.2,0.8-0.2,1.2-0.2c0.4,0,0.7,0.1,1.1,0.2c0.3,0.2,0.7,0.4,0.9,0.7s0.5,0.6,0.6,1
		C19.2,78.6,19.3,79,19.2,79.4z"/>
	<path class="st0" d="M81,38.7l7.6,17.6C84.8,53.6,79.8,42.4,81,38.7z"/>
	<path class="st0" d="M42,258.3c0.4,0,0.8,0,1.2,0.2c0.4,0.1,0.7,0.4,1.1,0.6c0.3,0.3,0.5,0.6,0.7,1s0.2,0.8,0.3,1.2
		c0,0.4-0.1,0.7-0.2,1.1c-0.2,0.4-0.4,0.6-0.6,0.9c-0.3,0.2-0.6,0.4-0.9,0.6c-0.3,0.1-0.7,0.2-1.1,0.2c-0.8,0-1.6-0.3-2.2-0.9
		c-0.6-0.6-1-1.3-1-2.2c0-0.4,0.1-0.7,0.2-1.1c0.2-0.3,0.4-0.6,0.7-0.9c0.3-0.2,0.6-0.4,1-0.5C41.3,258.3,41.7,258.2,42,258.3z"/>
	<path class="st0" d="M11,242.2c-1.8,0-2.9-1-3-2.6c0-0.4,0-0.8,0.2-1.2c0.1-0.4,0.3-0.7,0.6-1c0.3-0.3,0.6-0.5,1-0.7
		c0.4-0.2,0.8-0.3,1.2-0.3c0.4,0,0.8,0,1.2,0.2c0.4,0.1,0.7,0.4,1,0.6c0.3,0.3,0.5,0.6,0.7,1c0.2,0.4,0.2,0.8,0.2,1.2
		s-0.1,0.8-0.2,1.1c-0.2,0.4-0.4,0.7-0.7,1c-0.3,0.3-0.6,0.5-1,0.6C11.8,242.1,11.4,242.2,11,242.2z"/>
	<path class="st0" d="M56.2,44c0.5,0.2,0.8,0.5,1,1c0.2,0.5,0.2,0.9-0.1,1.4c-1.2,4.2-2.4,8.6-5.7,11.9C52.7,53.4,54,48.5,56.2,44z"
		/>
	<path class="st0" d="M136.6,335.1c-0.7,0-1.4-0.3-1.9-0.9c-0.5-0.5-0.7-1.2-0.7-1.9c0.1-0.7,0.4-1.3,0.9-1.8
		c0.5-0.5,1.2-0.8,1.9-0.8c0.7,0,1.3,0.3,1.8,0.8c0.5,0.5,0.7,1.1,0.7,1.8c0,0.7-0.3,1.4-0.8,1.9C138,334.7,137.4,335,136.6,335.1z"
		/>
	<path class="st0" d="M138.4,240c0-0.4,0-0.7,0.1-1c0.1-0.3,0.3-0.6,0.5-0.8c0.2-0.2,0.5-0.4,0.8-0.6c0.3-0.1,0.6-0.2,1-0.2
		c0.7,0,1.2,0.2,1.7,0.7c0.5,0.4,0.8,1,0.8,1.6c0.1,1.2-1.2,2.3-2.7,2.4c-0.3,0-0.6,0-0.9-0.1c-0.3-0.1-0.5-0.2-0.8-0.4
		c-0.2-0.2-0.4-0.4-0.5-0.7C138.4,240.6,138.4,240.3,138.4,240z"/>
	<path class="st0" d="M22.5,50.9c-1.8,3.4-4.5,5.2-8,6.9C15.7,55.1,20.1,51.3,22.5,50.9z"/>
	<g>
		<g>
			<rect id="SVGID_1_" x="161.7" y="266.5" class="st0" width="6.4" height="5.9"/>
		</g>
		<g>
			<defs>
				<rect id="SVGID_00000091710375254472054310000001689746115682670509_" x="161.7" y="266.5" width="6.4" height="5.9"/>
			</defs>
			<clipPath id="SVGID_00000021114560818921721450000015396161786843194267_">
				<use xlink:href="#SVGID_00000091710375254472054310000001689746115682670509_"  style="overflow:visible;"/>
			</clipPath>
			<g style="clip-path:url(#SVGID_00000021114560818921721450000015396161786843194267_);">
				<path class="st0" d="M163.7,268.9c0-0.6,0.2-1.1,0.6-1.5c0.4-0.4,0.9-0.6,1.5-0.6c0.6,0,1,0.2,1.4,0.6c0.4,0.4,0.6,0.9,0.6,1.4
					c0,0.6-0.2,1.2-0.7,1.7c-0.5,0.5-1,0.7-1.7,0.7c-0.6,0-1-0.2-1.4-0.7C163.8,270,163.6,269.5,163.7,268.9z"/>
			</g>
		</g>
	</g>
	<path class="st0" d="M119.2,48.7c-1.9,1.4-3.7,0.5-5.5,0.1c-1.3-0.3-2.9-0.4-3.2-2.2C111.9,46.5,117.5,47.8,119.2,48.7z"/>
	<path class="st0" d="M13.7,43.3c-2.1,1.1-4.4,2.1-7,1.7c-0.5-0.1-0.8-0.4-1-0.8c0-0.5,0.3-0.8,0.7-1c2.3-0.3,4.7-0.5,7.1-0.7
		L13.7,43.3z"/>
	<path class="st0" d="M118.3,42c-1.6,1.6-4.9,2-6.4,0.9c-0.3-0.2-0.6-0.8-0.5-1c0.3-0.3,0.7-0.6,1.1-0.7c0.1-0.1,0.3,0,0.5,0
		L118.3,42z"/>
	<path class="st0" d="M136.1,288.7c1.6-2,7-4.5,9.7-4.4C142.8,286.3,139.6,287.7,136.1,288.7z"/>
	<path class="st0" d="M27.4,266.4c-0.4,0.3-0.8,0.5-1.3,0.6c-3.3,0.3-6.2,0-7.2-0.5C20.5,265.7,25.7,265.6,27.4,266.4z"/>
	<path class="st0" d="M23.9,102c0.9-1.6,6.4-4.6,8.7-4.7C31.5,98.8,25.9,101.9,23.9,102z"/>
	<path class="st0" d="M134.4,306.5l5.9,7.1l-0.2,0.3c-0.4-0.1-0.8-0.1-1-0.3c-3.8-3.8-5.1-5.4-5.2-6.9L134.4,306.5z"/>
	<path class="st0" d="M22.5,120.4c0.4,0,0.8-0.1,0.9,0.1c2,2.1,4,4.2,6.3,6.7C27.6,126.6,23.2,122.3,22.5,120.4z"/>
	<path class="st0" d="M116.5,279.8c1.6,0.8,4.6,4.7,5.6,7.3c-1-0.2-1-0.1-3.2-3.1C118,282.7,116.5,281.7,116.5,279.8z"/>
	<path class="st0" d="M3.7,94.3c0.4,0.1,0.7,0,0.9,0.2c1.9,2.1,3.6,4.3,4.9,6.8C8.1,100.7,4.4,96.4,3.7,94.3z"/>
	<path class="st0" d="M16.4,279.3c-1.2-2.2-1.2-7.5-0.2-9.1C17,271.8,17.2,276.5,16.4,279.3z"/>
	<path class="st0" d="M16.3,255c0.6,2.9,0.8,5.7,0.6,8.6c0,0.2-0.4,0.4-0.7,0.6C15.4,262.5,15.3,257.4,16.3,255z"/>
	<path class="st0" d="M112.5,60.6c2.8,0.7,4.7,2.5,7.6,3.2c-1.5,0.4-2.9,0.2-4.3-0.3C114.4,62.9,113.3,62,112.5,60.6z"/>
	<path class="st0" d="M13.8,266.4c-2.4,0.7-4.8,0.8-7.2,0.3C8.1,265.8,11.1,265.6,13.8,266.4z"/>
	<g>
		<g>
			<rect id="SVGID_00000104689487340797185560000012685622798330445184_" y="119" class="st0" width="8.3" height="5.9"/>
		</g>
		<g>
			<defs>
				<rect id="SVGID_00000142864903022745367670000014380235025768007574_" y="119" width="8.3" height="5.9"/>
			</defs>
			<clipPath id="SVGID_00000127762207995474444340000001223074577113617599_">
				<use xlink:href="#SVGID_00000142864903022745367670000014380235025768007574_"  style="overflow:visible;"/>
			</clipPath>
			<g style="clip-path:url(#SVGID_00000127762207995474444340000001223074577113617599_);">
				<path class="st0" d="M7.1,119.2c-0.1,0.3-0.3,0.5-0.5,0.8c-2,1.6-4,3.2-6.2,4.9C1,123.3,4.4,120.2,7.1,119.2z"/>
			</g>
		</g>
	</g>
	<path class="st0" d="M47.5,64c0.5-1.2,1-2.4,1.7-3.5c0.2-0.3,0.9-0.4,1.4-0.6c0.1,0.4,0.3,1,0.2,1.3c-0.5,1.4-1.4,2.5-2.7,3.2
		L47.5,64z"/>
	<path class="st0" d="M116.3,36.8c-1.3-0.1-2.5-1.2-2.3-2c0.2-0.5,0.6-0.9,1.1-1c0.9-0.2,2.1,1,2,1.8
		C117,36.2,116.5,36.6,116.3,36.8z"/>
	<path class="st0" d="M111.5,309.9c1.9-2.2,4.2-3.9,6.9-5.2C117.7,306.2,114,308.9,111.5,309.9z"/>
	<path class="st0" d="M89.3,58.8c1.7,0.5,2.6,1.5,3.8,4.1C90.8,62.4,90,60.8,89.3,58.8z"/>
	<path class="st0" d="M10.7,57.2c1.2-0.1,2,0,2.1,1.2c-0.1,0.4-0.3,0.7-0.7,0.8C10.9,59.2,10.5,58.5,10.7,57.2z"/>
	<path class="st0" d="M11.4,261.7l2.4,1.7C12,263.7,11.8,262.5,11.4,261.7z"/>
	<path class="st0" d="M16.1,265.8c0.3,0.5,0.7,0.8,0.6,1.1c-0.1,0.3-0.5,0.5-0.8,0.7c-0.2-0.3-0.6-0.5-0.7-0.8
		C15.3,266.5,15.7,266.2,16.1,265.8z"/>
	<path class="st0" d="M19,269c0.5,0.6,0.9,1.2,1.4,1.8l-0.5,0.5l-1.5-1.7L19,269z"/>
	<path class="st0" d="M18.9,263l1.6-1.4c0.1,0.4,0,0.8-0.3,1.1c-0.2,0.4-0.5,0.6-0.9,0.7L18.9,263z"/>
	<path class="st0" d="M13.5,269l-1.9,1.6c0-0.5,0.1-0.9,0.4-1.3c0.3-0.4,0.6-0.6,1.1-0.7L13.5,269z"/>
	<path class="st0" d="M70.3,75.9c0.3,0.9,0.5,1.8,0.7,2.7c0,3.4-0.1,6.9-0.2,10.3c-0.2,4.8-0.3,9.7-0.5,14.5
		c-0.2,5.3-0.5,10.6-0.8,15.9c-0.3,6.4-0.8,12.8-1,19.1c-0.2,3.9,0,7.7,0,11.6c0,0.8,0,1.5,0,2.5c-0.4-0.1-0.8-0.4-1-0.7
		c-0.3-0.4-0.4-0.8-0.3-1.2c-0.2-2.2-0.5-4.4-0.5-6.6c-0.2-8.5,0.1-17,0.7-25.5c0.5-6.5,0.5-13.1,0.8-19.7
		c0.3-6.9,0.6-13.8,0.9-20.6c0.1-0.8,0.2-1.5,0.4-2.3L70.3,75.9z"/>
	<path class="st0" d="M56.1,362.2c-0.3-2.1-0.7-4.1-0.8-6.2c-0.6-11.3-0.4-22.6,0.7-33.9c0.4-4.2,0.3-8.5,0.5-12.8
		c0-1-0.2-2.1,0.9-2.9c1.3,0.8,1.2,2.1,1.3,3.1c0.1,3.7,0.3,7.4,0.1,11c-0.3,5.2-1.1,10.5-1.3,15.7c-0.3,7.7-0.2,15.4-0.2,23.1
		c0,0.9-0.1,1.9-0.2,2.8L56.1,362.2z"/>
	<path class="st0" d="M119.6,178.5c0.5,1.8,0,3.5-0.1,5.3c-0.6,6.2-2.8,12-5,17.7c-2.5,6.5-4.9,13.1-7.4,19.6
		c-0.4,1.1-0.9,2.2-1.4,3.3c-1.3-0.7-0.8-1.5-0.6-2.1c0.6-2.2,1.5-4.4,2-6.6c2.2-8.7,5-17.2,8.5-25.4c1.2-2.9,1.8-6.1,2.6-9.2
		c0.2-0.9,0.4-1.8,0.7-2.7L119.6,178.5z"/>
	<path class="st0" d="M58.6,365.9c-0.5,0.5-0.9,1-1.2,1c-0.4-0.1-0.8-0.4-0.9-0.8c0-0.3,0.5-0.8,0.8-0.9
		C57.6,365.1,58,365.6,58.6,365.9z"/>
	<path class="st0" d="M133.4,188.6c-1.8-0.6-2.8-1.9-2.4-2.9c0.2-0.4,0.6-0.7,1-0.8c0.5,0,0.9,0.2,1.1,0.6
		C133.3,186.6,133.4,187.6,133.4,188.6z"/>
	<path class="st0" d="M103.2,168.1c0.7,2.8-2.7,9.2-6.3,11.7C98.4,175.6,100.5,171.7,103.2,168.1z"/>
	<path class="st0" d="M95.1,181.9l1.1-0.8c0.2,0.3,0.6,0.7,0.6,0.8c-0.3,0.4-0.6,0.6-1,0.8C95.7,182.7,95.3,182.3,95.1,181.9z"/>
</g>
</svg>
